<!-- Generator: Adobe Illustrator 18.1.0, SVG Export Plug-In  -->
<svg version="1.1"
	 xmlns="http://www.w3.org/2000/svg" xmlns:xlink="http://www.w3.org/1999/xlink" xmlns:a="http://ns.adobe.com/AdobeSVGViewerExtensions/3.0/"
	 x="0px" y="0px" width="278.9px" height="121.1px" viewBox="0 0 278.9 121.1" enable-background="new 0 0 278.9 121.1"
	 xml:space="preserve">
<defs>
</defs>
<g>
	<path d="M0,70.9V43.8h5.1c0.7,0,1.3,0,1.9,0c0.6,0,1.2,0.1,1.8,0.2c0.6,0.1,1.1,0.3,1.6,0.6s1,0.7,1.4,1.2c0.3,0.4,0.6,0.8,0.7,1.2
		c0.2,0.4,0.3,1,0.4,1.7s0.1,1.6,0.2,2.6c0,1,0,2.4,0,4c0,0.4,0,0.7,0,1.2s0,0.9,0,1.4c0,0.5,0,1.2,0,1.8c0,0.7,0,1.5-0.1,2.4
		c0,1.3-0.1,2.5-0.2,3.5c-0.1,1-0.4,1.9-0.9,2.7c-0.4,0.6-0.8,1.1-1.3,1.4c-0.5,0.3-1,0.6-1.7,0.7c-0.6,0.2-1.2,0.2-1.9,0.3
		s-1.4,0-2.1,0H0z M3.4,67.9h2.2c0.5,0,1,0,1.5-0.1c0.5-0.1,0.9-0.2,1.2-0.3s0.6-0.4,0.9-0.8c0.2-0.3,0.4-0.8,0.5-1.4
		c0.1-0.3,0.1-0.8,0.1-1.3c0-0.6,0.1-1.2,0.1-1.8c0-0.6,0-1.3,0-1.9c0-0.6,0-1.1,0-1.4c0-0.6,0-1.2,0-1.6c0-0.5,0-0.9,0-1.4
		s0-0.9,0-1.4c0-0.5,0-1,0-1.7c0-0.7,0-1.4,0-2s-0.1-1.1-0.2-1.5c-0.1-0.4-0.2-0.8-0.4-1.1c-0.2-0.3-0.4-0.5-0.7-0.7
		c-0.2-0.2-0.4-0.3-0.7-0.3C7.7,47.1,7.4,47,7,47s-0.8-0.1-1.4-0.1c-0.6,0-1.3,0-2.2,0V67.9z"/>
	<path d="M29.8,43.8v18.3c0,0.8,0,1.6,0,2.2c0,0.6,0,1.1-0.1,1.6c0,0.5-0.1,0.9-0.2,1.2c-0.1,0.4-0.2,0.7-0.4,1.1
		c-0.3,0.7-0.7,1.3-1.2,1.7c-0.5,0.4-1.1,0.7-1.6,0.9c-0.6,0.2-1.1,0.3-1.7,0.4c-0.5,0.1-1,0.1-1.3,0.1c-1.5,0-2.7-0.2-3.7-0.7
		c-1-0.5-1.8-1.2-2.3-2.3c-0.1-0.3-0.2-0.6-0.3-0.9c-0.1-0.3-0.2-0.6-0.2-1.1c0-0.4-0.1-1-0.1-1.6c0-0.6,0-1.5,0-2.5V43.8H20v19.8
		c0,0.6,0,1.2,0.1,1.7c0,0.6,0.2,1.1,0.4,1.5c0.2,0.4,0.5,0.8,1,1.1c0.4,0.3,1.1,0.4,1.9,0.4c0.7,0,1.3-0.1,1.7-0.3
		c0.4-0.2,0.7-0.5,0.9-0.8c0.2-0.3,0.3-0.7,0.4-1.1c0.1-0.4,0.1-0.7,0.1-1c0-0.3,0-0.5,0-0.7c0-0.2,0-0.4,0-0.6s0-0.5,0-0.8
		c0-0.3,0-0.7,0-1.2v-18H29.8z"/>
	<path d="M46.5,70.9h-4.8l-5.3-23.5l0.5,23.5h-3.3V43.8h4.6l5.5,23.8l-0.5-23.8h3.3V70.9z"/>
	<path d="M64.4,70.9h-3.7L55.8,57l-2.1,3.3v10.6h-3.4V43.8h3.4v11.7l7-11.7h3.7L58,54L64.4,70.9z"/>
	<path d="M78.5,70.9H66.3V43.8h11.9v3h-8.5v8.1h7.5v3h-7.5v9.9h8.8V70.9z"/>
	<path d="M92.8,70.9H81.5V43.8h3.4v24.1h7.9V70.9z"/>
</g>
<g>
	<path d="M210.6,70.9h-12.7v-2.8l8.9-21.3h-7.6v-3h11.4v2.6l-9.1,21.5h9.1V70.9z"/>
	<path d="M216.8,70.9h-3.4V43.8h3.4V70.9z"/>
	<path d="M224,70.9h-3.4V43.8h11.9v3H224v8h7.4v3H224V70.9z"/>
	<path d="M238.3,70.9H235V43.8h11.9v3h-8.5v8h7.4v3h-7.4V70.9z"/>
	<path d="M261.6,70.9h-12.2V43.8h11.9v3h-8.5v8.1h7.5v3h-7.5v9.9h8.8V70.9z"/>
	<path d="M278.9,70.9h-3.6L270.7,59h-2.8v11.9h-3.4V43.8h5.9c0.9,0,1.8,0.1,2.6,0.2c0.9,0.1,1.6,0.4,2.3,0.9s1.2,1.2,1.6,2.2
		c0.4,1,0.6,2.3,0.6,4c0,1-0.1,1.9-0.2,2.7c-0.1,0.8-0.3,1.5-0.5,2c-0.2,0.6-0.4,1-0.7,1.3c-0.3,0.3-0.5,0.6-0.8,0.8
		c-0.3,0.2-0.6,0.3-0.8,0.4c-0.3,0.1-0.5,0.2-0.7,0.2L278.9,70.9z M267.9,56.4c0.9,0,1.7,0,2.3,0s1,0,1.4-0.1c0.4,0,0.6-0.1,0.8-0.2
		c0.2-0.1,0.4-0.2,0.6-0.3c0.3-0.2,0.6-0.5,0.8-0.9c0.2-0.3,0.3-0.7,0.4-1.1c0.1-0.4,0.1-0.8,0.1-1.2s0-0.8,0-1.1c0-0.4,0-0.8,0-1.2
		s-0.1-0.8-0.2-1.2c-0.1-0.4-0.2-0.7-0.4-1c-0.2-0.3-0.4-0.6-0.8-0.8c-0.2-0.1-0.4-0.2-0.6-0.3c-0.2-0.1-0.5-0.1-0.9-0.2
		s-0.8-0.1-1.4-0.1s-1.3,0-2.1,0V56.4z"/>
</g>
<g>
	<defs>
		<rect id="SVGID_1_" x="144.6" y="0" width="59.1" height="121.1"/>
	</defs>
	<clipPath id="SVGID_2_">
		<use xlink:href="#SVGID_1_"  overflow="visible"/>
	</clipPath>
	<g clip-path="url(#SVGID_2_)">
		<circle cx="144.4" cy="59.5" r="45.3"/>
	</g>
	<g clip-path="url(#SVGID_2_)">
		<circle fill="#FFFFFF" cx="144.4" cy="59.5" r="36.9"/>
	</g>
	<g clip-path="url(#SVGID_2_)">
		<g>
			<path d="M185.2,59.6c0,22.4-18.1,40.6-40.6,40.6S104.1,82,104.1,59.6S122.2,19,144.6,19S185.2,37.1,185.2,59.6z M146.6,24.3
				c-2.3,1.8-5,2.3-7.8,2.8c-1.4,0.2-2.7,0.4-4.1,0.7c-1.4,0.4-2.2-0.4-3.6-0.4c-2.8,0-5.2,2-7.1,3.9c-1.8,1.7,0.6,2.1,0.3,3.6
				c-0.3,3.5-2.1,6.5-3.3,9.7c-0.6,1.7-1.1,3.5-1.2,5.3c-0.1,1.9,0.8,3.2,1.4,4.9c0.8,2.5,0,4,1.9,5.9c1.8,1.8,3.5,3.4,3.3,6.2
				c2.8,3,6.9,4.4,10.6,5.8c1.2,0.5,2.4,1,3.5,1.5c0.5,0.9,1.1,1.6,1.9,2.2c1.5,1.2,3.4,1.7,5.4,1.4c1.1,2.5-2.9,5-2.5,7.9
				c1.5,2.3,3.2,5,6.1,5.6c-0.1,1.2-1.2,1.8-0.1,3.1c5.4,0.1,11.9-3.7,15.5-7.7c3.2-3.1,6.7-6.5,7.2-11.2c-1.3-1.2-2.4-0.4-3.9-0.1
				c-2.1-2.5-6-1.5-8.4-3.4c-3.2,0.1-6.7-0.2-9.8,0.8c-1.1,0.4-5.1,3.8-6.4,1.7c-0.6-0.8-0.1-2.6-0.2-3.6c-0.7-1.5-2.5-1-3.6-1.7
				c0.1-1.4,1.2-3.5-0.6-4.4c-2.2-0.5-2.3,0.8-4.1,1.4c-3.7,1.3-4-5.5-1.3-6.6c2,0.4,4.2-0.1,6.1,0.5c2.1,0.7,2.4,3,5.2,3
				c1.8-1.5,0.8-3.2,0.9-5.1c0.6-1.5,2.2-2.3,2.8-3.7c0.4-1.1,0.2-2.6,0.5-3.7c0.6-2.2,2.3-3.2,4.2-4.1c-0.3-1.1,0-1.8,0.7-2.6
				c2.3,0,4.5,1,6.3-1.2c-2-4.6-7.3-6.3-11.3-8.6c0.2-1,0-2.1,0.1-3.1c2.5,0.9,4.9,1.2,7.5,1.1l0.1-0.5c1-5.8-6.5-4.8-9.6-7.4
				l-0.2,0.2h-2.2L146.6,24.3z M148,39.6c-2.8-0.6-6.6-0.6-9.1-2.3c0.3-1.5,2.3-2.4,2.2-3.9c0.5,0.6,1.2,0.8,2,0.7
				c0.8-0.7,1.4-1.9,2.4-2.4C145.5,34.6,147.8,37,148,39.6z"/>
		</g>
	</g>
</g>
<g>
	<defs>
		<rect id="SVGID_3_" x="86" y="0" width="59.1" height="121.1"/>
	</defs>
	<clipPath id="SVGID_4_">
		<use xlink:href="#SVGID_3_"  overflow="visible"/>
	</clipPath>
	<g clip-path="url(#SVGID_4_)">
		<circle cx="145" cy="59.6" r="45.4"/>
	</g>
	<g clip-path="url(#SVGID_4_)">
		<g>
			<path fill="#FFFFFF" d="M185.4,59.6c0,22.3-18.1,40.4-40.4,40.4s-40.4-18.1-40.4-40.4s18.1-40.4,40.4-40.4S185.4,37.2,185.4,59.6
				z M147,24.4c-2.3,1.8-5,2.3-7.8,2.8c-1.4,0.2-2.7,0.4-4,0.7c-1.4,0.3-2.2-0.4-3.6-0.4c-2.8,0-5.2,2-7.1,3.8
				c-1.8,1.7,0.6,2.1,0.3,3.6c-0.3,3.5-2.1,6.5-3.3,9.7c-0.6,1.7-1,3.5-1.2,5.3c-0.1,1.8,0.8,3.2,1.4,4.9c0.8,2.5,0,4,1.8,5.9
				c1.8,1.8,3.5,3.3,3.2,6.1c2.8,3,6.9,4.4,10.6,5.8c1.2,0.5,2.4,1,3.5,1.5c0.5,0.9,1.1,1.6,1.9,2.2c1.5,1.2,3.4,1.7,5.3,1.4
				c1.1,2.4-2.9,5-2.5,7.9c1.5,2.3,3.2,5,6.1,5.6c-0.1,1.2-1.2,1.7-0.1,3.1c5.4,0.1,11.9-3.7,15.5-7.6c3.2-3.1,6.7-6.5,7.2-11.1
				c-1.3-1.2-2.4-0.4-3.8-0.1c-2.1-2.5-5.9-1.5-8.3-3.4c-3.2,0.1-6.7-0.2-9.7,0.8c-1.1,0.4-5.1,3.8-6.4,1.7
				c-0.6-0.8-0.1-2.6-0.2-3.6c-0.7-1.5-2.4-1-3.6-1.7c0.1-1.4,1.2-3.5-0.6-4.4c-2.2-0.5-2.3,0.8-4,1.4c-3.7,1.3-4-5.5-1.3-6.6
				c2,0.4,4.2-0.1,6,0.5c2.1,0.7,2.4,3,5.2,3c1.8-1.5,0.8-3.2,0.9-5.1c0.6-1.5,2.2-2.3,2.8-3.7c0.4-1,0.2-2.5,0.5-3.7
				c0.6-2.2,2.3-3.2,4.2-4.1c-0.3-1.1,0-1.7,0.7-2.5c2.3,0,4.5,1,6.2-1.2c-2-4.6-7.3-6.3-11.3-8.6c0.2-1,0-2.1,0.1-3.1
				c2.5,0.9,4.9,1.2,7.5,1l0.1-0.5c1-5.8-6.5-4.8-9.6-7.3l-0.2,0.2h-2.2L147,24.4z M148.3,39.7c-2.8-0.6-6.6-0.6-9-2.3
				c0.3-1.5,2.3-2.4,2.2-3.8c0.5,0.6,1.2,0.8,2,0.7c0.8-0.7,1.4-1.8,2.4-2.4C145.9,34.7,148.2,37,148.3,39.7z"/>
		</g>
	</g>
</g>
</svg>
