<!-- Generator: Adobe Illustrator 18.1.0, SVG Export Plug-In  -->
<svg version="1.1"
	 xmlns="http://www.w3.org/2000/svg" xmlns:xlink="http://www.w3.org/1999/xlink" xmlns:a="http://ns.adobe.com/AdobeSVGViewerExtensions/3.0/"
	 x="0px" y="0px" width="36.5px" height="36.5px" viewBox="0 0 36.5 36.5" enable-background="new 0 0 36.5 36.5"
	 xml:space="preserve">
<defs>
</defs>
<circle cx="18.2" cy="18.2" r="18.2"/>
<g>
	<path fill="#FFFFFF" d="M34.5,18.2c0,9-7.3,16.2-16.2,16.2S2,27.2,2,18.2S9.3,2,18.2,2S34.5,9.3,34.5,18.2z M19,4.1
		c-0.9,0.7-2,0.9-3.1,1.1c-0.5,0.1-1.1,0.2-1.6,0.3c-0.6,0.1-0.9-0.2-1.4-0.2c-1.1,0-2.1,0.8-2.8,1.5c-0.7,0.7,0.2,0.8,0.1,1.4
		c-0.1,1.4-0.8,2.6-1.3,3.9c-0.3,0.7-0.4,1.4-0.5,2.1c-0.1,0.7,0.3,1.3,0.5,2c0.3,1,0,1.6,0.7,2.4c0.7,0.7,1.4,1.3,1.3,2.5
		c1.1,1.2,2.8,1.8,4.3,2.3c0.5,0.2,1,0.4,1.4,0.6c0.2,0.4,0.4,0.7,0.8,0.9c0.6,0.5,1.4,0.7,2.1,0.6c0.4,1-1.2,2-1,3.2
		c0.6,0.9,1.3,2,2.5,2.2c0,0.5-0.5,0.7-0.1,1.2c2.2,0.1,4.8-1.5,6.2-3.1c1.3-1.2,2.7-2.6,2.9-4.5c-0.5-0.5-1-0.2-1.5-0.1
		c-0.8-1-2.4-0.6-3.4-1.4c-1.3,0-2.7-0.1-3.9,0.3c-0.4,0.2-2.1,1.5-2.6,0.7c-0.2-0.3,0-1.1-0.1-1.4c-0.3-0.6-1-0.4-1.4-0.7
		c0.1-0.6,0.5-1.4-0.2-1.8c-0.9-0.2-0.9,0.3-1.6,0.6c-1.5,0.5-1.6-2.2-0.5-2.6c0.8,0.2,1.7-0.1,2.4,0.2c0.9,0.3,1,1.2,2.1,1.2
		c0.7-0.6,0.3-1.3,0.4-2.1c0.2-0.6,0.9-0.9,1.1-1.5c0.2-0.4,0.1-1,0.2-1.5c0.2-0.9,0.9-1.3,1.7-1.7c-0.1-0.4,0-0.7,0.3-1
		c0.9,0,1.8,0.4,2.5-0.5c-0.8-1.8-2.9-2.5-4.5-3.5c0.1-0.4,0-0.8,0-1.2c1,0.4,2,0.5,3,0.4l0-0.2c0.4-2.3-2.6-1.9-3.9-2.9L20,4.2
		L19,4.1L19,4.1z M19.6,10.2c-1.1-0.3-2.7-0.3-3.6-0.9c0.1-0.6,0.9-1,0.9-1.5C17,8,17.3,8.1,17.6,8.1c0.3-0.3,0.6-0.7,1-1
		C18.6,8.2,19.5,9.2,19.6,10.2z"/>
</g>
</svg>
