<!-- Generator: Adobe Illustrator 18.1.0, SVG Export Plug-In  -->
<svg version="1.1"
	 xmlns="http://www.w3.org/2000/svg" xmlns:xlink="http://www.w3.org/1999/xlink" xmlns:a="http://ns.adobe.com/AdobeSVGViewerExtensions/3.0/"
	 x="0px" y="0px" width="36.5px" height="36.5px" viewBox="0 0 36.5 36.5" enable-background="new 0 0 36.5 36.5"
	 xml:space="preserve">
<defs>
</defs>
<g>
	<path d="M36.5,18.2c0,10.1-8.2,18.2-18.2,18.2S0,28.3,0,18.2S8.2,0,18.2,0S36.5,8.2,36.5,18.2z M19.1,2.4c-1,0.8-2.3,1-3.5,1.2
		C15,3.7,14.4,3.8,13.8,4c-0.6,0.2-1-0.2-1.6-0.2c-1.3,0-2.3,0.9-3.2,1.7C8.1,6.3,9.2,6.5,9.1,7.1C9,8.7,8.2,10.1,7.6,11.5
		c-0.3,0.8-0.5,1.6-0.5,2.4c-0.1,0.8,0.3,1.4,0.6,2.2c0.4,1.1,0,1.8,0.8,2.7c0.8,0.8,1.6,1.5,1.5,2.8c1.3,1.4,3.1,2,4.8,2.6
		c0.5,0.2,1.1,0.4,1.6,0.7c0.2,0.4,0.5,0.7,0.9,1c0.7,0.6,1.5,0.8,2.4,0.6c0.5,1.1-1.3,2.2-1.1,3.6c0.7,1.1,1.4,2.2,2.8,2.5
		c0,0.6-0.6,0.8-0.1,1.4c2.4,0.1,5.4-1.7,7-3.5c1.4-1.4,3-2.9,3.2-5c-0.6-0.5-1.1-0.2-1.7-0.1c-0.9-1.1-2.7-0.7-3.8-1.5
		c-1.4,0-3-0.1-4.4,0.4c-0.5,0.2-2.3,1.7-2.9,0.8c-0.3-0.3,0-1.2-0.1-1.6c-0.3-0.7-1.1-0.5-1.6-0.8c0.1-0.6,0.6-1.6-0.3-2
		c-1-0.2-1.1,0.4-1.8,0.6c-1.7,0.6-1.8-2.5-0.6-3c0.9,0.2,1.9-0.1,2.7,0.2c1,0.3,1.1,1.3,2.3,1.3c0.8-0.7,0.3-1.4,0.4-2.3
		c0.3-0.7,1-1,1.2-1.7c0.2-0.5,0.1-1.2,0.2-1.7c0.3-1,1.1-1.4,1.9-1.9c-0.1-0.5,0-0.8,0.3-1.2c1.1,0,2,0.4,2.8-0.5
		c-0.9-2.1-3.3-2.8-5.1-3.9c0.1-0.4,0-0.9,0-1.4c1.1,0.4,2.2,0.6,3.4,0.5l0-0.2c0.5-2.6-2.9-2.2-4.3-3.3l-0.1,0.1L19.1,2.4L19.1,2.4
		z M19.7,9.3c-1.3-0.3-3-0.3-4.1-1c0.2-0.7,1-1.1,1-1.7c0.2,0.3,0.6,0.4,0.9,0.3c0.3-0.3,0.6-0.8,1.1-1.1C18.7,7,19.7,8.1,19.7,9.3z
		"/>
</g>
</svg>
