<?xml version="1.0" encoding="utf-8"?>
<!-- Generator: Adobe Illustrator 18.1.0, SVG Export Plug-In . SVG Version: 6.00 Build 0)  -->
<!DOCTYPE svg PUBLIC "-//W3C//DTD SVG 1.1//EN" "http://www.w3.org/Graphics/SVG/1.1/DTD/svg11.dtd">
<svg version="1.1" id="Ebene_1" xmlns="http://www.w3.org/2000/svg" xmlns:xlink="http://www.w3.org/1999/xlink" x="0px" y="0px"
	 viewBox="0 0 508 545.7" enable-background="new 0 0 508 545.7" xml:space="preserve">
<g>
	<path fill="#1A1A1A" d="M8,206.3v-15.7h4.3v15.7H8z"/>
	<path fill="#1A1A1A" d="M27,201.5c0,1-0.2,1.8-0.7,2.6c-0.5,0.8-1.2,1.3-2.1,1.8c-0.9,0.4-2,0.6-3.3,0.6c-1,0-1.9-0.1-2.6-0.2
		c-0.7-0.1-1.4-0.4-2.2-0.8v-3.8c0.8,0.4,1.7,0.7,2.5,1c0.9,0.2,1.7,0.3,2.4,0.3c0.6,0,1.1-0.1,1.4-0.3c0.3-0.2,0.4-0.5,0.4-0.8
		c0-0.2-0.1-0.4-0.2-0.6c-0.1-0.2-0.3-0.3-0.6-0.5c-0.3-0.2-1-0.5-2.1-1c-1-0.5-1.8-0.9-2.3-1.4c-0.5-0.4-0.9-0.9-1.1-1.5
		s-0.4-1.2-0.4-2c0-1.4,0.5-2.6,1.6-3.4s2.5-1.2,4.3-1.2c1.6,0,3.3,0.4,5,1.1l-1.3,3.3c-1.5-0.7-2.7-1-3.8-1c-0.6,0-1,0.1-1.2,0.3
		s-0.4,0.4-0.4,0.7c0,0.3,0.2,0.6,0.5,0.8c0.3,0.2,1.2,0.7,2.6,1.3c1.4,0.6,2.3,1.3,2.8,2C26.7,199.6,27,200.5,27,201.5z"/>
	<path fill="#1A1A1A" d="M30.5,206.3v-15.7h4.2v12.3h6v3.4H30.5z"/>
	<path fill="#1A1A1A" d="M54.1,206.3l-0.8-2.9h-5.1l-0.8,2.9h-4.7l5.1-15.8h5.7l5.2,15.8H54.1z M52.4,199.9l-0.7-2.6
		c-0.2-0.6-0.3-1.3-0.6-2.2s-0.4-1.6-0.4-2c-0.1,0.4-0.2,1-0.4,1.8c-0.2,0.8-0.6,2.5-1.3,5H52.4z"/>
	<path fill="#1A1A1A" d="M68.3,206.3L65.1,195H65c0.2,1.9,0.2,3.4,0.2,4.5v6.8h-3.8v-15.7h5.7l3.3,11.2h0.1l3.2-11.2h5.7v15.7h-3.9
		v-6.9c0-0.4,0-0.8,0-1.2s0.1-1.5,0.1-3.2h-0.1l-3.2,11.3H68.3z"/>
	<path fill="#1A1A1A" d="M83.9,206.3v-15.7h4.3v15.7H83.9z"/>
	<path fill="#1A1A1A" d="M99.6,193.9c-1,0-1.8,0.4-2.4,1.2c-0.6,0.8-0.8,2-0.8,3.4c0,3,1.1,4.5,3.4,4.5c0.7,0,1.4-0.1,2-0.3
		s1.3-0.4,2-0.7v3.6c-1.3,0.6-2.8,0.9-4.4,0.9c-2.4,0-4.2-0.7-5.5-2.1c-1.3-1.4-1.9-3.4-1.9-6c0-1.6,0.3-3.1,0.9-4.3
		s1.5-2.2,2.6-2.8c1.1-0.7,2.5-1,4.1-1c1.7,0,3.3,0.4,4.9,1.1l-1.3,3.3c-0.6-0.3-1.2-0.5-1.7-0.7S100.3,193.9,99.6,193.9z"/>
	<path fill="#1A1A1A" d="M125.1,201.5c0,1-0.2,1.8-0.7,2.6c-0.5,0.8-1.2,1.3-2.1,1.8c-0.9,0.4-2,0.6-3.3,0.6c-1,0-1.9-0.1-2.6-0.2
		c-0.7-0.1-1.4-0.4-2.2-0.8v-3.8c0.8,0.4,1.7,0.7,2.5,1c0.9,0.2,1.7,0.3,2.4,0.3c0.6,0,1.1-0.1,1.4-0.3c0.3-0.2,0.4-0.5,0.4-0.8
		c0-0.2-0.1-0.4-0.2-0.6c-0.1-0.2-0.3-0.3-0.6-0.5c-0.3-0.2-1-0.5-2.1-1c-1-0.5-1.8-0.9-2.3-1.4c-0.5-0.4-0.9-0.9-1.1-1.5
		s-0.4-1.2-0.4-2c0-1.4,0.5-2.6,1.6-3.4s2.5-1.2,4.3-1.2c1.6,0,3.3,0.4,5,1.1l-1.3,3.3c-1.5-0.7-2.7-1-3.8-1c-0.6,0-1,0.1-1.2,0.3
		s-0.4,0.4-0.4,0.7c0,0.3,0.2,0.6,0.5,0.8c0.3,0.2,1.2,0.7,2.6,1.3c1.4,0.6,2.3,1.3,2.8,2C124.8,199.6,125.1,200.5,125.1,201.5z"/>
	<path fill="#1A1A1A" d="M135.5,206.3h-4.2v-12.2h-3.8v-3.5h11.9v3.5h-3.8V206.3z"/>
	<path fill="#1A1A1A" d="M152.4,206.3l-0.8-2.9h-5.1l-0.8,2.9H141l5.1-15.8h5.7l5.2,15.8H152.4z M150.7,199.9l-0.7-2.6
		c-0.2-0.6-0.3-1.3-0.6-2.2s-0.4-1.6-0.4-2c-0.1,0.4-0.2,1-0.4,1.8c-0.2,0.8-0.6,2.5-1.3,5H150.7z"/>
	<path fill="#1A1A1A" d="M166.7,206.3h-4.2v-12.2h-3.8v-3.5h11.9v3.5h-3.8V206.3z"/>
	<path fill="#1A1A1A" d="M183.2,206.3h-9.3v-15.7h9.3v3.4h-5.1v2.5h4.7v3.4h-4.7v3h5.1V206.3z"/>
</g>
<g>
	<path fill="#1A1A1A" d="M28.3,101.7h-7.4l-7.6-14.7h-0.1c0.2,2.3,0.3,4.1,0.3,5.3v9.4h-5V80.9h7.3l7.6,14.5h0.1
		c-0.1-2.1-0.2-3.8-0.2-5.1v-9.4h5V101.7z"/>
	<path fill="#1A1A1A" d="M46.6,101.7H34.3V80.9h12.3v4.5h-6.7v3.3h6.2v4.5h-6.2v3.9h6.7V101.7z"/>
	<path fill="#1A1A1A" d="M60.1,89.6h9v11.2c-2.4,0.8-5.1,1.3-8,1.3c-3.2,0-5.7-0.9-7.4-2.8s-2.6-4.5-2.6-8c0-3.4,1-6,2.9-7.8
		c1.9-1.9,4.6-2.8,8.1-2.8c1.3,0,2.5,0.1,3.7,0.4s2.2,0.6,3,0.9l-1.8,4.4c-1.5-0.7-3.1-1.1-4.9-1.1c-1.6,0-2.9,0.5-3.8,1.6
		c-0.9,1.1-1.3,2.6-1.3,4.6c0,1.9,0.4,3.4,1.2,4.4c0.8,1,2,1.5,3.5,1.5c0.8,0,1.6-0.1,2.3-0.2v-3.3h-3.7V89.6z"/>
	<path fill="#1A1A1A" d="M87.5,101.7l-1-3.9h-6.8l-1.1,3.9h-6.2l6.8-20.9h7.5l6.9,20.9H87.5z M85.3,93.2l-0.9-3.4
		c-0.2-0.8-0.5-1.7-0.8-2.9c-0.3-1.2-0.5-2.1-0.6-2.6c-0.1,0.5-0.3,1.3-0.5,2.4c-0.3,1.1-0.8,3.3-1.7,6.6H85.3z"/>
	<path fill="#1A1A1A" d="M106.5,101.7h-5.6V85.5h-5.1v-4.6h15.8v4.6h-5.1V101.7z"/>
	<path fill="#1A1A1A" d="M116,101.7V80.9h5.6v20.8H116z"/>
	<path fill="#1A1A1A" d="M139.3,80.9h6.3l-6.8,20.8h-6.6l-6.8-20.8h6.3l2.8,10.5c0.6,2.3,0.9,4,1,4.9c0.1-0.7,0.2-1.5,0.4-2.5
		s0.4-1.8,0.5-2.3L139.3,80.9z"/>
	<path fill="#1A1A1A" d="M161.6,101.7h-12.3V80.9h12.3v4.5h-6.7v3.3h6.2v4.5h-6.2v3.9h6.7V101.7z"/>
</g>
<g>
	<path fill="#1A1A1A" d="M183.9,94.5v-1.2h6.8v1.2H183.9z"/>
	<path fill="#1A1A1A" d="M208.4,91.3c0,3.7-0.6,6.4-1.7,8.1c-1.1,1.8-2.8,2.6-5.1,2.6c-2.2,0-3.8-0.9-5-2.7c-1.1-1.8-1.7-4.5-1.7-8
		c0-3.6,0.5-6.3,1.6-8.1c1.1-1.7,2.8-2.6,5-2.6c2.2,0,3.9,0.9,5,2.7C207.8,85.1,208.4,87.8,208.4,91.3z M196.6,91.3
		c0,3.2,0.4,5.6,1.3,7.1c0.8,1.5,2.1,2.3,3.8,2.3c1.8,0,3.1-0.8,3.9-2.4c0.8-1.6,1.2-4,1.2-7.1c0-3.1-0.4-5.4-1.2-7
		c-0.8-1.6-2.1-2.4-3.9-2.4s-3.1,0.8-3.9,2.4C197,85.9,196.6,88.2,196.6,91.3z"/>
	<path fill="#1A1A1A" d="M213.8,100.6c0-0.9,0.4-1.4,1.1-1.4c0.8,0,1.2,0.5,1.2,1.4s-0.4,1.4-1.2,1.4
		C214.2,102,213.8,101.6,213.8,100.6z"/>
	<path fill="#1A1A1A" d="M233.8,85.8c0,1.3-0.4,2.4-1.2,3.3c-0.8,0.9-1.9,1.4-3.3,1.7v0.1c1.7,0.2,2.9,0.7,3.8,1.6
		c0.9,0.9,1.3,2,1.3,3.4c0,1.9-0.7,3.5-2,4.5c-1.3,1.1-3.2,1.6-5.7,1.6c-2.1,0-4-0.4-5.5-1.2v-1.4c0.8,0.4,1.7,0.7,2.7,1
		s1.9,0.4,2.8,0.4c2.1,0,3.7-0.4,4.7-1.3c1.1-0.8,1.6-2,1.6-3.6c0-1.4-0.5-2.4-1.6-3.2c-1.1-0.7-2.7-1.1-4.7-1.1h-2.2v-1.4h2.3
		c1.7,0,3.1-0.4,4.1-1.2c1-0.8,1.5-1.9,1.5-3.3c0-1.2-0.4-2.1-1.2-2.8c-0.8-0.7-1.9-1-3.2-1c-1,0-2,0.1-2.8,0.4
		c-0.9,0.3-1.8,0.8-2.9,1.5l-0.7-1c0.8-0.7,1.8-1.2,2.9-1.6c1.1-0.4,2.3-0.6,3.5-0.6c1.9,0,3.4,0.5,4.4,1.4
		C233.3,82.9,233.8,84.2,233.8,85.8z"/>
	<path fill="#1A1A1A" d="M252.6,101.7h-13v-1.3l5.5-5.8c1.6-1.6,2.6-2.8,3.3-3.7s1.1-1.7,1.4-2.4c0.3-0.8,0.4-1.6,0.4-2.4
		c0-1.2-0.4-2.3-1.2-3c-0.8-0.8-1.9-1.2-3.2-1.2c-1.7,0-3.4,0.6-5,1.9l-0.8-1c1.7-1.5,3.7-2.2,5.8-2.2c1.8,0,3.2,0.5,4.3,1.5
		c1,1,1.6,2.3,1.6,4c0,1.4-0.3,2.7-1,4s-2,2.9-3.8,4.8l-5.3,5.5v0.1h11.1V101.7z"/>
	<path fill="#1A1A1A" d="M271.1,91.3c0,3.7-0.6,6.4-1.7,8.1c-1.1,1.8-2.8,2.6-5.1,2.6c-2.2,0-3.8-0.9-5-2.7c-1.1-1.8-1.7-4.5-1.7-8
		c0-3.6,0.5-6.3,1.6-8.1c1.1-1.7,2.8-2.6,5-2.6c2.2,0,3.9,0.9,5,2.7C270.5,85.1,271.1,87.8,271.1,91.3z M259.2,91.3
		c0,3.2,0.4,5.6,1.3,7.1c0.8,1.5,2.1,2.3,3.8,2.3c1.8,0,3.1-0.8,3.9-2.4c0.8-1.6,1.2-4,1.2-7.1c0-3.1-0.4-5.4-1.2-7
		c-0.8-1.6-2.1-2.4-3.9-2.4s-3.1,0.8-3.9,2.4C259.6,85.9,259.2,88.2,259.2,91.3z"/>
	<path fill="#1A1A1A" d="M290.4,96.4h-3.6v5.3h-1.3v-5.3h-10.7v-1l10.3-14.7h1.7v14.4h3.6V96.4z M285.5,95.2v-5.9
		c0-2.9,0.1-5.3,0.2-7.2h-0.1c-0.2,0.4-0.8,1.2-1.8,2.7l-7.3,10.5H285.5z"/>
	<path fill="#1A1A1A" d="M300.5,80.6c1.8,0,3.2,0.5,4.3,1.4c1.1,0.9,1.6,2.1,1.6,3.7c0,1.1-0.3,2-1,2.8s-1.8,1.6-3.3,2.3
		c1.8,0.7,3.1,1.6,3.8,2.5c0.7,0.9,1.1,2,1.1,3.2c0,1.7-0.6,3.1-1.8,4.1s-2.8,1.5-4.8,1.5c-2.1,0-3.7-0.5-4.8-1.4s-1.7-2.4-1.7-4.2
		c0-1.2,0.4-2.3,1.2-3.3c0.8-0.9,2-1.7,3.7-2.4c-1.5-0.7-2.6-1.5-3.2-2.3c-0.6-0.8-0.9-1.8-0.9-2.9c0-1,0.3-1.9,0.8-2.6
		s1.2-1.3,2.1-1.7C298.4,80.8,299.4,80.6,300.5,80.6z M295.4,96.6c0,1.3,0.4,2.3,1.3,3c0.9,0.7,2.1,1.1,3.7,1.1
		c1.6,0,2.8-0.4,3.8-1.1s1.4-1.8,1.4-3.1c0-1.2-0.4-2.1-1.1-2.9c-0.7-0.7-2.2-1.5-4.3-2.3c-1.7,0.7-3,1.4-3.7,2.2
		C295.8,94.4,295.4,95.4,295.4,96.6z M300.5,81.9c-1.3,0-2.4,0.3-3.2,1c-0.8,0.7-1.2,1.6-1.2,2.7c0,0.7,0.1,1.2,0.4,1.8
		c0.3,0.5,0.7,1,1.3,1.4c0.6,0.4,1.5,0.9,2.8,1.4c1.5-0.6,2.7-1.3,3.3-2c0.7-0.7,1-1.6,1-2.6c0-1.1-0.4-2-1.2-2.7
		S301.9,81.9,300.5,81.9z"/>
	<path fill="#1A1A1A" d="M325,101.7h-13v-1.3l5.5-5.8c1.6-1.6,2.6-2.8,3.3-3.7s1.1-1.7,1.4-2.4c0.3-0.8,0.4-1.6,0.4-2.4
		c0-1.2-0.4-2.3-1.2-3c-0.8-0.8-1.9-1.2-3.2-1.2c-1.7,0-3.4,0.6-5,1.9l-0.8-1c1.7-1.5,3.7-2.2,5.8-2.2c1.8,0,3.2,0.5,4.3,1.5
		c1,1,1.6,2.3,1.6,4c0,1.4-0.3,2.7-1,4s-2,2.9-3.8,4.8l-5.3,5.5v0.1H325V101.7z"/>
</g>
<g>
	<path fill="#333333" d="M21.4,251.4h-4.8l-3.1-6l-1.3,0.8v5.3H8v-15.7h4.3v6.8c0.2-0.4,0.6-1.1,1.3-2l3.3-4.8h4.6l-5,7L21.4,251.4z
		"/>
	<path fill="#333333" d="M38.9,243.5c0,2.6-0.6,4.7-1.9,6s-3.2,2.1-5.7,2.1c-2.5,0-4.4-0.7-5.7-2.1c-1.3-1.4-2-3.4-2-6
		c0-2.6,0.7-4.6,2-6c1.3-1.4,3.2-2.1,5.7-2.1c2.5,0,4.4,0.7,5.7,2.1S38.9,240.9,38.9,243.5z M28.1,243.5c0,3,1.1,4.6,3.2,4.6
		c1.1,0,1.9-0.4,2.4-1.1c0.5-0.7,0.8-1.9,0.8-3.4c0-1.6-0.3-2.7-0.8-3.5c-0.5-0.7-1.3-1.1-2.4-1.1C29.1,238.9,28.1,240.5,28.1,243.5
		z"/>
	<path fill="#333333" d="M42.8,235.7h5.5c2.1,0,3.7,0.3,4.8,1c1,0.6,1.6,1.6,1.6,3c0,0.9-0.2,1.6-0.7,2.3s-1,1-1.8,1.2v0.1
		c1,0.3,1.7,0.7,2.1,1.3s0.7,1.4,0.7,2.3c0,1.4-0.5,2.5-1.6,3.4c-1.1,0.8-2.5,1.2-4.4,1.2h-6.1V235.7z M47.1,241.7h1.3
		c0.6,0,1.1-0.1,1.4-0.4s0.5-0.6,0.5-1.1c0-0.9-0.7-1.3-2-1.3h-1.2V241.7z M47.1,244.8v3.3h1.5c1.3,0,2-0.6,2-1.7
		c0-0.5-0.2-0.9-0.5-1.2s-0.9-0.4-1.5-0.4H47.1z"/>
	<path fill="#333333" d="M68.4,251.4l-0.8-2.9h-5.1l-0.8,2.9H57l5.1-15.8h5.7l5.2,15.8H68.4z M66.7,245l-0.7-2.6
		c-0.2-0.6-0.3-1.3-0.6-2.2s-0.4-1.6-0.4-2c-0.1,0.4-0.2,1-0.4,1.8c-0.2,0.8-0.6,2.5-1.3,5H66.7z"/>
	<path fill="#333333" d="M90.8,251.4h-5.6l-5.7-11.1h-0.1c0.1,1.7,0.2,3.1,0.2,4v7.1h-3.8v-15.7h5.5l5.7,10.9h0.1
		c-0.1-1.6-0.2-2.9-0.2-3.8v-7.1h3.8V251.4z"/>
	<path fill="#333333" d="M95.3,251.4v-15.7h4.3v15.7H95.3z"/>
</g>
<g>
	<path fill="#4D4D4D" d="M18.2,290.6c0,1-0.2,1.8-0.7,2.6c-0.5,0.8-1.2,1.3-2.1,1.8c-0.9,0.4-2,0.6-3.3,0.6c-1,0-1.9-0.1-2.6-0.2
		c-0.7-0.1-1.4-0.4-2.2-0.8v-3.8c0.8,0.4,1.7,0.7,2.5,1c0.9,0.2,1.7,0.3,2.4,0.3c0.6,0,1.1-0.1,1.4-0.3c0.3-0.2,0.4-0.5,0.4-0.8
		c0-0.2-0.1-0.4-0.2-0.6c-0.1-0.2-0.3-0.3-0.6-0.5c-0.3-0.2-1-0.5-2.1-1c-1-0.5-1.8-0.9-2.3-1.4c-0.5-0.4-0.9-0.9-1.1-1.5
		s-0.4-1.2-0.4-2c0-1.4,0.5-2.6,1.6-3.4s2.5-1.2,4.3-1.2c1.6,0,3.3,0.4,5,1.1l-1.3,3.3c-1.5-0.7-2.7-1-3.8-1c-0.6,0-1,0.1-1.2,0.3
		s-0.4,0.4-0.4,0.7c0,0.3,0.2,0.6,0.5,0.8c0.3,0.2,1.2,0.7,2.6,1.3c1.4,0.6,2.3,1.3,2.8,2C18,288.7,18.2,289.5,18.2,290.6z"/>
	<path fill="#4D4D4D" d="M27.4,285.5l2.7-5.8h4.6l-5.2,9.6v6.1h-4.3v-6l-5.2-9.7h4.6L27.4,285.5z"/>
	<path fill="#4D4D4D" d="M41.7,289.7v5.7h-4.2v-15.7h5.1c4.3,0,6.4,1.5,6.4,4.6c0,1.8-0.9,3.2-2.7,4.2l4.6,6.8h-4.8l-3.3-5.7H41.7z
		 M41.7,286.5h0.8c1.5,0,2.2-0.7,2.2-2c0-1.1-0.7-1.6-2.2-1.6h-0.8V286.5z"/>
	<path fill="#4D4D4D" d="M53.5,295.4v-15.7h4.3v15.7H53.5z"/>
	<path fill="#4D4D4D" d="M71.9,295.4l-0.8-2.9H66l-0.8,2.9h-4.7l5.1-15.8h5.7l5.2,15.8H71.9z M70.2,288.9l-0.7-2.6
		c-0.2-0.6-0.3-1.3-0.6-2.2s-0.4-1.6-0.4-2c-0.1,0.4-0.2,1-0.4,1.8c-0.2,0.8-0.6,2.5-1.3,5H70.2z"/>
</g>
<g>
	<path fill="#666666" d="M12.2,333v5.7H8V323h5.1c4.3,0,6.4,1.5,6.4,4.6c0,1.8-0.9,3.2-2.7,4.2l4.6,6.8h-4.8l-3.3-5.7H12.2z
		 M12.2,329.8H13c1.5,0,2.2-0.7,2.2-2c0-1.1-0.7-1.6-2.2-1.6h-0.8V329.8z"/>
	<path fill="#666666" d="M33.3,338.7H24V323h9.3v3.4h-5.1v2.5h4.7v3.4h-4.7v3h5.1V338.7z"/>
	<path fill="#666666" d="M44.1,326.3c-1,0-1.8,0.4-2.4,1.2c-0.6,0.8-0.8,2-0.8,3.4c0,3,1.1,4.5,3.4,4.5c0.7,0,1.4-0.1,2-0.3
		s1.3-0.4,2-0.7v3.6c-1.3,0.6-2.8,0.9-4.4,0.9c-2.4,0-4.2-0.7-5.5-2.1c-1.3-1.4-1.9-3.4-1.9-6c0-1.6,0.3-3.1,0.9-4.3
		s1.5-2.2,2.6-2.8c1.1-0.7,2.5-1,4.1-1c1.7,0,3.3,0.4,4.9,1.1l-1.3,3.3c-0.6-0.3-1.2-0.5-1.7-0.7S44.8,326.3,44.1,326.3z"/>
	<path fill="#666666" d="M61.8,338.7h-9.3V323h9.3v3.4h-5.1v2.5h4.7v3.4h-4.7v3h5.1V338.7z"/>
	<path fill="#666666" d="M77.1,328c0,1.8-0.5,3.1-1.6,4.1c-1,1-2.5,1.4-4.4,1.4h-1.2v5.2h-4.2V323h5.4c2,0,3.5,0.4,4.5,1.3
		S77.1,326.4,77.1,328z M69.9,330.1h0.8c0.6,0,1.1-0.2,1.5-0.5s0.6-0.9,0.6-1.5c0-1.1-0.6-1.6-1.8-1.6h-1.1V330.1z"/>
	<path fill="#666666" d="M94.4,338.7h-4.2v-12.2h-3.8V323h11.9v3.5h-3.8V338.7z"/>
	<path fill="#666666" d="M111.2,338.7l-0.8-2.9h-5.1l-0.8,2.9h-4.7L105,323h5.7l5.2,15.8H111.2z M109.6,332.3l-0.7-2.6
		c-0.2-0.6-0.3-1.3-0.6-2.2s-0.4-1.6-0.4-2c-0.1,0.4-0.2,1-0.4,1.8c-0.2,0.8-0.6,2.5-1.3,5H109.6z"/>
	<path fill="#666666" d="M124.3,328.8l2.7-5.8h4.6l-5.2,9.6v6.1h-4.3v-6L117,323h4.6L124.3,328.8z"/>
	<path fill="#666666" d="M140,328.8l2.7-5.8h4.6l-5.2,9.6v6.1h-4.3v-6l-5.2-9.7h4.6L140,328.8z"/>
	<path fill="#666666" d="M150.1,338.7V323h4.3v15.7H150.1z"/>
	<path fill="#666666" d="M170.2,328c0,1.8-0.5,3.1-1.6,4.1c-1,1-2.5,1.4-4.4,1.4h-1.2v5.2h-4.2V323h5.4c2,0,3.5,0.4,4.5,1.3
		S170.2,326.4,170.2,328z M163.1,330.1h0.8c0.6,0,1.1-0.2,1.5-0.5s0.6-0.9,0.6-1.5c0-1.1-0.6-1.6-1.8-1.6h-1.1V330.1z"/>
	<path fill="#666666" d="M190,338.7h-9.3V323h9.3v3.4h-5.1v2.5h4.7v3.4h-4.7v3h5.1V338.7z"/>
	<path fill="#666666" d="M198.1,333v5.7h-4.2V323h5.1c4.3,0,6.4,1.5,6.4,4.6c0,1.8-0.9,3.2-2.7,4.2l4.6,6.8h-4.8l-3.3-5.7H198.1z
		 M198.1,329.8h0.8c1.5,0,2.2-0.7,2.2-2c0-1.1-0.7-1.6-2.2-1.6h-0.8V329.8z"/>
	<path fill="#666666" d="M223.2,330.5c0,2.6-0.7,4.6-2.2,6.1c-1.4,1.4-3.5,2.1-6.1,2.1h-5.1V323h5.4c2.5,0,4.5,0.6,5.8,1.9
		C222.5,326.2,223.2,328.1,223.2,330.5z M218.7,330.7c0-1.4-0.3-2.5-0.9-3.2s-1.4-1-2.6-1h-1.2v8.8h0.9c1.3,0,2.2-0.4,2.8-1.1
		C218.4,333.4,218.7,332.2,218.7,330.7z"/>
	<path fill="#666666" d="M241.8,330.9c0,2.6-0.6,4.7-1.9,6s-3.2,2.1-5.7,2.1c-2.5,0-4.4-0.7-5.7-2.1c-1.3-1.4-2-3.4-2-6
		c0-2.6,0.7-4.6,2-6c1.3-1.4,3.2-2.1,5.7-2.1c2.5,0,4.4,0.7,5.7,2.1S241.8,328.2,241.8,330.9z M231,330.9c0,3,1.1,4.6,3.2,4.6
		c1.1,0,1.9-0.4,2.4-1.1c0.5-0.7,0.8-1.9,0.8-3.4c0-1.6-0.3-2.7-0.8-3.5c-0.5-0.7-1.3-1.1-2.4-1.1C232,326.3,231,327.8,231,330.9z"
		/>
	<path fill="#666666" d="M252,329.5h6.8v8.5c-1.8,0.6-3.9,0.9-6.1,0.9c-2.4,0-4.3-0.7-5.6-2.1s-2-3.4-2-6c0-2.5,0.7-4.5,2.2-5.9
		s3.5-2.1,6.1-2.1c1,0,1.9,0.1,2.8,0.3c0.9,0.2,1.6,0.4,2.3,0.7l-1.3,3.3c-1.1-0.6-2.4-0.8-3.7-0.8c-1.2,0-2.2,0.4-2.9,1.2
		c-0.7,0.8-1,2-1,3.5c0,1.5,0.3,2.6,0.9,3.4c0.6,0.8,1.5,1.2,2.6,1.2c0.6,0,1.2-0.1,1.7-0.2v-2.5H252V329.5z"/>
	<path fill="#666666" d="M272.7,338.7l-0.8-2.9h-5.1l-0.8,2.9h-4.7l5.1-15.8h5.7l5.2,15.8H272.7z M271.1,332.3l-0.7-2.6
		c-0.2-0.6-0.3-1.3-0.6-2.2s-0.4-1.6-0.4-2c-0.1,0.4-0.2,1-0.4,1.8c-0.2,0.8-0.6,2.5-1.3,5H271.1z"/>
	<path fill="#666666" d="M295.1,338.7h-5.6l-5.7-11.1h-0.1c0.1,1.7,0.2,3.1,0.2,4v7.1h-3.8V323h5.5l5.7,10.9h0.1
		c-0.1-1.6-0.2-2.9-0.2-3.8V323h3.8V338.7z"/>
</g>
<g>
	<path fill="#808080" d="M21.3,365.6v9.5c0,2.1-0.6,3.6-1.7,4.8c-1.2,1.1-2.8,1.7-5,1.7c-2.1,0-3.8-0.5-4.9-1.6s-1.7-2.7-1.7-4.7
		v-9.5h4.3v9.2c0,1.1,0.2,1.9,0.6,2.4s1,0.8,1.8,0.8c0.9,0,1.5-0.2,1.9-0.7c0.4-0.5,0.6-1.3,0.6-2.4v-9.2H21.3z"/>
	<path fill="#808080" d="M40.7,381.3h-5.6l-5.7-11.1h-0.1c0.1,1.7,0.2,3.1,0.2,4v7.1h-3.8v-15.7h5.5l5.7,10.9H37
		c-0.1-1.6-0.2-2.9-0.2-3.8v-7.1h3.8V381.3z"/>
	<path fill="#808080" d="M45.2,381.3v-15.7h4.3v15.7H45.2z"/>
	<path fill="#808080" d="M60.9,381.3h-4.2v-12.2h-3.8v-3.5h11.9v3.5h-3.8V381.3z"/>
	<path fill="#808080" d="M77.3,381.3H68v-15.7h9.3v3.4h-5.1v2.5H77v3.4h-4.7v3h5.1V381.3z"/>
	<path fill="#808080" d="M94.5,373.2c0,2.6-0.7,4.6-2.2,6.1c-1.4,1.4-3.5,2.1-6.1,2.1h-5.1v-15.7h5.4c2.5,0,4.5,0.6,5.8,1.9
		C93.8,368.9,94.5,370.7,94.5,373.2z M90.1,373.3c0-1.4-0.3-2.5-0.9-3.2s-1.4-1-2.6-1h-1.2v8.8h0.9c1.3,0,2.2-0.4,2.8-1.1
		C89.8,376,90.1,374.9,90.1,373.3z"/>
	<path fill="#808080" d="M115.5,376.6c0,1-0.2,1.8-0.7,2.6c-0.5,0.8-1.2,1.3-2.1,1.8c-0.9,0.4-2,0.6-3.3,0.6c-1,0-1.9-0.1-2.6-0.2
		c-0.7-0.1-1.4-0.4-2.2-0.8v-3.8c0.8,0.4,1.7,0.7,2.5,1c0.9,0.2,1.7,0.3,2.4,0.3c0.6,0,1.1-0.1,1.4-0.3c0.3-0.2,0.4-0.5,0.4-0.8
		c0-0.2-0.1-0.4-0.2-0.6c-0.1-0.2-0.3-0.3-0.6-0.5c-0.3-0.2-1-0.5-2.1-1c-1-0.5-1.8-0.9-2.3-1.4c-0.5-0.4-0.9-0.9-1.1-1.5
		s-0.4-1.2-0.4-2c0-1.4,0.5-2.6,1.6-3.4s2.5-1.2,4.3-1.2c1.6,0,3.3,0.4,5,1.1l-1.3,3.3c-1.5-0.7-2.7-1-3.8-1c-0.6,0-1,0.1-1.2,0.3
		s-0.4,0.4-0.4,0.7c0,0.3,0.2,0.6,0.5,0.8c0.3,0.2,1.2,0.7,2.6,1.3c1.4,0.6,2.3,1.3,2.8,2C115.3,374.6,115.5,375.5,115.5,376.6z"/>
	<path fill="#808080" d="M126,381.3h-4.2v-12.2h-3.8v-3.5h11.9v3.5H126V381.3z"/>
	<path fill="#808080" d="M142.8,381.3l-0.8-2.9h-5.1l-0.8,2.9h-4.7l5.1-15.8h5.7l5.2,15.8H142.8z M141.1,374.9l-0.7-2.6
		c-0.2-0.6-0.3-1.3-0.6-2.2s-0.4-1.6-0.4-2c-0.1,0.4-0.2,1-0.4,1.8c-0.2,0.8-0.6,2.5-1.3,5H141.1z"/>
	<path fill="#808080" d="M157.2,381.3h-4.2v-12.2h-3.8v-3.5H161v3.5h-3.8V381.3z"/>
	<path fill="#808080" d="M173.6,381.3h-9.3v-15.7h9.3v3.4h-5.1v2.5h4.7v3.4h-4.7v3h5.1V381.3z"/>
	<path fill="#808080" d="M187.8,376.6c0,1-0.2,1.8-0.7,2.6c-0.5,0.8-1.2,1.3-2.1,1.8c-0.9,0.4-2,0.6-3.3,0.6c-1,0-1.9-0.1-2.6-0.2
		c-0.7-0.1-1.4-0.4-2.2-0.8v-3.8c0.8,0.4,1.7,0.7,2.5,1c0.9,0.2,1.7,0.3,2.4,0.3c0.6,0,1.1-0.1,1.4-0.3c0.3-0.2,0.4-0.5,0.4-0.8
		c0-0.2-0.1-0.4-0.2-0.6c-0.1-0.2-0.3-0.3-0.6-0.5c-0.3-0.2-1-0.5-2.1-1c-1-0.5-1.8-0.9-2.3-1.4c-0.5-0.4-0.9-0.9-1.1-1.5
		s-0.4-1.2-0.4-2c0-1.4,0.5-2.6,1.6-3.4s2.5-1.2,4.3-1.2c1.6,0,3.3,0.4,5,1.1l-1.3,3.3c-1.5-0.7-2.7-1-3.8-1c-0.6,0-1,0.1-1.2,0.3
		s-0.4,0.4-0.4,0.7c0,0.3,0.2,0.6,0.5,0.8c0.3,0.2,1.2,0.7,2.6,1.3c1.4,0.6,2.3,1.3,2.8,2C187.5,374.6,187.8,375.5,187.8,376.6z"/>
</g>
<g>
	<path fill="#999999" d="M22.9,423.9h-5.6l-5.7-11.1h-0.1c0.1,1.7,0.2,3.1,0.2,4v7.1H8v-15.7h5.5l5.7,10.9h0.1
		c-0.1-1.6-0.2-2.9-0.2-3.8v-7.1h3.8V423.9z"/>
	<path fill="#999999" d="M37,423.9l-0.8-2.9h-5.1l-0.8,2.9h-4.7l5.1-15.8h5.7l5.2,15.8H37z M35.4,417.5l-0.7-2.6
		c-0.2-0.6-0.3-1.3-0.6-2.2s-0.4-1.6-0.4-2c-0.1,0.4-0.2,1-0.4,1.8c-0.2,0.8-0.6,2.5-1.3,5H35.4z"/>
	<path fill="#999999" d="M51.4,423.9h-4.2v-12.2h-3.8v-3.5h11.9v3.5h-3.8V423.9z"/>
	<path fill="#999999" d="M73.3,416c0,2.6-0.6,4.7-1.9,6s-3.2,2.1-5.7,2.1c-2.5,0-4.4-0.7-5.7-2.1c-1.3-1.4-2-3.4-2-6
		c0-2.6,0.7-4.6,2-6c1.3-1.4,3.2-2.1,5.7-2.1c2.5,0,4.4,0.7,5.7,2.1S73.3,413.4,73.3,416z M62.5,416c0,3,1.1,4.6,3.2,4.6
		c1.1,0,1.9-0.4,2.4-1.1c0.5-0.7,0.8-1.9,0.8-3.4c0-1.6-0.3-2.7-0.8-3.5c-0.5-0.7-1.3-1.1-2.4-1.1C63.5,411.4,62.5,413,62.5,416z"/>
</g>
<g>
	<path fill="#B3B3B3" d="M8,467.3v-15.7h4.3v15.7H8z"/>
	<path fill="#B3B3B3" d="M27,462.5c0,1-0.2,1.8-0.7,2.6c-0.5,0.8-1.2,1.3-2.1,1.8c-0.9,0.4-2,0.6-3.3,0.6c-1,0-1.9-0.1-2.6-0.2
		c-0.7-0.1-1.4-0.4-2.2-0.8v-3.8c0.8,0.4,1.7,0.7,2.5,1c0.9,0.2,1.7,0.3,2.4,0.3c0.6,0,1.1-0.1,1.4-0.3c0.3-0.2,0.4-0.5,0.4-0.8
		c0-0.2-0.1-0.4-0.2-0.6c-0.1-0.2-0.3-0.3-0.6-0.5c-0.3-0.2-1-0.5-2.1-1c-1-0.5-1.8-0.9-2.3-1.4c-0.5-0.4-0.9-0.9-1.1-1.5
		s-0.4-1.2-0.4-2c0-1.4,0.5-2.6,1.6-3.4s2.5-1.2,4.3-1.2c1.6,0,3.3,0.4,5,1.1l-1.3,3.3c-1.5-0.7-2.7-1-3.8-1c-0.6,0-1,0.1-1.2,0.3
		s-0.4,0.4-0.4,0.7c0,0.3,0.2,0.6,0.5,0.8c0.3,0.2,1.2,0.7,2.6,1.3c1.4,0.6,2.3,1.3,2.8,2C26.7,460.5,27,461.4,27,462.5z"/>
	<path fill="#B3B3B3" d="M30.5,467.3v-15.7h4.3v15.7H30.5z"/>
	<path fill="#B3B3B3" d="M49.5,462.5c0,1-0.2,1.8-0.7,2.6c-0.5,0.8-1.2,1.3-2.1,1.8c-0.9,0.4-2,0.6-3.3,0.6c-1,0-1.9-0.1-2.6-0.2
		c-0.7-0.1-1.4-0.4-2.2-0.8v-3.8c0.8,0.4,1.7,0.7,2.5,1c0.9,0.2,1.7,0.3,2.4,0.3c0.6,0,1.1-0.1,1.4-0.3c0.3-0.2,0.4-0.5,0.4-0.8
		c0-0.2-0.1-0.4-0.2-0.6c-0.1-0.2-0.3-0.3-0.6-0.5c-0.3-0.2-1-0.5-2.1-1c-1-0.5-1.8-0.9-2.3-1.4c-0.5-0.4-0.9-0.9-1.1-1.5
		s-0.4-1.2-0.4-2c0-1.4,0.5-2.6,1.6-3.4s2.5-1.2,4.3-1.2c1.6,0,3.3,0.4,5,1.1l-1.3,3.3c-1.5-0.7-2.7-1-3.8-1c-0.6,0-1,0.1-1.2,0.3
		s-0.4,0.4-0.4,0.7c0,0.3,0.2,0.6,0.5,0.8c0.3,0.2,1.2,0.7,2.6,1.3c1.4,0.6,2.3,1.3,2.8,2C49.3,460.5,49.5,461.4,49.5,462.5z"/>
</g>
<g>
	<g>
		<g>
			<rect x="6" y="145.7" fill="#CCCCCC" width="1" height="10"/>
		</g>
	</g>
	<g>
		<g>
			<path fill="#CCCCCC" d="M505,155.7h-1v-10h1V155.7z M502,155.7h-1v-10h1V155.7z M499,155.7h-1v-10h1V155.7z M496,155.7h-1v-10h1
				V155.7z M493,155.7h-1v-10h1V155.7z M490,155.7h-1v-10h1V155.7z M487,155.7h-1v-10h1V155.7z M484,155.7h-1v-10h1V155.7z
				 M481,155.7h-1v-10h1V155.7z M478,155.7h-1v-10h1V155.7z M475,155.7h-1v-10h1V155.7z M472,155.7h-1v-10h1V155.7z M469,155.7h-1
				v-10h1V155.7z M466,155.7h-1v-10h1V155.7z M463,155.7h-1v-10h1V155.7z M460,155.7h-1v-10h1V155.7z M457,155.7h-1v-10h1V155.7z
				 M454,155.7h-1v-10h1V155.7z M451,155.7h-1v-10h1V155.7z M448,155.7h-1v-10h1V155.7z M445,155.7h-1v-10h1V155.7z M442,155.7h-1
				v-10h1V155.7z M439,155.7h-1v-10h1V155.7z M436,155.7h-1v-10h1V155.7z M433,155.7h-1v-10h1V155.7z M430,155.7h-1v-10h1V155.7z
				 M427,155.7h-1v-10h1V155.7z M424,155.7h-1v-10h1V155.7z M421,155.7h-1v-10h1V155.7z M418,155.7h-1v-10h1V155.7z M415,155.7h-1
				v-10h1V155.7z M412,155.7h-1v-10h1V155.7z M409,155.7h-1v-10h1V155.7z M406,155.7h-1v-10h1V155.7z M403,155.7h-1v-10h1V155.7z
				 M400,155.7h-1v-10h1V155.7z M397,155.7h-1v-10h1V155.7z M394,155.7h-1v-10h1V155.7z M391,155.7h-1v-10h1V155.7z M388,155.7h-1
				v-10h1V155.7z M385,155.7h-1v-10h1V155.7z M382,155.7h-1v-10h1V155.7z M379,155.7h-1v-10h1V155.7z M376,155.7h-1v-10h1V155.7z
				 M373,155.7h-1v-10h1V155.7z M370,155.7h-1v-10h1V155.7z M367,155.7h-1v-10h1V155.7z M364,155.7h-1v-10h1V155.7z M361,155.7h-1
				v-10h1V155.7z M358,155.7h-1v-10h1V155.7z M355,155.7h-1v-10h1V155.7z M352,155.7h-1v-10h1V155.7z M349,155.7h-1v-10h1V155.7z
				 M346,155.7h-1v-10h1V155.7z M343,155.7h-1v-10h1V155.7z M340,155.7h-1v-10h1V155.7z M337,155.7h-1v-10h1V155.7z M334,155.7h-1
				v-10h1V155.7z M331,155.7h-1v-10h1V155.7z M328,155.7h-1v-10h1V155.7z M325,155.7h-1v-10h1V155.7z M322,155.7h-1v-10h1V155.7z
				 M319,155.7h-1v-10h1V155.7z M316,155.7h-1v-10h1V155.7z M313,155.7h-1v-10h1V155.7z M310,155.7h-1v-10h1V155.7z M307,155.7h-1
				v-10h1V155.7z M304,155.7h-1v-10h1V155.7z M301,155.7h-1v-10h1V155.7z M298,155.7h-1v-10h1V155.7z M295,155.7h-1v-10h1V155.7z
				 M292,155.7h-1v-10h1V155.7z M289,155.7h-1v-10h1V155.7z M286,155.7h-1v-10h1V155.7z M283,155.7h-1v-10h1V155.7z M280,155.7h-1
				v-10h1V155.7z M277,155.7h-1v-10h1V155.7z M274,155.7h-1v-10h1V155.7z M271,155.7h-1v-10h1V155.7z M268,155.7h-1v-10h1V155.7z
				 M265,155.7h-1v-10h1V155.7z M262,155.7h-1v-10h1V155.7z M259,155.7h-1v-10h1V155.7z M256,155.7h-1v-10h1V155.7z M253,155.7h-1
				v-10h1V155.7z M250,155.7h-1v-10h1V155.7z M247,155.7h-1v-10h1V155.7z M244,155.7h-1v-10h1V155.7z M241,155.7h-1v-10h1V155.7z
				 M238,155.7h-1v-10h1V155.7z M235,155.7h-1v-10h1V155.7z M232,155.7h-1v-10h1V155.7z M229,155.7h-1v-10h1V155.7z M226,155.7h-1
				v-10h1V155.7z M223,155.7h-1v-10h1V155.7z M220,155.7h-1v-10h1V155.7z M217,155.7h-1v-10h1V155.7z M214,155.7h-1v-10h1V155.7z
				 M211,155.7h-1v-10h1V155.7z M208,155.7h-1v-10h1V155.7z M205,155.7h-1v-10h1V155.7z M202,155.7h-1v-10h1V155.7z M199,155.7h-1
				v-10h1V155.7z M196,155.7h-1v-10h1V155.7z M193,155.7h-1v-10h1V155.7z M190,155.7h-1v-10h1V155.7z M187,155.7h-1v-10h1V155.7z
				 M184,155.7h-1v-10h1V155.7z M181,155.7h-1v-10h1V155.7z M178,155.7h-1v-10h1V155.7z M175,155.7h-1v-10h1V155.7z M172,155.7h-1
				v-10h1V155.7z M169,155.7h-1v-10h1V155.7z M166,155.7h-1v-10h1V155.7z M163,155.7h-1v-10h1V155.7z M160,155.7h-1v-10h1V155.7z
				 M157,155.7h-1v-10h1V155.7z M154,155.7h-1v-10h1V155.7z M151,155.7h-1v-10h1V155.7z M148,155.7h-1v-10h1V155.7z M145,155.7h-1
				v-10h1V155.7z M142,155.7h-1v-10h1V155.7z M139,155.7h-1v-10h1V155.7z M136,155.7h-1v-10h1V155.7z M133,155.7h-1v-10h1V155.7z
				 M130,155.7h-1v-10h1V155.7z M127,155.7h-1v-10h1V155.7z M124,155.7h-1v-10h1V155.7z M121,155.7h-1v-10h1V155.7z M118,155.7h-1
				v-10h1V155.7z M115,155.7h-1v-10h1V155.7z M112,155.7h-1v-10h1V155.7z M109,155.7h-1v-10h1V155.7z M106,155.7h-1v-10h1V155.7z
				 M103,155.7h-1v-10h1V155.7z M100,155.7h-1v-10h1V155.7z M97,155.7h-1v-10h1V155.7z M94,155.7h-1v-10h1V155.7z M91,155.7h-1v-10
				h1V155.7z M88,155.7h-1v-10h1V155.7z M85,155.7h-1v-10h1V155.7z M82,155.7h-1v-10h1V155.7z M79,155.7h-1v-10h1V155.7z M76,155.7
				h-1v-10h1V155.7z M73,155.7h-1v-10h1V155.7z M70,155.7h-1v-10h1V155.7z M67,155.7h-1v-10h1V155.7z M64,155.7h-1v-10h1V155.7z
				 M61,155.7h-1v-10h1V155.7z M58,155.7h-1v-10h1V155.7z M55,155.7h-1v-10h1V155.7z M52,155.7h-1v-10h1V155.7z M49,155.7h-1v-10h1
				V155.7z M46,155.7h-1v-10h1V155.7z M43,155.7h-1v-10h1V155.7z M40,155.7h-1v-10h1V155.7z M37,155.7h-1v-10h1V155.7z M34,155.7h-1
				v-10h1V155.7z M31,155.7h-1v-10h1V155.7z M28,155.7h-1v-10h1V155.7z M25,155.7h-1v-10h1V155.7z M22,155.7h-1v-10h1V155.7z
				 M19,155.7h-1v-10h1V155.7z M16,155.7h-1v-10h1V155.7z M13,155.7h-1v-10h1V155.7z M10,155.7H9v-10h1V155.7z"/>
		</g>
	</g>
	<g>
		<g>
			<rect x="507" y="145.7" fill="#CCCCCC" width="1" height="10"/>
		</g>
	</g>
</g>
<g>
	<g>
		<g>
			<rect x="6" y="27.7" fill="#CCCCCC" width="1" height="10"/>
		</g>
	</g>
	<g>
		<g>
			<path fill="#CCCCCC" d="M505,37.7h-1v-10h1V37.7z M502,37.7h-1v-10h1V37.7z M499,37.7h-1v-10h1V37.7z M496,37.7h-1v-10h1V37.7z
				 M493,37.7h-1v-10h1V37.7z M490,37.7h-1v-10h1V37.7z M487,37.7h-1v-10h1V37.7z M484,37.7h-1v-10h1V37.7z M481,37.7h-1v-10h1V37.7
				z M478,37.7h-1v-10h1V37.7z M475,37.7h-1v-10h1V37.7z M472,37.7h-1v-10h1V37.7z M469,37.7h-1v-10h1V37.7z M466,37.7h-1v-10h1
				V37.7z M463,37.7h-1v-10h1V37.7z M460,37.7h-1v-10h1V37.7z M457,37.7h-1v-10h1V37.7z M454,37.7h-1v-10h1V37.7z M451,37.7h-1v-10
				h1V37.7z M448,37.7h-1v-10h1V37.7z M445,37.7h-1v-10h1V37.7z M442,37.7h-1v-10h1V37.7z M439,37.7h-1v-10h1V37.7z M436,37.7h-1
				v-10h1V37.7z M433,37.7h-1v-10h1V37.7z M430,37.7h-1v-10h1V37.7z M427,37.7h-1v-10h1V37.7z M424,37.7h-1v-10h1V37.7z M421,37.7
				h-1v-10h1V37.7z M418,37.7h-1v-10h1V37.7z M415,37.7h-1v-10h1V37.7z M412,37.7h-1v-10h1V37.7z M409,37.7h-1v-10h1V37.7z
				 M406,37.7h-1v-10h1V37.7z M403,37.7h-1v-10h1V37.7z M400,37.7h-1v-10h1V37.7z M397,37.7h-1v-10h1V37.7z M394,37.7h-1v-10h1V37.7
				z M391,37.7h-1v-10h1V37.7z M388,37.7h-1v-10h1V37.7z M385,37.7h-1v-10h1V37.7z M382,37.7h-1v-10h1V37.7z M379,37.7h-1v-10h1
				V37.7z M376,37.7h-1v-10h1V37.7z M373,37.7h-1v-10h1V37.7z M370,37.7h-1v-10h1V37.7z M367,37.7h-1v-10h1V37.7z M364,37.7h-1v-10
				h1V37.7z M361,37.7h-1v-10h1V37.7z M358,37.7h-1v-10h1V37.7z M355,37.7h-1v-10h1V37.7z M352,37.7h-1v-10h1V37.7z M349,37.7h-1
				v-10h1V37.7z M346,37.7h-1v-10h1V37.7z M343,37.7h-1v-10h1V37.7z M340,37.7h-1v-10h1V37.7z M337,37.7h-1v-10h1V37.7z M334,37.7
				h-1v-10h1V37.7z M331,37.7h-1v-10h1V37.7z M328,37.7h-1v-10h1V37.7z M325,37.7h-1v-10h1V37.7z M322,37.7h-1v-10h1V37.7z
				 M319,37.7h-1v-10h1V37.7z M316,37.7h-1v-10h1V37.7z M313,37.7h-1v-10h1V37.7z M310,37.7h-1v-10h1V37.7z M307,37.7h-1v-10h1V37.7
				z M304,37.7h-1v-10h1V37.7z M301,37.7h-1v-10h1V37.7z M298,37.7h-1v-10h1V37.7z M295,37.7h-1v-10h1V37.7z M292,37.7h-1v-10h1
				V37.7z M289,37.7h-1v-10h1V37.7z M286,37.7h-1v-10h1V37.7z M283,37.7h-1v-10h1V37.7z M280,37.7h-1v-10h1V37.7z M277,37.7h-1v-10
				h1V37.7z M274,37.7h-1v-10h1V37.7z M271,37.7h-1v-10h1V37.7z M268,37.7h-1v-10h1V37.7z M265,37.7h-1v-10h1V37.7z M262,37.7h-1
				v-10h1V37.7z M259,37.7h-1v-10h1V37.7z M256,37.7h-1v-10h1V37.7z M253,37.7h-1v-10h1V37.7z M250,37.7h-1v-10h1V37.7z M247,37.7
				h-1v-10h1V37.7z M244,37.7h-1v-10h1V37.7z M241,37.7h-1v-10h1V37.7z M238,37.7h-1v-10h1V37.7z M235,37.7h-1v-10h1V37.7z
				 M232,37.7h-1v-10h1V37.7z M229,37.7h-1v-10h1V37.7z M226,37.7h-1v-10h1V37.7z M223,37.7h-1v-10h1V37.7z M220,37.7h-1v-10h1V37.7
				z M217,37.7h-1v-10h1V37.7z M214,37.7h-1v-10h1V37.7z M211,37.7h-1v-10h1V37.7z M208,37.7h-1v-10h1V37.7z M205,37.7h-1v-10h1
				V37.7z M202,37.7h-1v-10h1V37.7z M199,37.7h-1v-10h1V37.7z M196,37.7h-1v-10h1V37.7z M193,37.7h-1v-10h1V37.7z M190,37.7h-1v-10
				h1V37.7z M187,37.7h-1v-10h1V37.7z M184,37.7h-1v-10h1V37.7z M181,37.7h-1v-10h1V37.7z M178,37.7h-1v-10h1V37.7z M175,37.7h-1
				v-10h1V37.7z M172,37.7h-1v-10h1V37.7z M169,37.7h-1v-10h1V37.7z M166,37.7h-1v-10h1V37.7z M163,37.7h-1v-10h1V37.7z M160,37.7
				h-1v-10h1V37.7z M157,37.7h-1v-10h1V37.7z M154,37.7h-1v-10h1V37.7z M151,37.7h-1v-10h1V37.7z M148,37.7h-1v-10h1V37.7z
				 M145,37.7h-1v-10h1V37.7z M142,37.7h-1v-10h1V37.7z M139,37.7h-1v-10h1V37.7z M136,37.7h-1v-10h1V37.7z M133,37.7h-1v-10h1V37.7
				z M130,37.7h-1v-10h1V37.7z M127,37.7h-1v-10h1V37.7z M124,37.7h-1v-10h1V37.7z M121,37.7h-1v-10h1V37.7z M118,37.7h-1v-10h1
				V37.7z M115,37.7h-1v-10h1V37.7z M112,37.7h-1v-10h1V37.7z M109,37.7h-1v-10h1V37.7z M106,37.7h-1v-10h1V37.7z M103,37.7h-1v-10
				h1V37.7z M100,37.7h-1v-10h1V37.7z M97,37.7h-1v-10h1V37.7z M94,37.7h-1v-10h1V37.7z M91,37.7h-1v-10h1V37.7z M88,37.7h-1v-10h1
				V37.7z M85,37.7h-1v-10h1V37.7z M82,37.7h-1v-10h1V37.7z M79,37.7h-1v-10h1V37.7z M76,37.7h-1v-10h1V37.7z M73,37.7h-1v-10h1
				V37.7z M70,37.7h-1v-10h1V37.7z M67,37.7h-1v-10h1V37.7z M64,37.7h-1v-10h1V37.7z M61,37.7h-1v-10h1V37.7z M58,37.7h-1v-10h1
				V37.7z M55,37.7h-1v-10h1V37.7z M52,37.7h-1v-10h1V37.7z M49,37.7h-1v-10h1V37.7z M46,37.7h-1v-10h1V37.7z M43,37.7h-1v-10h1
				V37.7z M40,37.7h-1v-10h1V37.7z M37,37.7h-1v-10h1V37.7z M34,37.7h-1v-10h1V37.7z M31,37.7h-1v-10h1V37.7z M28,37.7h-1v-10h1
				V37.7z M25,37.7h-1v-10h1V37.7z M22,37.7h-1v-10h1V37.7z M19,37.7h-1v-10h1V37.7z M16,37.7h-1v-10h1V37.7z M13,37.7h-1v-10h1
				V37.7z M10,37.7H9v-10h1V37.7z"/>
		</g>
	</g>
	<g>
		<g>
			<rect x="507" y="27.7" fill="#CCCCCC" width="1" height="10"/>
		</g>
	</g>
</g>
<g>
	<g>
		<g>
			<rect x="2.8" y="141.9" fill="#FFFFFF" width="113.9" height="19.5"/>
		</g>
	</g>
	<g>
		<g>
			<path fill="#666666" d="M11.2,155.6h-1.1v-8.3H7.2v-1h7v1h-2.9V155.6z"/>
		</g>
		<g>
			<path fill="#666666" d="M24.3,150.9c0,1.5-0.4,2.7-1.1,3.5c-0.8,0.8-1.8,1.3-3.1,1.3c-1.4,0-2.4-0.4-3.2-1.3
				c-0.7-0.8-1.1-2-1.1-3.5c0-1.5,0.4-2.7,1.1-3.5c0.7-0.8,1.8-1.2,3.2-1.2c1.3,0,2.4,0.4,3.1,1.3C23.9,148.3,24.3,149.5,24.3,150.9
				z M16.9,150.9c0,1.3,0.3,2.2,0.8,2.9s1.3,1,2.3,1c1,0,1.8-0.3,2.3-1s0.8-1.6,0.8-2.9c0-1.2-0.3-2.2-0.8-2.8s-1.3-1-2.3-1
				c-1,0-1.8,0.3-2.3,1S16.9,149.7,16.9,150.9z"/>
		</g>
		<g>
			<path fill="#666666" d="M32.9,149c0,0.9-0.3,1.7-1,2.2c-0.6,0.5-1.6,0.8-2.8,0.8h-1.1v3.7H27v-9.3h2.4
				C31.7,146.3,32.9,147.2,32.9,149z M28.1,151h1c1,0,1.6-0.2,2.1-0.5c0.4-0.3,0.6-0.8,0.6-1.5c0-0.6-0.2-1.1-0.6-1.4
				c-0.4-0.3-1-0.5-1.9-0.5h-1.2V151z"/>
		</g>
		<g>
			<path fill="#666666" d="M46.2,155.6h-1.3l-3.4-4.5l-1,0.9v3.6h-1.1v-9.3h1.1v4.6l4.2-4.6H46l-3.7,4L46.2,155.6z"/>
		</g>
		<g>
			<path fill="#666666" d="M53.3,155.6h-5.2v-9.3h5.2v1h-4.1v3H53v1h-3.8v3.4h4.1V155.6z"/>
		</g>
		<g>
			<path fill="#666666" d="M58.3,151l2.5-4.6H62l-3.1,5.7v3.6h-1.1V152l-3.1-5.7h1.2L58.3,151z"/>
		</g>
		<g>
			<path fill="#666666" d="M72,155.6H71l-1.9-6.2c-0.1-0.3-0.2-0.6-0.3-1c-0.1-0.4-0.2-0.7-0.2-0.8c-0.1,0.6-0.2,1.2-0.4,1.8
				l-1.8,6.2h-1.1l-2.5-9.3H64l1.5,5.7c0.2,0.8,0.4,1.5,0.4,2.2c0.1-0.8,0.3-1.5,0.5-2.3l1.7-5.6h1.1l1.7,5.7
				c0.2,0.7,0.4,1.4,0.5,2.2c0.1-0.6,0.2-1.3,0.5-2.2l1.5-5.7h1.1L72,155.6z"/>
		</g>
		<g>
			<path fill="#666666" d="M84.7,150.9c0,1.5-0.4,2.7-1.1,3.5c-0.8,0.8-1.8,1.3-3.1,1.3c-1.4,0-2.4-0.4-3.2-1.3
				c-0.7-0.8-1.1-2-1.1-3.5c0-1.5,0.4-2.7,1.1-3.5c0.7-0.8,1.8-1.2,3.2-1.2c1.3,0,2.4,0.4,3.1,1.3C84.3,148.3,84.7,149.5,84.7,150.9
				z M77.3,150.9c0,1.3,0.3,2.2,0.8,2.9s1.3,1,2.3,1c1,0,1.8-0.3,2.3-1s0.8-1.6,0.8-2.9c0-1.2-0.3-2.2-0.8-2.8s-1.3-1-2.3-1
				c-1,0-1.8,0.3-2.3,1S77.3,149.7,77.3,150.9z"/>
		</g>
		<g>
			<path fill="#666666" d="M88.5,151.7v3.9h-1.1v-9.3h2.5c1.1,0,2,0.2,2.5,0.7c0.5,0.4,0.8,1.1,0.8,2c0,1.2-0.6,2.1-1.9,2.5l2.5,4.2
				h-1.3l-2.2-3.9H88.5z M88.5,150.8h1.5c0.8,0,1.3-0.2,1.7-0.5s0.5-0.8,0.5-1.4c0-0.6-0.2-1.1-0.5-1.3c-0.4-0.3-0.9-0.4-1.7-0.4
				h-1.4V150.8z"/>
		</g>
		<g>
			<path fill="#666666" d="M103.5,150.9c0,1.5-0.4,2.7-1.2,3.5c-0.8,0.8-2,1.2-3.6,1.2h-2.6v-9.3h2.8c1.4,0,2.6,0.4,3.4,1.2
				C103.1,148.3,103.5,149.4,103.5,150.9z M102.3,150.9c0-1.2-0.3-2.1-0.9-2.7s-1.5-0.9-2.7-0.9h-1.6v7.4h1.3c1.3,0,2.3-0.3,2.9-0.9
				C102,153.1,102.3,152.1,102.3,150.9z"/>
		</g>
		<g>
			<path fill="#666666" d="M111.4,153.1c0,0.8-0.3,1.5-0.9,1.9s-1.4,0.7-2.4,0.7c-1.1,0-1.9-0.1-2.5-0.4v-1c0.4,0.2,0.8,0.3,1.2,0.4
				c0.4,0.1,0.9,0.1,1.3,0.1c0.7,0,1.3-0.1,1.6-0.4c0.4-0.3,0.5-0.7,0.5-1.1c0-0.3-0.1-0.6-0.2-0.8s-0.3-0.4-0.6-0.6
				c-0.3-0.2-0.8-0.4-1.4-0.6c-0.9-0.3-1.5-0.7-1.9-1.1c-0.4-0.4-0.6-1-0.6-1.7c0-0.7,0.3-1.3,0.8-1.7c0.5-0.4,1.2-0.6,2.1-0.6
				c0.9,0,1.8,0.2,2.5,0.5l-0.3,0.9c-0.8-0.3-1.5-0.5-2.2-0.5c-0.6,0-1,0.1-1.3,0.4c-0.3,0.2-0.5,0.6-0.5,1c0,0.3,0.1,0.6,0.2,0.8
				c0.1,0.2,0.3,0.4,0.6,0.6c0.3,0.2,0.7,0.4,1.3,0.6c1,0.3,1.6,0.7,2,1.1C111.2,152,111.4,152.5,111.4,153.1z"/>
		</g>
	</g>
</g>
<g>
	<g>
		<g>
			<rect x="1.3" y="23.7" fill="#FFFFFF" width="140.9" height="19.5"/>
		</g>
	</g>
	<g>
		<g>
			<path fill="#666666" d="M12.7,37.4l-1.2-3H7.9l-1.1,3H5.6l3.7-9.3h0.9l3.7,9.3H12.7z M11.2,33.5l-1.1-2.9
				c-0.1-0.4-0.3-0.8-0.4-1.3c-0.1,0.4-0.2,0.9-0.4,1.3l-1.1,2.9H11.2z"/>
		</g>
		<g>
			<path fill="#666666" d="M16.9,33.5v3.9h-1.1v-9.3h2.5c1.1,0,2,0.2,2.5,0.7c0.5,0.4,0.8,1.1,0.8,2c0,1.2-0.6,2.1-1.9,2.5l2.5,4.2
				H21l-2.2-3.9H16.9z M16.9,32.6h1.5c0.8,0,1.3-0.2,1.7-0.5c0.4-0.3,0.5-0.8,0.5-1.4c0-0.6-0.2-1.1-0.5-1.3
				c-0.4-0.3-0.9-0.4-1.7-0.4h-1.4V32.6z"/>
		</g>
		<g>
			<path fill="#666666" d="M27.3,37.4h-1.1v-8.3h-2.9v-1h7v1h-2.9V37.4z"/>
		</g>
		<g>
			<path fill="#666666" d="M32.3,37.4v-9.3h1.1v9.3H32.3z"/>
		</g>
		<g>
			<path fill="#666666" d="M40.6,28.9c-1,0-1.8,0.3-2.4,1c-0.6,0.7-0.9,1.6-0.9,2.8c0,1.2,0.3,2.2,0.9,2.8s1.4,1,2.4,1
				c0.6,0,1.4-0.1,2.2-0.3v0.9c-0.6,0.2-1.4,0.4-2.4,0.4c-1.4,0-2.4-0.4-3.2-1.2c-0.7-0.8-1.1-2-1.1-3.5c0-1,0.2-1.8,0.5-2.5
				s0.9-1.3,1.5-1.7c0.7-0.4,1.5-0.6,2.4-0.6c1,0,1.8,0.2,2.6,0.5l-0.5,0.9C42,29.1,41.3,28.9,40.6,28.9z"/>
		</g>
		<g>
			<path fill="#666666" d="M45.4,37.4v-9.3h1.1v8.3h4.1v1H45.4z"/>
		</g>
		<g>
			<path fill="#666666" d="M58,37.4h-5.2v-9.3H58v1h-4.1v3h3.8v1h-3.8v3.4H58V37.4z"/>
		</g>
		<g>
			<path fill="#666666" d="M70,34.9c0,0.8-0.3,1.5-0.9,1.9s-1.4,0.7-2.4,0.7c-1.1,0-1.9-0.1-2.5-0.4v-1c0.4,0.2,0.8,0.3,1.2,0.4
				c0.4,0.1,0.9,0.1,1.3,0.1c0.7,0,1.3-0.1,1.6-0.4c0.4-0.3,0.5-0.7,0.5-1.1c0-0.3-0.1-0.6-0.2-0.8s-0.3-0.4-0.6-0.6
				c-0.3-0.2-0.8-0.4-1.4-0.6c-0.9-0.3-1.5-0.7-1.9-1.1c-0.4-0.4-0.6-1-0.6-1.7c0-0.7,0.3-1.3,0.8-1.7c0.5-0.4,1.2-0.6,2.1-0.6
				c0.9,0,1.8,0.2,2.5,0.5l-0.3,0.9c-0.8-0.3-1.5-0.5-2.2-0.5c-0.6,0-1,0.1-1.3,0.4c-0.3,0.2-0.5,0.6-0.5,1c0,0.3,0.1,0.6,0.2,0.8
				c0.1,0.2,0.3,0.4,0.6,0.6s0.7,0.4,1.3,0.6c1,0.3,1.6,0.7,2,1.1S70,34.3,70,34.9z"/>
		</g>
		<g>
			<path fill="#666666" d="M77.7,37.4h-5.2v-9.3h5.2v1h-4.1v3h3.8v1h-3.8v3.4h4.1V37.4z"/>
		</g>
		<g>
			<path fill="#666666" d="M87.7,37.4h-1.2l-5.1-7.8h-0.1c0.1,0.9,0.1,1.8,0.1,2.5v5.3h-1v-9.3h1.2l5.1,7.8h0.1c0-0.1,0-0.5-0.1-1.1
				c0-0.6,0-1.1,0-1.3v-5.3h1V37.4z"/>
		</g>
		<g>
			<path fill="#666666" d="M93.7,37.4h-1.1v-8.3h-2.9v-1h7v1h-2.9V37.4z"/>
		</g>
		<g>
			<path fill="#666666" d="M98.7,37.4v-9.3h1.1v9.3H98.7z"/>
		</g>
		<g>
			<path fill="#666666" d="M107.1,37.4l-3.1-8.2h-0.1c0.1,0.7,0.1,1.4,0.1,2.3v5.9h-1v-9.3h1.6l2.9,7.7h0.1l3-7.7h1.6v9.3h-1.1v-6
				c0-0.7,0-1.4,0.1-2.2h-0.1l-3.2,8.2H107.1z"/>
		</g>
		<g>
			<path fill="#666666" d="M120.5,37.4h-5.2v-9.3h5.2v1h-4.1v3h3.8v1h-3.8v3.4h4.1V37.4z"/>
		</g>
		<g>
			<path fill="#666666" d="M130.5,37.4h-1.2l-5.1-7.8h-0.1c0.1,0.9,0.1,1.8,0.1,2.5v5.3h-1v-9.3h1.2l5.1,7.8h0.1
				c0-0.1,0-0.5-0.1-1.1c0-0.6,0-1.1,0-1.3v-5.3h1V37.4z"/>
		</g>
		<g>
			<path fill="#666666" d="M136.5,37.4h-1.1v-8.3h-2.9v-1h7v1h-2.9V37.4z"/>
		</g>
	</g>
</g>
</svg>
