<?xml version="1.0" encoding="utf-8"?>
<!-- Generator: Adobe Illustrator 18.1.0, SVG Export Plug-In . SVG Version: 6.00 Build 0)  -->
<!DOCTYPE svg PUBLIC "-//W3C//DTD SVG 1.1//EN" "http://www.w3.org/Graphics/SVG/1.1/DTD/svg11.dtd">
<svg version="1.1" id="Ebene_1" xmlns="http://www.w3.org/2000/svg" xmlns:xlink="http://www.w3.org/1999/xlink" x="0px" y="0px"
	 viewBox="0 0 267.5 30" enable-background="new 0 0 267.5 30" xml:space="preserve">
<g>
	<path fill="#666666" d="M140.9,17.6h-0.5v-6.7h-2.3v-0.5h5.1v0.5h-2.3V17.6z"/>
	<path fill="#666666" d="M150.5,17.6h-0.5v-3.5h-4.2v3.5h-0.5v-7.1h0.5v3.2h4.2v-3.2h0.5V17.6z"/>
	<path fill="#666666" d="M157.4,17.6h-3.9v-7.1h3.9v0.5H154v2.7h3.2v0.5H154v3.1h3.4V17.6z"/>
	<path fill="#666666" d="M168.8,17.6h-0.5l-4.2-6.3h0c0,0.8,0.1,1.3,0.1,1.7v4.6h-0.5v-7.1h0.5l4.2,6.3h0c0-0.6,0-1.1,0-1.7v-4.7
		h0.5V17.6z"/>
	<path fill="#666666" d="M175.7,17.6h-3.9v-7.1h3.9v0.5h-3.4v2.7h3.2v0.5h-3.2v3.1h3.4V17.6z"/>
	<path fill="#666666" d="M184,17.6h-0.4l-1.6-5.5c-0.1-0.5-0.2-0.8-0.3-1.1c-0.1,0.3-0.1,0.6-0.2,1c-0.1,0.4-0.6,2.2-1.6,5.6h-0.4
		l-2-7.1h0.5l1.2,4.6c0,0.2,0.1,0.4,0.1,0.5c0,0.2,0.1,0.3,0.1,0.4c0,0.1,0.1,0.3,0.1,0.4c0,0.1,0.1,0.3,0.1,0.4
		c0.1-0.4,0.2-1.1,0.5-2l1.2-4.3h0.6l1.4,5c0.2,0.6,0.3,1,0.4,1.4c0-0.2,0.1-0.5,0.2-0.7c0.1-0.3,0.6-2.1,1.5-5.6h0.5L184,17.6z"/>
	<path fill="#666666" d="M193.5,14.3l2.1-3.9h0.5l-2.4,4.4v2.8h-0.5v-2.7l-2.4-4.4h0.6L193.5,14.3z"/>
	<path fill="#666666" d="M204.1,14c0,1.1-0.3,2-0.8,2.7c-0.6,0.7-1.3,1-2.3,1c-1,0-1.8-0.3-2.3-1c-0.6-0.7-0.8-1.6-0.8-2.7
		c0-1.1,0.3-2,0.9-2.7c0.6-0.7,1.4-1,2.3-1c1,0,1.8,0.3,2.3,1C203.8,12,204.1,12.9,204.1,14z M198.3,14c0,1,0.2,1.8,0.7,2.4
		c0.5,0.6,1.1,0.8,2,0.8c0.9,0,1.5-0.3,2-0.8c0.5-0.6,0.7-1.3,0.7-2.4c0-1-0.2-1.8-0.7-2.4c-0.5-0.5-1.1-0.8-2-0.8
		c-0.8,0-1.5,0.3-2,0.8C198.5,12.2,198.3,13,198.3,14z"/>
	<path fill="#666666" d="M207.3,14.5v3.1h-0.5v-7.1h1.7c0.9,0,1.5,0.2,2,0.5c0.4,0.3,0.6,0.8,0.6,1.5c0,0.5-0.1,0.9-0.4,1.2
		c-0.3,0.3-0.6,0.6-1.2,0.7l1.9,3.3h-0.6l-1.8-3.1H207.3z M207.3,14h1.4c0.6,0,1.1-0.1,1.4-0.4c0.3-0.3,0.5-0.7,0.5-1.2
		c0-0.5-0.2-0.9-0.5-1.2s-0.9-0.4-1.6-0.4h-1.2V14z"/>
	<path fill="#666666" d="M218.5,17.6h-0.6l-2.7-3.8l-1,0.8v2.9h-0.5v-7.1h0.5v3.7l0.8-0.8l2.8-2.9h0.6l-2.9,3L218.5,17.6z"/>
	<path fill="#666666" d="M226,17.6h-0.5v-6.7h-2.3v-0.5h5.1v0.5H226V17.6z"/>
	<path fill="#666666" d="M230.3,17.6v-7.1h0.5v7.1H230.3z"/>
	<path fill="#666666" d="M237,17.6l-2.7-6.6h0c0,0.4,0,0.8,0,1.2v5.4h-0.5v-7.1h0.8l2.5,6.3h0l2.5-6.3h0.8v7.1H240v-5.4
		c0-0.4,0-0.8,0.1-1.2h0l-2.7,6.6H237z"/>
	<path fill="#666666" d="M247.4,17.6h-3.9v-7.1h3.9v0.5H244v2.7h3.2v0.5H244v3.1h3.4V17.6z"/>
	<path fill="#666666" d="M254,15.7c0,0.6-0.2,1.1-0.7,1.4c-0.4,0.3-1,0.5-1.7,0.5c-0.9,0-1.5-0.1-2-0.3v-0.5c0.5,0.2,1.2,0.3,2,0.3
		c0.6,0,1.1-0.1,1.4-0.4c0.3-0.3,0.5-0.6,0.5-1.1c0-0.3-0.1-0.5-0.2-0.7c-0.1-0.2-0.3-0.3-0.6-0.5s-0.6-0.3-1.1-0.5
		c-0.7-0.3-1.2-0.5-1.5-0.8c-0.3-0.3-0.4-0.7-0.4-1.2c0-0.5,0.2-1,0.6-1.3c0.4-0.3,1-0.5,1.6-0.5c0.7,0,1.3,0.1,1.9,0.4l-0.2,0.4
		c-0.6-0.2-1.2-0.4-1.7-0.4c-0.5,0-0.9,0.1-1.3,0.4s-0.5,0.6-0.5,1c0,0.3,0,0.5,0.1,0.6c0.1,0.2,0.3,0.3,0.5,0.5
		c0.2,0.1,0.6,0.3,1.1,0.5c0.6,0.2,1,0.4,1.3,0.6c0.3,0.2,0.5,0.4,0.6,0.6C253.9,15.1,254,15.4,254,15.7z"/>
</g>
<g>
	<path fill="#666666" d="M18.7,10.4h0.5l-2.7,7.1h-0.4l-2.7-7.1H14l1.8,4.9c0.3,0.7,0.5,1.3,0.6,1.7c0.1-0.2,0.2-0.6,0.4-1.1
		L18.7,10.4z"/>
	<path fill="#666666" d="M27.3,14c0,1.1-0.3,2-0.8,2.7c-0.6,0.7-1.3,1-2.3,1c-1,0-1.8-0.3-2.3-1c-0.6-0.7-0.8-1.6-0.8-2.7
		c0-1.1,0.3-2,0.9-2.7c0.6-0.7,1.4-1,2.3-1c1,0,1.8,0.3,2.3,1C27,12,27.3,12.9,27.3,14z M21.4,14c0,1,0.2,1.8,0.7,2.4
		c0.5,0.6,1.1,0.8,2,0.8c0.9,0,1.5-0.3,2-0.8c0.5-0.6,0.7-1.3,0.7-2.4c0-1-0.2-1.8-0.7-2.4c-0.5-0.5-1.1-0.8-2-0.8
		c-0.8,0-1.5,0.3-2,0.8C21.6,12.2,21.4,13,21.4,14z"/>
	<path fill="#666666" d="M30.4,14.5v3.1h-0.5v-7.1h1.7c0.9,0,1.5,0.2,2,0.5c0.4,0.3,0.6,0.8,0.6,1.5c0,0.5-0.1,0.9-0.4,1.2
		c-0.3,0.3-0.6,0.6-1.2,0.7l1.9,3.3H34l-1.8-3.1H30.4z M30.4,14h1.4c0.6,0,1.1-0.1,1.4-0.4c0.3-0.3,0.5-0.7,0.5-1.2
		c0-0.5-0.2-0.9-0.5-1.2s-0.9-0.4-1.6-0.4h-1.2V14z"/>
	<path fill="#666666" d="M41.1,17.6l2.9-6.7h-4v-0.5h4.6v0.4l-2.9,6.8H41.1z"/>
	<path fill="#666666" d="M52.6,17.6h-0.5v-6.7h-2.3v-0.5h5.1v0.5h-2.3V17.6z"/>
	<path fill="#666666" d="M60.4,15.1h-2.9l-1,2.5H56l2.9-7.2h0.3l2.8,7.2h-0.6L60.4,15.1z M57.7,14.6h2.6l-1-2.6
		c-0.1-0.2-0.2-0.5-0.3-0.8c-0.1,0.3-0.2,0.6-0.3,0.8L57.7,14.6z"/>
	<path fill="#666666" d="M66.8,14h2.6v3.3c-0.7,0.3-1.5,0.4-2.3,0.4c-1.1,0-2-0.3-2.6-1c-0.6-0.6-0.9-1.5-0.9-2.7
		c0-0.7,0.1-1.4,0.4-1.9c0.3-0.6,0.7-1,1.3-1.3c0.6-0.3,1.2-0.5,1.9-0.5c0.8,0,1.5,0.1,2.1,0.4l-0.2,0.4c-0.6-0.3-1.3-0.4-1.9-0.4
		c-0.9,0-1.7,0.3-2.2,0.9c-0.6,0.6-0.8,1.4-0.8,2.4c0,1.1,0.3,1.9,0.8,2.4c0.5,0.5,1.3,0.8,2.3,0.8c0.7,0,1.2-0.1,1.7-0.3v-2.5h-2.1
		V14z"/>
	<path fill="#666666" d="M76.1,17.6h-3.9v-7.1h3.9v0.5h-3.4v2.7h3.2v0.5h-3.2v3.1h3.4V17.6z"/>
	<path fill="#666666" d="M83.9,17.6h-0.5l-4.2-6.3h0c0,0.8,0.1,1.3,0.1,1.7v4.6h-0.5v-7.1h0.5l4.2,6.3h0c0-0.6,0-1.1,0-1.7v-4.7h0.5
		V17.6z"/>
</g>
</svg>
