<!-- Generator: Adobe Illustrator 18.1.0, SVG Export Plug-In  -->
<svg version="1.1"
	 xmlns="http://www.w3.org/2000/svg" xmlns:xlink="http://www.w3.org/1999/xlink" xmlns:a="http://ns.adobe.com/AdobeSVGViewerExtensions/3.0/"
	 x="0px" y="0px" width="256.8px" height="40.4px" viewBox="0 0 256.8 40.4" enable-background="new 0 0 256.8 40.4"
	 xml:space="preserve">
<defs>
</defs>
<g>
	<path d="M0,39.8V0.1h7.5c1,0,1.9,0,2.8,0.1c0.9,0,1.8,0.2,2.6,0.3c0.8,0.2,1.6,0.5,2.3,0.9s1.4,1,2,1.7c0.5,0.6,0.8,1.2,1.1,1.8
		c0.3,0.6,0.5,1.5,0.6,2.5c0.1,1,0.2,2.3,0.3,3.8c0,1.5,0.1,3.5,0.1,5.9c0,0.5,0,1.1,0,1.7c0,0.6,0,1.3,0,2.1c0,0.8,0,1.7,0,2.7
		c0,1,0,2.2-0.1,3.5c0,2-0.1,3.7-0.3,5.1c-0.2,1.4-0.6,2.8-1.3,4c-0.6,0.9-1.2,1.6-1.9,2.1s-1.5,0.8-2.4,1.1
		c-0.9,0.2-1.8,0.4-2.8,0.4c-1,0-2,0.1-3.1,0.1H0z M5,35.4h3.2c0.8,0,1.5,0,2.2-0.1s1.3-0.2,1.8-0.5c0.5-0.2,0.9-0.6,1.3-1.1
		s0.6-1.2,0.7-2.1c0.1-0.5,0.1-1.1,0.2-2c0-0.9,0.1-1.8,0.1-2.7c0-0.9,0.1-1.8,0.1-2.7s0-1.6,0-2.1c0-0.9,0-1.7,0-2.4s0-1.4,0-2
		s0-1.3,0-2c0-0.7,0-1.5,0-2.5c0-1.1,0-2-0.1-2.9c0-0.8-0.1-1.5-0.2-2.2C14,7.5,13.8,7,13.6,6.6c-0.2-0.4-0.6-0.8-1-1.1
		c-0.3-0.2-0.6-0.4-1-0.5c-0.3-0.1-0.8-0.2-1.3-0.3C9.7,4.6,9,4.6,8.2,4.6s-1.9,0-3.2,0V35.4z"/>
	<path d="M43.8,0.1v26.8c0,1.2,0,2.3,0,3.2c0,0.9-0.1,1.7-0.1,2.3c-0.1,0.7-0.2,1.3-0.3,1.8c-0.1,0.5-0.3,1.1-0.5,1.5
		c-0.5,1.1-1.1,1.9-1.8,2.5c-0.8,0.6-1.6,1.1-2.4,1.4s-1.7,0.5-2.5,0.6c-0.8,0.1-1.4,0.1-2,0.1c-2.1,0-4-0.3-5.5-1
		c-1.5-0.7-2.6-1.8-3.3-3.3c-0.2-0.5-0.3-0.9-0.5-1.3c-0.1-0.4-0.2-0.9-0.3-1.5c-0.1-0.6-0.1-1.4-0.1-2.3c0-0.9,0-2.2,0-3.7V0.1h5
		v29c0,0.9,0,1.7,0.1,2.6c0.1,0.8,0.2,1.6,0.5,2.3c0.3,0.7,0.8,1.2,1.4,1.6c0.6,0.4,1.6,0.6,2.8,0.6c1.1,0,1.9-0.2,2.5-0.5
		c0.6-0.3,1.1-0.8,1.3-1.2s0.5-1,0.5-1.6c0.1-0.6,0.1-1.1,0.1-1.5c0-0.4,0-0.7,0-1c0-0.3,0-0.6,0-0.9s0-0.7,0-1.2c0-0.4,0-1,0-1.8
		V0.1H43.8z"/>
	<path d="M68.2,39.8h-7L53.5,5.4l0.7,34.5h-4.8V0h6.8l8.1,34.9L63.4,0h4.8V39.8z"/>
	<path d="M94.5,39.8h-5.5L82,19.5l-3.2,4.8v15.5h-5V0.1h5v17.1L89.1,0.1h5.5l-9.4,15L94.5,39.8z"/>
	<path d="M115.3,39.8H97.3V0.1h17.5v4.5h-12.5v11.9h11v4.5h-11v14.5h13V39.8z"/>
	<path d="M136.3,39.8h-16.6V0.1h5v35.3h11.7V39.8z"/>
	<path d="M156.7,39.8H138v-4.1l13.1-31.3h-11.2V0.1h16.8v3.8l-13.3,31.6h13.3V39.8z"/>
	<path d="M165.7,39.8h-5V0.1h5V39.8z"/>
	<path d="M176.2,39.8h-5V0.1h17.5v4.5h-12.5v11.7h10.9v4.3h-10.9V39.8z"/>
	<path d="M197.3,39.8h-5V0.1h17.5v4.5h-12.5v11.7h10.9v4.3h-10.9V39.8z"/>
	<path d="M231.4,39.8h-17.9V0.1H231v4.5h-12.5v11.9h11v4.5h-11v14.5h13V39.8z"/>
	<path d="M256.8,39.8h-5.2l-6.7-17.4h-4.1v17.4h-5V0.1h8.7c1.3,0,2.6,0.1,3.9,0.3c1.3,0.2,2.4,0.6,3.4,1.4c1,0.7,1.8,1.8,2.4,3.3
		c0.6,1.4,0.9,3.4,0.9,5.9c0,1.5-0.1,2.8-0.3,4s-0.4,2.2-0.7,2.9c-0.3,0.8-0.6,1.5-1,2c-0.4,0.5-0.8,0.9-1.2,1.2
		c-0.4,0.3-0.8,0.5-1.2,0.6c-0.4,0.1-0.7,0.2-1,0.3L256.8,39.8z M240.8,18.5c1.4,0,2.5,0,3.3,0s1.5,0,2-0.1c0.5-0.1,0.9-0.1,1.2-0.2
		c0.3-0.1,0.5-0.2,0.8-0.4c0.5-0.3,0.9-0.8,1.1-1.3s0.4-1.1,0.6-1.6c0.1-0.6,0.2-1.2,0.2-1.8c0-0.6,0-1.1,0-1.6c0-0.6,0-1.2,0-1.8
		c0-0.6-0.1-1.2-0.2-1.7c-0.1-0.5-0.3-1-0.6-1.5c-0.3-0.5-0.6-0.8-1.1-1.1c-0.3-0.2-0.6-0.3-0.9-0.4c-0.3-0.1-0.7-0.2-1.3-0.2
		c-0.5-0.1-1.2-0.1-2-0.1s-1.9,0-3.1,0V18.5z"/>
</g>
</svg>
