<?xml version="1.0" encoding="utf-8"?>
<!-- Generator: Adobe Illustrator 18.1.0, SVG Export Plug-In . SVG Version: 6.00 Build 0)  -->
<!DOCTYPE svg PUBLIC "-//W3C//DTD SVG 1.1//EN" "http://www.w3.org/Graphics/SVG/1.1/DTD/svg11.dtd">
<svg version="1.1" id="Ebene_1" xmlns="http://www.w3.org/2000/svg" xmlns:xlink="http://www.w3.org/1999/xlink" x="0px" y="0px"
	 viewBox="0 0 267.5 30" enable-background="new 0 0 267.5 30" xml:space="preserve">
<g>
	<path fill="#666666" d="M142.8,18.4h-0.6l-2.7-3.8l-1,0.8v2.9H138v-7.1h0.5v3.7l0.8-0.8l2.8-2.9h0.6l-2.9,3L142.8,18.4z"/>
	<path fill="#666666" d="M148.3,15.8h-2.9l-1,2.5h-0.6l2.9-7.2h0.3l2.8,7.2h-0.6L148.3,15.8z M145.6,15.4h2.6l-1-2.6
		c-0.1-0.2-0.2-0.5-0.3-0.8c-0.1,0.3-0.2,0.6-0.3,0.8L145.6,15.4z"/>
	<path fill="#666666" d="M156.1,11.2h0.5l-2.7,7.1h-0.4l-2.7-7.1h0.5l1.8,4.9c0.3,0.7,0.5,1.3,0.6,1.7c0.1-0.2,0.2-0.6,0.4-1.1
		L156.1,11.2z"/>
	<path fill="#666666" d="M163.4,18.4h-0.6l-2.7-3.8l-1,0.8v2.9h-0.5v-7.1h0.5v3.7l0.8-0.8l2.8-2.9h0.6l-2.9,3L163.4,18.4z"/>
	<path fill="#666666" d="M168.9,15.8H166l-1,2.5h-0.6l2.9-7.2h0.3l2.8,7.2h-0.6L168.9,15.8z M166.2,15.4h2.6l-1-2.6
		c-0.1-0.2-0.2-0.5-0.3-0.8c-0.1,0.3-0.2,0.6-0.3,0.8L166.2,15.4z"/>
	<path fill="#666666" d="M176.8,18.4h-5V18l4.2-6.3h-4v-0.5h4.7v0.4l-4.2,6.3h4.3V18.4z"/>
	<path fill="#666666" d="M188,18.4h-0.5l-4.2-6.3h0c0,0.8,0.1,1.3,0.1,1.7v4.6h-0.5v-7.1h0.5l4.2,6.3h0c0-0.6,0-1.1,0-1.7v-4.7h0.5
		V18.4z"/>
	<path fill="#666666" d="M194.9,18.4H191v-7.1h3.9v0.5h-3.4v2.7h3.2v0.5h-3.2v3.1h3.4V18.4z"/>
	<path fill="#666666" d="M203.2,18.4h-0.4l-1.6-5.5c-0.1-0.5-0.2-0.8-0.3-1.1c-0.1,0.3-0.1,0.6-0.2,1c-0.1,0.4-0.6,2.2-1.6,5.6h-0.4
		l-2-7.1h0.5l1.2,4.6c0,0.2,0.1,0.4,0.1,0.5c0,0.2,0.1,0.3,0.1,0.4c0,0.1,0.1,0.3,0.1,0.4c0,0.1,0.1,0.3,0.1,0.4
		c0.1-0.4,0.2-1.1,0.5-2l1.2-4.3h0.6l1.4,5c0.2,0.6,0.3,1,0.4,1.4c0-0.2,0.1-0.5,0.2-0.7c0.1-0.3,0.6-2.1,1.5-5.6h0.5L203.2,18.4z"
		/>
	<path fill="#666666" d="M211.4,16.5c0,0.6-0.2,1.1-0.7,1.4c-0.4,0.3-1,0.5-1.7,0.5c-0.9,0-1.5-0.1-2-0.3v-0.5
		c0.5,0.2,1.2,0.3,2,0.3c0.6,0,1.1-0.1,1.4-0.4c0.3-0.3,0.5-0.6,0.5-1.1c0-0.3-0.1-0.5-0.2-0.7c-0.1-0.2-0.3-0.3-0.6-0.5
		s-0.6-0.3-1.1-0.5c-0.7-0.3-1.2-0.5-1.5-0.8c-0.3-0.3-0.4-0.7-0.4-1.2c0-0.5,0.2-1,0.6-1.3c0.4-0.3,1-0.5,1.6-0.5
		c0.7,0,1.3,0.1,1.9,0.4l-0.2,0.4c-0.6-0.2-1.2-0.4-1.7-0.4c-0.5,0-0.9,0.1-1.3,0.4s-0.5,0.6-0.5,1c0,0.3,0,0.5,0.1,0.6
		c0.1,0.2,0.3,0.3,0.5,0.5c0.2,0.1,0.6,0.3,1.1,0.5c0.6,0.2,1,0.4,1.3,0.6c0.3,0.2,0.5,0.4,0.6,0.6
		C211.3,15.9,211.4,16.2,211.4,16.5z"/>
</g>
<g>
	<path fill="#666666" d="M17.7,11.2h0.5l-2.7,7.1h-0.4l-2.7-7.1H13l1.8,4.9c0.3,0.7,0.5,1.3,0.6,1.7c0.1-0.2,0.2-0.6,0.4-1.1
		L17.7,11.2z"/>
	<path fill="#666666" d="M26.3,14.8c0,1.1-0.3,2-0.8,2.7c-0.6,0.7-1.3,1-2.3,1c-1,0-1.8-0.3-2.3-1c-0.6-0.7-0.8-1.6-0.8-2.7
		c0-1.1,0.3-2,0.9-2.7c0.6-0.7,1.4-1,2.3-1c1,0,1.8,0.3,2.3,1C26,12.7,26.3,13.6,26.3,14.8z M20.4,14.8c0,1,0.2,1.8,0.7,2.4
		c0.5,0.6,1.1,0.8,2,0.8c0.9,0,1.5-0.3,2-0.8c0.5-0.6,0.7-1.3,0.7-2.4c0-1-0.2-1.8-0.7-2.4c-0.5-0.5-1.1-0.8-2-0.8
		c-0.8,0-1.5,0.3-2,0.8C20.6,13,20.4,13.8,20.4,14.8z"/>
	<path fill="#666666" d="M29.4,15.2v3.1h-0.5v-7.1h1.7c0.9,0,1.5,0.2,2,0.5c0.4,0.3,0.6,0.8,0.6,1.5c0,0.5-0.1,0.9-0.4,1.2
		c-0.3,0.3-0.6,0.6-1.2,0.7l1.9,3.3H33l-1.8-3.1H29.4z M29.4,14.8h1.4c0.6,0,1.1-0.1,1.4-0.4c0.3-0.3,0.5-0.7,0.5-1.2
		c0-0.5-0.2-0.9-0.5-1.2s-0.9-0.4-1.6-0.4h-1.2V14.8z"/>
	<path fill="#666666" d="M43.2,12.9c0,0.4-0.1,0.8-0.4,1.1c-0.3,0.3-0.7,0.5-1.1,0.6v0c0.6,0.1,1,0.3,1.3,0.5s0.4,0.7,0.4,1.2
		c0,0.7-0.2,1.2-0.7,1.6c-0.5,0.4-1.1,0.5-2,0.5c-0.7,0-1.4-0.1-1.9-0.4v-0.5c0.3,0.1,0.6,0.3,0.9,0.3c0.3,0.1,0.7,0.1,1,0.1
		c0.7,0,1.3-0.1,1.6-0.4c0.4-0.3,0.5-0.7,0.5-1.2c0-0.5-0.2-0.8-0.6-1.1c-0.4-0.3-0.9-0.4-1.6-0.4H40v-0.5h0.8
		c0.6,0,1.1-0.1,1.4-0.4c0.3-0.3,0.5-0.7,0.5-1.1c0-0.4-0.1-0.7-0.4-1c-0.3-0.2-0.7-0.4-1.1-0.4c-0.4,0-0.7,0-1,0.1
		c-0.3,0.1-0.6,0.3-1,0.5L39,11.9c0.3-0.2,0.6-0.4,1-0.5c0.4-0.1,0.8-0.2,1.2-0.2c0.7,0,1.2,0.2,1.5,0.5
		C43,11.9,43.2,12.3,43.2,12.9z"/>
	<path fill="#666666" d="M51.6,18.4h-0.5v-6.7h-2.3v-0.5h5.1v0.5h-2.3V18.4z"/>
	<path fill="#666666" d="M59.4,15.8h-2.9l-1,2.5H55l2.9-7.2h0.3l2.8,7.2h-0.6L59.4,15.8z M56.7,15.4h2.6l-1-2.6
		c-0.1-0.2-0.2-0.5-0.3-0.8c-0.1,0.3-0.2,0.6-0.3,0.8L56.7,15.4z"/>
	<path fill="#666666" d="M65.8,14.8h2.6V18c-0.7,0.3-1.5,0.4-2.3,0.4c-1.1,0-2-0.3-2.6-1c-0.6-0.6-0.9-1.5-0.9-2.7
		c0-0.7,0.1-1.4,0.4-1.9c0.3-0.6,0.7-1,1.3-1.3c0.6-0.3,1.2-0.5,1.9-0.5c0.8,0,1.5,0.1,2.1,0.4L68.1,12c-0.6-0.3-1.3-0.4-1.9-0.4
		c-0.9,0-1.7,0.3-2.2,0.9c-0.6,0.6-0.8,1.4-0.8,2.4c0,1.1,0.3,1.9,0.8,2.4c0.5,0.5,1.3,0.8,2.3,0.8c0.7,0,1.2-0.1,1.7-0.3v-2.5h-2.1
		V14.8z"/>
	<path fill="#666666" d="M75.1,18.4h-3.9v-7.1h3.9v0.5h-3.4v2.7h3.2v0.5h-3.2v3.1h3.4V18.4z"/>
	<path fill="#666666" d="M82.9,18.4h-0.5L78.2,12h0c0,0.8,0.1,1.3,0.1,1.7v4.6h-0.5v-7.1h0.5l4.2,6.3h0c0-0.6,0-1.1,0-1.7v-4.7h0.5
		V18.4z"/>
</g>
</svg>
