<?xml version="1.0" encoding="utf-8"?>
<!-- Generator: Adobe Illustrator 18.1.0, SVG Export Plug-In . SVG Version: 6.00 Build 0)  -->
<!DOCTYPE svg PUBLIC "-//W3C//DTD SVG 1.1//EN" "http://www.w3.org/Graphics/SVG/1.1/DTD/svg11.dtd">
<svg version="1.1" id="Ebene_1" xmlns="http://www.w3.org/2000/svg" xmlns:xlink="http://www.w3.org/1999/xlink" x="0px" y="0px"
	 viewBox="0 0 502 545.7" enable-background="new 0 0 502 545.7" xml:space="preserve">
<g>
	<path fill="#1A1A1A" d="M58.3,101H51l-7.6-14.7h-0.1c0.2,2.3,0.3,4.1,0.3,5.3v9.4h-5V80.2h7.3l7.6,14.5h0.1
		c-0.1-2.1-0.2-3.8-0.2-5.1v-9.4h5V101z"/>
	<path fill="#1A1A1A" d="M76.6,101H64.3V80.2h12.3v4.5h-6.7V88h6.2v4.5h-6.2v3.9h6.7V101z"/>
	<path fill="#1A1A1A" d="M90.1,88.8h9V100c-2.4,0.8-5.1,1.3-8,1.3c-3.2,0-5.7-0.9-7.4-2.8S81,94,81,90.6c0-3.4,1-6,2.9-7.8
		c1.9-1.9,4.6-2.8,8.1-2.8c1.3,0,2.5,0.1,3.7,0.4s2.2,0.6,3,0.9l-1.8,4.4c-1.5-0.7-3.1-1.1-4.9-1.1c-1.6,0-2.9,0.5-3.8,1.6
		c-0.9,1.1-1.3,2.6-1.3,4.6c0,1.9,0.4,3.4,1.2,4.4c0.8,1,2,1.5,3.5,1.5c0.8,0,1.6-0.1,2.3-0.2v-3.3h-3.7V88.8z"/>
	<path fill="#1A1A1A" d="M117.5,101l-1-3.9h-6.8l-1.1,3.9h-6.2l6.8-20.9h7.5l6.9,20.9H117.5z M115.3,92.5l-0.9-3.4
		c-0.2-0.8-0.5-1.7-0.8-2.9c-0.3-1.2-0.5-2.1-0.6-2.6c-0.1,0.5-0.3,1.3-0.5,2.4c-0.3,1.1-0.8,3.3-1.7,6.6H115.3z"/>
	<path fill="#1A1A1A" d="M136.5,101h-5.6V84.8h-5.1v-4.6h15.8v4.6h-5.1V101z"/>
	<path fill="#1A1A1A" d="M146,101V80.2h5.6V101H146z"/>
	<path fill="#1A1A1A" d="M169.3,80.2h6.3l-6.8,20.8h-6.6l-6.8-20.8h6.3l2.8,10.5c0.6,2.3,0.9,4,1,4.9c0.1-0.7,0.2-1.5,0.4-2.5
		s0.4-1.8,0.5-2.3L169.3,80.2z"/>
	<path fill="#1A1A1A" d="M191.7,101h-12.3V80.2h12.3v4.5h-6.7V88h6.2v4.5h-6.2v3.9h6.7V101z"/>
</g>
<g>
	<path fill="#1A1A1A" d="M213.9,93.7v-1.2h6.8v1.2H213.9z"/>
	<path fill="#1A1A1A" d="M238.4,90.6c0,3.7-0.6,6.4-1.7,8.1c-1.1,1.8-2.8,2.6-5.1,2.6c-2.2,0-3.8-0.9-5-2.7c-1.1-1.8-1.7-4.5-1.7-8
		c0-3.6,0.5-6.3,1.6-8.1c1.1-1.7,2.8-2.6,5-2.6c2.2,0,3.9,0.9,5,2.7C237.9,84.4,238.4,87.1,238.4,90.6z M226.6,90.6
		c0,3.2,0.4,5.6,1.3,7.1c0.8,1.5,2.1,2.3,3.8,2.3c1.8,0,3.1-0.8,3.9-2.4c0.8-1.6,1.2-4,1.2-7.1c0-3.1-0.4-5.4-1.2-7
		c-0.8-1.6-2.1-2.4-3.9-2.4s-3.1,0.8-3.9,2.4C227,85.1,226.6,87.5,226.6,90.6z"/>
	<path fill="#1A1A1A" d="M243.8,99.9c0-0.9,0.4-1.4,1.1-1.4c0.8,0,1.2,0.5,1.2,1.4s-0.4,1.4-1.2,1.4
		C244.2,101.3,243.8,100.8,243.8,99.9z"/>
	<path fill="#1A1A1A" d="M259.6,101h-1.4V85.9c0-1.4,0.1-2.8,0.2-4.3c-0.1,0.1-0.3,0.3-0.4,0.4s-1.6,1.3-4.4,3.5l-0.8-1l5.6-4.2h1.2
		V101z"/>
	<path fill="#1A1A1A" d="M277.7,101h-1.4V85.9c0-1.4,0.1-2.8,0.2-4.3c-0.1,0.1-0.3,0.3-0.4,0.4s-1.6,1.3-4.4,3.5l-0.8-1l5.6-4.2h1.2
		V101z"/>
	<path fill="#1A1A1A" d="M301.1,90.6c0,3.7-0.6,6.4-1.7,8.1c-1.1,1.8-2.8,2.6-5.1,2.6c-2.2,0-3.8-0.9-5-2.7c-1.1-1.8-1.7-4.5-1.7-8
		c0-3.6,0.5-6.3,1.6-8.1c1.1-1.7,2.8-2.6,5-2.6c2.2,0,3.9,0.9,5,2.7C300.5,84.4,301.1,87.1,301.1,90.6z M289.2,90.6
		c0,3.2,0.4,5.6,1.3,7.1c0.8,1.5,2.1,2.3,3.8,2.3c1.8,0,3.1-0.8,3.9-2.4c0.8-1.6,1.2-4,1.2-7.1c0-3.1-0.4-5.4-1.2-7
		c-0.8-1.6-2.1-2.4-3.9-2.4s-3.1,0.8-3.9,2.4C289.6,85.1,289.2,87.5,289.2,90.6z"/>
	<path fill="#1A1A1A" d="M318.8,101h-13v-1.3l5.5-5.8c1.6-1.6,2.6-2.8,3.3-3.7s1.1-1.7,1.4-2.4c0.3-0.8,0.4-1.6,0.4-2.4
		c0-1.2-0.4-2.3-1.2-3c-0.8-0.8-1.9-1.2-3.2-1.2c-1.7,0-3.4,0.6-5,1.9l-0.8-1c1.7-1.5,3.7-2.2,5.8-2.2c1.8,0,3.2,0.5,4.3,1.5
		c1,1,1.6,2.3,1.6,4c0,1.4-0.3,2.7-1,4s-2,2.9-3.8,4.8l-5.3,5.5v0.1h11.1V101z"/>
	<path fill="#1A1A1A" d="M330.5,79.9c1.8,0,3.2,0.5,4.3,1.4c1.1,0.9,1.6,2.1,1.6,3.7c0,1.1-0.3,2-1,2.8s-1.8,1.6-3.3,2.3
		c1.8,0.7,3.1,1.6,3.8,2.5c0.7,0.9,1.1,2,1.1,3.2c0,1.7-0.6,3.1-1.8,4.1s-2.8,1.5-4.8,1.5c-2.1,0-3.7-0.5-4.8-1.4s-1.7-2.4-1.7-4.2
		c0-1.2,0.4-2.3,1.2-3.3c0.8-0.9,2-1.7,3.7-2.4c-1.5-0.7-2.6-1.5-3.2-2.3c-0.6-0.8-0.9-1.8-0.9-2.9c0-1,0.3-1.9,0.8-2.6
		s1.2-1.3,2.1-1.7C328.4,80.1,329.4,79.9,330.5,79.9z M325.4,95.9c0,1.3,0.4,2.3,1.3,3c0.9,0.7,2.1,1.1,3.7,1.1
		c1.6,0,2.8-0.4,3.8-1.1s1.4-1.8,1.4-3.1c0-1.2-0.4-2.1-1.1-2.9c-0.7-0.7-2.2-1.5-4.3-2.3c-1.7,0.7-3,1.4-3.7,2.2
		C325.8,93.6,325.4,94.7,325.4,95.9z M330.5,81.1c-1.3,0-2.4,0.3-3.2,1c-0.8,0.7-1.2,1.6-1.2,2.7c0,0.7,0.1,1.2,0.4,1.8
		c0.3,0.5,0.7,1,1.3,1.4c0.6,0.4,1.5,0.9,2.8,1.4c1.5-0.6,2.7-1.3,3.3-2c0.7-0.7,1-1.6,1-2.6c0-1.1-0.4-2-1.2-2.7
		S331.9,81.1,330.5,81.1z"/>
	<path fill="#1A1A1A" d="M355,101h-13v-1.3l5.5-5.8c1.6-1.6,2.6-2.8,3.3-3.7s1.1-1.7,1.4-2.4c0.3-0.8,0.4-1.6,0.4-2.4
		c0-1.2-0.4-2.3-1.2-3c-0.8-0.8-1.9-1.2-3.2-1.2c-1.7,0-3.4,0.6-5,1.9l-0.8-1c1.7-1.5,3.7-2.2,5.8-2.2c1.8,0,3.2,0.5,4.3,1.5
		c1,1,1.6,2.3,1.6,4c0,1.4-0.3,2.7-1,4s-2,2.9-3.8,4.8l-5.3,5.5v0.1H355V101z"/>
</g>
<g>
	<path fill="#1A1A1A" d="M36.5,205.6v-15.7h4.3v15.7H36.5z"/>
	<path fill="#1A1A1A" d="M55.5,200.8c0,1-0.2,1.8-0.7,2.6c-0.5,0.8-1.2,1.3-2.1,1.8c-0.9,0.4-2,0.6-3.3,0.6c-1,0-1.9-0.1-2.6-0.2
		c-0.7-0.1-1.4-0.4-2.2-0.8V201c0.8,0.4,1.7,0.7,2.5,1s1.7,0.3,2.4,0.3c0.6,0,1.1-0.1,1.4-0.3s0.4-0.5,0.4-0.8
		c0-0.2-0.1-0.4-0.2-0.6c-0.1-0.2-0.3-0.3-0.6-0.5c-0.3-0.2-1-0.5-2.1-1c-1-0.5-1.8-0.9-2.3-1.4c-0.5-0.4-0.9-0.9-1.1-1.5
		c-0.2-0.6-0.4-1.2-0.4-2c0-1.4,0.5-2.6,1.6-3.4c1.1-0.8,2.5-1.2,4.3-1.2c1.6,0,3.3,0.4,5,1.1l-1.3,3.3c-1.5-0.7-2.7-1-3.8-1
		c-0.6,0-1,0.1-1.2,0.3s-0.4,0.4-0.4,0.7c0,0.3,0.2,0.6,0.5,0.8c0.3,0.2,1.2,0.7,2.6,1.3c1.4,0.6,2.3,1.3,2.8,2
		C55.3,198.9,55.5,199.8,55.5,200.8z"/>
	<path fill="#1A1A1A" d="M59,205.6v-15.7h4.2v12.3h6v3.4H59z"/>
	<path fill="#1A1A1A" d="M82.6,205.6l-0.8-2.9h-5.1l-0.8,2.9h-4.7l5.1-15.8H82l5.2,15.8H82.6z M80.9,199.2l-0.7-2.6
		c-0.2-0.6-0.3-1.3-0.6-2.2c-0.2-0.9-0.4-1.6-0.4-2c-0.1,0.4-0.2,1-0.4,1.8c-0.2,0.8-0.6,2.5-1.3,5H80.9z"/>
	<path fill="#1A1A1A" d="M96.9,205.6l-3.2-11.3h-0.1c0.2,1.9,0.2,3.4,0.2,4.5v6.8H90v-15.7h5.7L99,201H99l3.2-11.2h5.7v15.7H104
		v-6.9c0-0.4,0-0.8,0-1.2c0-0.4,0.1-1.5,0.1-3.2h-0.1l-3.2,11.3H96.9z"/>
	<path fill="#1A1A1A" d="M112.4,205.6v-15.7h4.3v15.7H112.4z"/>
	<path fill="#1A1A1A" d="M128.1,193.1c-1,0-1.8,0.4-2.4,1.2c-0.6,0.8-0.8,2-0.8,3.4c0,3,1.1,4.5,3.4,4.5c0.7,0,1.4-0.1,2-0.3
		s1.3-0.4,2-0.7v3.6c-1.3,0.6-2.8,0.9-4.4,0.9c-2.4,0-4.2-0.7-5.5-2.1c-1.3-1.4-1.9-3.4-1.9-6c0-1.6,0.3-3.1,0.9-4.3
		c0.6-1.2,1.5-2.2,2.6-2.8c1.1-0.7,2.5-1,4.1-1c1.7,0,3.3,0.4,4.9,1.1l-1.3,3.3c-0.6-0.3-1.2-0.5-1.7-0.7
		C129.4,193.2,128.8,193.1,128.1,193.1z"/>
	<path fill="#1A1A1A" d="M153.6,200.8c0,1-0.2,1.8-0.7,2.6c-0.5,0.8-1.2,1.3-2.1,1.8c-0.9,0.4-2,0.6-3.3,0.6c-1,0-1.9-0.1-2.6-0.2
		c-0.7-0.1-1.4-0.4-2.2-0.8V201c0.8,0.4,1.7,0.7,2.5,1s1.7,0.3,2.4,0.3c0.6,0,1.1-0.1,1.4-0.3s0.4-0.5,0.4-0.8
		c0-0.2-0.1-0.4-0.2-0.6c-0.1-0.2-0.3-0.3-0.6-0.5c-0.3-0.2-1-0.5-2.1-1c-1-0.5-1.8-0.9-2.3-1.4c-0.5-0.4-0.9-0.9-1.1-1.5
		c-0.2-0.6-0.4-1.2-0.4-2c0-1.4,0.5-2.6,1.6-3.4c1.1-0.8,2.5-1.2,4.3-1.2c1.6,0,3.3,0.4,5,1.1l-1.3,3.3c-1.5-0.7-2.7-1-3.8-1
		c-0.6,0-1,0.1-1.2,0.3s-0.4,0.4-0.4,0.7c0,0.3,0.2,0.6,0.5,0.8c0.3,0.2,1.2,0.7,2.6,1.3c1.4,0.6,2.3,1.3,2.8,2
		C153.4,198.9,153.6,199.8,153.6,200.8z"/>
	<path fill="#1A1A1A" d="M164.1,205.6h-4.2v-12.2H156v-3.5h11.9v3.5h-3.8V205.6z"/>
	<path fill="#1A1A1A" d="M180.9,205.6l-0.8-2.9H175l-0.8,2.9h-4.7l5.1-15.8h5.7l5.2,15.8H180.9z M179.2,199.2l-0.7-2.6
		c-0.2-0.6-0.3-1.3-0.6-2.2c-0.2-0.9-0.4-1.6-0.4-2c-0.1,0.4-0.2,1-0.4,1.8c-0.2,0.8-0.6,2.5-1.3,5H179.2z"/>
	<path fill="#1A1A1A" d="M195.2,205.6H191v-12.2h-3.8v-3.5h11.9v3.5h-3.8V205.6z"/>
	<path fill="#1A1A1A" d="M211.7,205.6h-9.3v-15.7h9.3v3.4h-5.1v2.5h4.7v3.4h-4.7v3h5.1V205.6z"/>
</g>
<g>
	<path fill="#333333" d="M43.4,256.5h-4.2v-12.2h-3.8v-3.5h11.9v3.5h-3.8V256.5z"/>
	<path fill="#333333" d="M54.8,250.8v5.7h-4.2v-15.7h5.1c4.3,0,6.4,1.5,6.4,4.6c0,1.8-0.9,3.2-2.7,4.2l4.6,6.8h-4.8l-3.3-5.7H54.8z
		 M54.8,247.6h0.8c1.5,0,2.2-0.7,2.2-2c0-1.1-0.7-1.6-2.2-1.6h-0.8V247.6z"/>
	<path fill="#333333" d="M81.3,248.6c0,2.6-0.6,4.7-1.9,6s-3.2,2.1-5.7,2.1c-2.5,0-4.4-0.7-5.7-2.1c-1.3-1.4-2-3.4-2-6
		c0-2.6,0.7-4.6,2-6c1.3-1.4,3.2-2.1,5.7-2.1c2.5,0,4.4,0.7,5.7,2.1S81.3,246,81.3,248.6z M70.5,248.6c0,3,1.1,4.6,3.2,4.6
		c1.1,0,1.9-0.4,2.4-1.1c0.5-0.7,0.8-1.9,0.8-3.4c0-1.6-0.3-2.7-0.8-3.5c-0.5-0.7-1.3-1.1-2.4-1.1C71.5,244,70.5,245.6,70.5,248.6z"
		/>
	<path fill="#333333" d="M98.6,240.8v9.5c0,2.1-0.6,3.6-1.7,4.8c-1.2,1.1-2.8,1.7-5,1.7c-2.1,0-3.8-0.5-4.9-1.6s-1.7-2.7-1.7-4.7
		v-9.5h4.3v9.2c0,1.1,0.2,1.9,0.6,2.4s1,0.8,1.8,0.8c0.9,0,1.5-0.2,1.9-0.7c0.4-0.5,0.6-1.3,0.6-2.4v-9.2H98.6z"/>
	<path fill="#333333" d="M103,240.8h5.5c2.1,0,3.7,0.3,4.8,1c1,0.6,1.6,1.6,1.6,3c0,0.9-0.2,1.6-0.7,2.3s-1,1-1.8,1.2v0.1
		c1,0.3,1.7,0.7,2.1,1.3s0.7,1.4,0.7,2.3c0,1.4-0.5,2.5-1.6,3.4c-1.1,0.8-2.5,1.2-4.4,1.2H103V240.8z M107.2,246.8h1.3
		c0.6,0,1.1-0.1,1.4-0.4s0.5-0.6,0.5-1.1c0-0.9-0.7-1.3-2-1.3h-1.2V246.8z M107.2,249.9v3.3h1.5c1.3,0,2-0.6,2-1.7
		c0-0.5-0.2-0.9-0.5-1.2s-0.9-0.4-1.5-0.4H107.2z"/>
	<path fill="#333333" d="M118.9,256.5v-15.7h4.2v12.3h6v3.4H118.9z"/>
	<path fill="#333333" d="M142.1,256.5h-9.3v-15.7h9.3v3.4H137v2.5h4.7v3.4H137v3h5.1V256.5z"/>
	<path fill="#333333" d="M156.2,251.7c0,1-0.2,1.8-0.7,2.6c-0.5,0.8-1.2,1.3-2.1,1.8c-0.9,0.4-2,0.6-3.3,0.6c-1,0-1.9-0.1-2.6-0.2
		c-0.7-0.1-1.4-0.4-2.2-0.8V252c0.8,0.4,1.7,0.7,2.5,1c0.9,0.2,1.7,0.3,2.4,0.3c0.6,0,1.1-0.1,1.4-0.3c0.3-0.2,0.4-0.5,0.4-0.8
		c0-0.2-0.1-0.4-0.2-0.6c-0.1-0.2-0.3-0.3-0.6-0.5c-0.3-0.2-1-0.5-2.1-1c-1-0.5-1.8-0.9-2.3-1.4c-0.5-0.4-0.9-0.9-1.1-1.5
		s-0.4-1.2-0.4-2c0-1.4,0.5-2.6,1.6-3.4s2.5-1.2,4.3-1.2c1.6,0,3.3,0.4,5,1.1l-1.3,3.3c-1.5-0.7-2.7-1-3.8-1c-0.6,0-1,0.1-1.2,0.3
		s-0.4,0.4-0.4,0.7c0,0.3,0.2,0.6,0.5,0.8c0.3,0.2,1.2,0.7,2.6,1.3c1.4,0.6,2.3,1.3,2.8,2C156,249.8,156.2,250.7,156.2,251.7z"/>
	<path fill="#333333" d="M174.5,248.6c0,2.6-0.6,4.7-1.9,6s-3.2,2.1-5.7,2.1c-2.5,0-4.4-0.7-5.7-2.1c-1.3-1.4-2-3.4-2-6
		c0-2.6,0.7-4.6,2-6c1.3-1.4,3.2-2.1,5.7-2.1c2.5,0,4.4,0.7,5.7,2.1S174.5,246,174.5,248.6z M163.6,248.6c0,3,1.1,4.6,3.2,4.6
		c1.1,0,1.9-0.4,2.4-1.1c0.5-0.7,0.8-1.9,0.8-3.4c0-1.6-0.3-2.7-0.8-3.5c-0.5-0.7-1.3-1.1-2.4-1.1
		C164.7,244,163.6,245.6,163.6,248.6z"/>
	<path fill="#333333" d="M185.2,256.5l-3.2-11.3h-0.1c0.2,1.9,0.2,3.4,0.2,4.5v6.8h-3.8v-15.7h5.7l3.3,11.2h0.1l3.2-11.2h5.7v15.7
		h-3.9v-6.9c0-0.4,0-0.8,0-1.2s0.1-1.5,0.1-3.2h-0.1l-3.2,11.3H185.2z"/>
	<path fill="#333333" d="M210.1,256.5h-9.3v-15.7h9.3v3.4H205v2.5h4.7v3.4H205v3h5.1V256.5z"/>
	<path fill="#333333" d="M235.7,256.5h-5.6l-5.7-11.1h-0.1c0.1,1.7,0.2,3.1,0.2,4v7.1h-3.8v-15.7h5.5l5.7,10.9h0.1
		c-0.1-1.6-0.2-2.9-0.2-3.8v-7.1h3.8V256.5z"/>
	<path fill="#333333" d="M249.8,256.5l-0.8-2.9H244l-0.8,2.9h-4.7l5.1-15.8h5.7l5.2,15.8H249.8z M248.2,250.1l-0.7-2.6
		c-0.2-0.6-0.3-1.3-0.6-2.2s-0.4-1.6-0.4-2c-0.1,0.4-0.2,1-0.4,1.8c-0.2,0.8-0.6,2.5-1.3,5H248.2z"/>
	<path fill="#333333" d="M264.2,256.5H260v-12.2h-3.8v-3.5H268v3.5h-3.8V256.5z"/>
	<path fill="#333333" d="M286.1,248.6c0,2.6-0.6,4.7-1.9,6s-3.2,2.1-5.7,2.1c-2.5,0-4.4-0.7-5.7-2.1c-1.3-1.4-2-3.4-2-6
		c0-2.6,0.7-4.6,2-6c1.3-1.4,3.2-2.1,5.7-2.1c2.5,0,4.4,0.7,5.7,2.1S286.1,246,286.1,248.6z M275.3,248.6c0,3,1.1,4.6,3.2,4.6
		c1.1,0,1.9-0.4,2.4-1.1c0.5-0.7,0.8-1.9,0.8-3.4c0-1.6-0.3-2.7-0.8-3.5c-0.5-0.7-1.3-1.1-2.4-1.1
		C276.3,244,275.3,245.6,275.3,248.6z"/>
	<path fill="#333333" d="M306.5,256.5l-0.8-2.9h-5.1l-0.8,2.9h-4.7l5.1-15.8h5.7l5.2,15.8H306.5z M304.8,250.1l-0.7-2.6
		c-0.2-0.6-0.3-1.3-0.6-2.2s-0.4-1.6-0.4-2c-0.1,0.4-0.2,1-0.4,1.8c-0.2,0.8-0.6,2.5-1.3,5H304.8z"/>
	<path fill="#333333" d="M313.9,256.5v-15.7h4.2v12.3h6v3.4H313.9z"/>
	<path fill="#333333" d="M327.8,256.5v-15.7h4.2v12.3h6v3.4H327.8z"/>
	<path fill="#333333" d="M347.3,246.6l2.7-5.8h4.6l-5.2,9.6v6.1h-4.3v-6l-5.2-9.7h4.6L347.3,246.6z"/>
</g>
<g>
	<path fill="#4D4D4D" d="M45.3,290.6h4.7l-5.1,15.7h-5l-5.1-15.7h4.8l2.1,8c0.4,1.8,0.7,3,0.7,3.7c0-0.5,0.2-1.1,0.3-1.9
		s0.3-1.3,0.4-1.8L45.3,290.6z"/>
	<path fill="#4D4D4D" d="M62.5,306.3l-0.8-2.9h-5.1l-0.8,2.9h-4.7l5.1-15.8h5.7l5.2,15.8H62.5z M60.8,299.9l-0.7-2.6
		c-0.2-0.6-0.3-1.3-0.6-2.2s-0.4-1.6-0.4-2c-0.1,0.4-0.2,1-0.4,1.8c-0.2,0.8-0.6,2.5-1.3,5H60.8z"/>
	<path fill="#4D4D4D" d="M74.2,300.6v5.7h-4.2v-15.7h5.1c4.3,0,6.4,1.5,6.4,4.6c0,1.8-0.9,3.2-2.7,4.2l4.6,6.8h-4.8l-3.3-5.7H74.2z
		 M74.2,297.4H75c1.5,0,2.2-0.7,2.2-2c0-1.1-0.7-1.6-2.2-1.6h-0.8V297.4z"/>
	<path fill="#4D4D4D" d="M85.9,306.3v-15.7h4.3v15.7H85.9z"/>
	<path fill="#4D4D4D" d="M109.4,298.4c0,2.6-0.6,4.7-1.9,6s-3.2,2.1-5.7,2.1c-2.5,0-4.4-0.7-5.7-2.1c-1.3-1.4-2-3.4-2-6
		c0-2.6,0.7-4.6,2-6c1.3-1.4,3.2-2.1,5.7-2.1c2.5,0,4.4,0.7,5.7,2.1S109.4,295.8,109.4,298.4z M98.6,298.4c0,3,1.1,4.6,3.2,4.6
		c1.1,0,1.9-0.4,2.4-1.1c0.5-0.7,0.8-1.9,0.8-3.4c0-1.6-0.3-2.7-0.8-3.5c-0.5-0.7-1.3-1.1-2.4-1.1C99.6,293.8,98.6,295.4,98.6,298.4
		z"/>
	<path fill="#4D4D4D" d="M126.7,290.6v9.5c0,2.1-0.6,3.6-1.7,4.8c-1.2,1.1-2.8,1.7-5,1.7c-2.1,0-3.8-0.5-4.9-1.6s-1.7-2.7-1.7-4.7
		v-9.5h4.3v9.2c0,1.1,0.2,1.9,0.6,2.4s1,0.8,1.8,0.8c0.9,0,1.5-0.2,1.9-0.7c0.4-0.5,0.6-1.3,0.6-2.4v-9.2H126.7z"/>
	<path fill="#4D4D4D" d="M141.3,301.5c0,1-0.2,1.8-0.7,2.6c-0.5,0.8-1.2,1.3-2.1,1.8c-0.9,0.4-2,0.6-3.3,0.6c-1,0-1.9-0.1-2.6-0.2
		c-0.7-0.1-1.4-0.4-2.2-0.8v-3.8c0.8,0.4,1.7,0.7,2.5,1c0.9,0.2,1.7,0.3,2.4,0.3c0.6,0,1.1-0.1,1.4-0.3c0.3-0.2,0.4-0.5,0.4-0.8
		c0-0.2-0.1-0.4-0.2-0.6c-0.1-0.2-0.3-0.3-0.6-0.5c-0.3-0.2-1-0.5-2.1-1c-1-0.5-1.8-0.9-2.3-1.4c-0.5-0.4-0.9-0.9-1.1-1.5
		s-0.4-1.2-0.4-2c0-1.4,0.5-2.6,1.6-3.4s2.5-1.2,4.3-1.2c1.6,0,3.3,0.4,5,1.1l-1.3,3.3c-1.5-0.7-2.7-1-3.8-1c-0.6,0-1,0.1-1.2,0.3
		s-0.4,0.4-0.4,0.7c0,0.3,0.2,0.6,0.5,0.8c0.3,0.2,1.2,0.7,2.6,1.3c1.4,0.6,2.3,1.3,2.8,2C141.1,299.6,141.3,300.5,141.3,301.5z"/>
	<path fill="#4D4D4D" d="M165.1,306.3h-4.8l-3.1-6l-1.3,0.8v5.3h-4.3v-15.7h4.3v6.8c0.2-0.4,0.6-1.1,1.3-2l3.3-4.8h4.6l-5,7
		L165.1,306.3z"/>
	<path fill="#4D4D4D" d="M181.2,290.6v9.5c0,2.1-0.6,3.6-1.7,4.8c-1.2,1.1-2.8,1.7-5,1.7c-2.1,0-3.8-0.5-4.9-1.6s-1.7-2.7-1.7-4.7
		v-9.5h4.3v9.2c0,1.1,0.2,1.9,0.6,2.4s1,0.8,1.8,0.8c0.9,0,1.5-0.2,1.9-0.7c0.4-0.5,0.6-1.3,0.6-2.4v-9.2H181.2z"/>
	<path fill="#4D4D4D" d="M189.9,300.6v5.7h-4.2v-15.7h5.1c4.3,0,6.4,1.5,6.4,4.6c0,1.8-0.9,3.2-2.7,4.2l4.6,6.8h-4.8l-3.3-5.7H189.9
		z M189.9,297.4h0.8c1.5,0,2.2-0.7,2.2-2c0-1.1-0.7-1.6-2.2-1.6h-0.8V297.4z"/>
	<path fill="#4D4D4D" d="M215,298.1c0,2.6-0.7,4.6-2.2,6.1c-1.4,1.4-3.5,2.1-6.1,2.1h-5.1v-15.7h5.4c2.5,0,4.5,0.6,5.8,1.9
		C214.3,293.8,215,295.7,215,298.1z M210.6,298.3c0-1.4-0.3-2.5-0.9-3.2s-1.4-1-2.6-1h-1.2v8.8h0.9c1.3,0,2.2-0.4,2.8-1.1
		C210.2,300.9,210.6,299.8,210.6,298.3z"/>
	<path fill="#4D4D4D" d="M218.9,306.3v-15.7h4.3v15.7H218.9z"/>
	<path fill="#4D4D4D" d="M237.9,301.5c0,1-0.2,1.8-0.7,2.6c-0.5,0.8-1.2,1.3-2.1,1.8c-0.9,0.4-2,0.6-3.3,0.6c-1,0-1.9-0.1-2.6-0.2
		c-0.7-0.1-1.4-0.4-2.2-0.8v-3.8c0.8,0.4,1.7,0.7,2.5,1c0.9,0.2,1.7,0.3,2.4,0.3c0.6,0,1.1-0.1,1.4-0.3c0.3-0.2,0.4-0.5,0.4-0.8
		c0-0.2-0.1-0.4-0.2-0.6c-0.1-0.2-0.3-0.3-0.6-0.5c-0.3-0.2-1-0.5-2.1-1c-1-0.5-1.8-0.9-2.3-1.4c-0.5-0.4-0.9-0.9-1.1-1.5
		s-0.4-1.2-0.4-2c0-1.4,0.5-2.6,1.6-3.4s2.5-1.2,4.3-1.2c1.6,0,3.3,0.4,5,1.1l-1.3,3.3c-1.5-0.7-2.7-1-3.8-1c-0.6,0-1,0.1-1.2,0.3
		s-0.4,0.4-0.4,0.7c0,0.3,0.2,0.6,0.5,0.8c0.3,0.2,1.2,0.7,2.6,1.3c1.4,0.6,2.3,1.3,2.8,2C237.6,299.6,237.9,300.5,237.9,301.5z"/>
	<path fill="#4D4D4D" d="M254.9,306.3h-4.3v-6.4h-4.9v6.4h-4.3v-15.7h4.3v5.8h4.9v-5.8h4.3V306.3z"/>
	<path fill="#4D4D4D" d="M272.5,297.1h6.8v8.5c-1.8,0.6-3.9,0.9-6.1,0.9c-2.4,0-4.3-0.7-5.6-2.1s-2-3.4-2-6c0-2.5,0.7-4.5,2.2-5.9
		s3.5-2.1,6.1-2.1c1,0,1.9,0.1,2.8,0.3c0.9,0.2,1.6,0.4,2.3,0.7l-1.3,3.3c-1.1-0.6-2.4-0.8-3.7-0.8c-1.2,0-2.2,0.4-2.9,1.2
		c-0.7,0.8-1,2-1,3.5c0,1.5,0.3,2.6,0.9,3.4c0.6,0.8,1.5,1.2,2.6,1.2c0.6,0,1.2-0.1,1.7-0.2v-2.5h-2.8V297.1z"/>
	<path fill="#4D4D4D" d="M287.8,300.6v5.7h-4.2v-15.7h5.1c4.3,0,6.4,1.5,6.4,4.6c0,1.8-0.9,3.2-2.7,4.2l4.6,6.8h-4.8l-3.3-5.7H287.8
		z M287.8,297.4h0.8c1.5,0,2.2-0.7,2.2-2c0-1.1-0.7-1.6-2.2-1.6h-0.8V297.4z"/>
	<path fill="#4D4D4D" d="M314.3,298.4c0,2.6-0.6,4.7-1.9,6s-3.2,2.1-5.7,2.1c-2.5,0-4.4-0.7-5.7-2.1c-1.3-1.4-2-3.4-2-6
		c0-2.6,0.7-4.6,2-6c1.3-1.4,3.2-2.1,5.7-2.1c2.5,0,4.4,0.7,5.7,2.1S314.3,295.8,314.3,298.4z M303.5,298.4c0,3,1.1,4.6,3.2,4.6
		c1.1,0,1.9-0.4,2.4-1.1c0.5-0.7,0.8-1.9,0.8-3.4c0-1.6-0.3-2.7-0.8-3.5c-0.5-0.7-1.3-1.1-2.4-1.1
		C304.5,293.8,303.5,295.4,303.5,298.4z"/>
	<path fill="#4D4D4D" d="M331.6,290.6v9.5c0,2.1-0.6,3.6-1.7,4.8c-1.2,1.1-2.8,1.7-5,1.7c-2.1,0-3.8-0.5-4.9-1.6s-1.7-2.7-1.7-4.7
		v-9.5h4.3v9.2c0,1.1,0.2,1.9,0.6,2.4s1,0.8,1.8,0.8c0.9,0,1.5-0.2,1.9-0.7c0.4-0.5,0.6-1.3,0.6-2.4v-9.2H331.6z"/>
	<path fill="#4D4D4D" d="M347.3,295.6c0,1.8-0.5,3.1-1.6,4.1c-1,1-2.5,1.4-4.4,1.4h-1.2v5.2H336v-15.7h5.4c2,0,3.5,0.4,4.5,1.3
		S347.3,294,347.3,295.6z M340.2,297.6h0.8c0.6,0,1.1-0.2,1.5-0.5s0.6-0.9,0.6-1.5c0-1.1-0.6-1.6-1.8-1.6h-1.1V297.6z"/>
	<path fill="#4D4D4D" d="M361.2,301.5c0,1-0.2,1.8-0.7,2.6c-0.5,0.8-1.2,1.3-2.1,1.8c-0.9,0.4-2,0.6-3.3,0.6c-1,0-1.9-0.1-2.6-0.2
		c-0.7-0.1-1.4-0.4-2.2-0.8v-3.8c0.8,0.4,1.7,0.7,2.5,1c0.9,0.2,1.7,0.3,2.4,0.3c0.6,0,1.1-0.1,1.4-0.3c0.3-0.2,0.4-0.5,0.4-0.8
		c0-0.2-0.1-0.4-0.2-0.6c-0.1-0.2-0.3-0.3-0.6-0.5c-0.3-0.2-1-0.5-2.1-1c-1-0.5-1.8-0.9-2.3-1.4c-0.5-0.4-0.9-0.9-1.1-1.5
		s-0.4-1.2-0.4-2c0-1.4,0.5-2.6,1.6-3.4s2.5-1.2,4.3-1.2c1.6,0,3.3,0.4,5,1.1l-1.3,3.3c-1.5-0.7-2.7-1-3.8-1c-0.6,0-1,0.1-1.2,0.3
		s-0.4,0.4-0.4,0.7c0,0.3,0.2,0.6,0.5,0.8c0.3,0.2,1.2,0.7,2.6,1.3c1.4,0.6,2.3,1.3,2.8,2C361,299.6,361.2,300.5,361.2,301.5z"/>
</g>
<g>
	<path fill="#666666" d="M53.5,358.6h-5l-1.5-6.8c-0.1-0.3-0.2-0.9-0.3-1.7c-0.2-0.9-0.3-1.6-0.3-2.1c-0.1,0.5-0.2,1-0.3,1.7
		c-0.1,0.7-0.3,1.3-0.4,1.9c-0.1,0.6-0.6,2.9-1.6,7h-5l-3.9-15.7h4.1l1.7,7.9c0.4,1.7,0.7,3.1,0.8,4.2c0.1-0.7,0.3-1.7,0.5-3
		c0.2-1.3,0.5-2.3,0.7-3.1l1.4-5.9h3.9l1.3,5.9c0.2,1,0.5,2.1,0.7,3.3s0.4,2.2,0.5,2.8c0.1-0.8,0.3-2.2,0.8-4.1l1.7-7.9h4.1
		L53.5,358.6z"/>
	<path fill="#666666" d="M75.1,350.7c0,2.6-0.6,4.7-1.9,6s-3.2,2.1-5.7,2.1c-2.5,0-4.4-0.7-5.7-2.1c-1.3-1.4-2-3.4-2-6
		c0-2.6,0.7-4.6,2-6c1.3-1.4,3.2-2.1,5.7-2.1c2.5,0,4.4,0.7,5.7,2.1S75.1,348.1,75.1,350.7z M64.3,350.7c0,3,1.1,4.6,3.2,4.6
		c1.1,0,1.9-0.4,2.4-1.1c0.5-0.7,0.8-1.9,0.8-3.4c0-1.6-0.3-2.7-0.8-3.5c-0.5-0.7-1.3-1.1-2.4-1.1C65.4,346.1,64.3,347.6,64.3,350.7
		z"/>
	<path fill="#666666" d="M83.3,352.9v5.7h-4.2v-15.7h5.1c4.3,0,6.4,1.5,6.4,4.6c0,1.8-0.9,3.2-2.7,4.2l4.6,6.8h-4.8l-3.3-5.7H83.3z
		 M83.3,349.7h0.8c1.5,0,2.2-0.7,2.2-2c0-1.1-0.7-1.6-2.2-1.6h-0.8V349.7z"/>
	<path fill="#666666" d="M108.5,358.6h-4.8l-3.1-6l-1.3,0.8v5.3h-4.3v-15.7h4.3v6.8c0.2-0.4,0.6-1.1,1.3-2l3.3-4.8h4.6l-5,7
		L108.5,358.6z"/>
	<path fill="#666666" d="M120.6,358.6h-9.3v-15.7h9.3v3.4h-5.1v2.5h4.7v3.4h-4.7v3h5.1V358.6z"/>
	<path fill="#666666" d="M128.7,352.9v5.7h-4.2v-15.7h5.1c4.3,0,6.4,1.5,6.4,4.6c0,1.8-0.9,3.2-2.7,4.2l4.6,6.8h-4.8l-3.3-5.7H128.7
		z M128.7,349.7h0.8c1.5,0,2.2-0.7,2.2-2c0-1.1-0.7-1.6-2.2-1.6h-0.8V349.7z"/>
	<path fill="#666666" d="M139.1,349.2l-0.2-0.2c0.7-2.8,1.3-4.8,1.9-6h3c-0.5,2.2-0.8,4.3-1.1,6.3H139.1z"/>
	<path fill="#666666" d="M157.3,353.8c0,1-0.2,1.8-0.7,2.6c-0.5,0.8-1.2,1.3-2.1,1.8c-0.9,0.4-2,0.6-3.3,0.6c-1,0-1.9-0.1-2.6-0.2
		c-0.7-0.1-1.4-0.4-2.2-0.8V354c0.8,0.4,1.7,0.7,2.5,1c0.9,0.2,1.7,0.3,2.4,0.3c0.6,0,1.1-0.1,1.4-0.3c0.3-0.2,0.4-0.5,0.4-0.8
		c0-0.2-0.1-0.4-0.2-0.6c-0.1-0.2-0.3-0.3-0.6-0.5c-0.3-0.2-1-0.5-2.1-1c-1-0.5-1.8-0.9-2.3-1.4c-0.5-0.4-0.9-0.9-1.1-1.5
		s-0.4-1.2-0.4-2c0-1.4,0.5-2.6,1.6-3.4s2.5-1.2,4.3-1.2c1.6,0,3.3,0.4,5,1.1l-1.3,3.3c-1.5-0.7-2.7-1-3.8-1c-0.6,0-1,0.1-1.2,0.3
		s-0.4,0.4-0.4,0.7c0,0.3,0.2,0.6,0.5,0.8c0.3,0.2,1.2,0.7,2.6,1.3c1.4,0.6,2.3,1.3,2.8,2C157.1,351.9,157.3,352.8,157.3,353.8z"/>
	<path fill="#666666" d="M179.1,347.9c0,1.8-0.5,3.1-1.6,4.1c-1,1-2.5,1.4-4.4,1.4h-1.2v5.2h-4.2v-15.7h5.4c2,0,3.5,0.4,4.5,1.3
		S179.1,346.3,179.1,347.9z M171.9,349.9h0.8c0.6,0,1.1-0.2,1.5-0.5s0.6-0.9,0.6-1.5c0-1.1-0.6-1.6-1.8-1.6h-1.1V349.9z"/>
	<path fill="#666666" d="M192.3,358.6l-0.8-2.9h-5.1l-0.8,2.9H181l5.1-15.8h5.7l5.2,15.8H192.3z M190.6,352.2l-0.7-2.6
		c-0.2-0.6-0.3-1.3-0.6-2.2s-0.4-1.6-0.4-2c-0.1,0.4-0.2,1-0.4,1.8c-0.2,0.8-0.6,2.5-1.3,5H190.6z"/>
	<path fill="#666666" d="M204,352.9v5.7h-4.2v-15.7h5.1c4.3,0,6.4,1.5,6.4,4.6c0,1.8-0.9,3.2-2.7,4.2l4.6,6.8h-4.8l-3.3-5.7H204z
		 M204,349.7h0.8c1.5,0,2.2-0.7,2.2-2c0-1.1-0.7-1.6-2.2-1.6H204V349.7z"/>
	<path fill="#666666" d="M222.7,358.6h-4.2v-12.2h-3.8v-3.5h11.9v3.5h-3.8V358.6z"/>
	<path fill="#666666" d="M235.4,348.7l2.7-5.8h4.6l-5.2,9.6v6.1h-4.3v-6l-5.2-9.7h4.6L235.4,348.7z"/>
	<path fill="#666666" d="M251.4,352.3c0-2.1,0.3-3.9,0.8-5.6s1.3-3.1,2.2-4.3h3.5c-0.9,1.3-1.6,2.7-2.1,4.4s-0.7,3.5-0.7,5.4
		c0,1.9,0.2,3.6,0.7,5.3c0.5,1.7,1.2,3.2,2.1,4.4h-3.5c-1-1.1-1.7-2.5-2.2-4.2C251.7,356.2,251.4,354.4,251.4,352.3z"/>
	<path fill="#666666" d="M276,350.7c0,2.6-0.6,4.7-1.9,6s-3.2,2.1-5.7,2.1c-2.5,0-4.4-0.7-5.7-2.1c-1.3-1.4-2-3.4-2-6
		c0-2.6,0.7-4.6,2-6c1.3-1.4,3.2-2.1,5.7-2.1c2.5,0,4.4,0.7,5.7,2.1S276,348.1,276,350.7z M265.2,350.7c0,3,1.1,4.6,3.2,4.6
		c1.1,0,1.9-0.4,2.4-1.1c0.5-0.7,0.8-1.9,0.8-3.4c0-1.6-0.3-2.7-0.8-3.5c-0.5-0.7-1.3-1.1-2.4-1.1
		C266.3,346.1,265.2,347.6,265.2,350.7z"/>
	<path fill="#666666" d="M284.2,352.9v5.7H280v-15.7h5.1c4.3,0,6.4,1.5,6.4,4.6c0,1.8-0.9,3.2-2.7,4.2l4.6,6.8h-4.8l-3.3-5.7H284.2z
		 M284.2,349.7h0.8c1.5,0,2.2-0.7,2.2-2c0-1.1-0.7-1.6-2.2-1.6h-0.8V349.7z"/>
	<path fill="#666666" d="M314.2,347.9c0,1.8-0.5,3.1-1.6,4.1c-1,1-2.5,1.4-4.4,1.4H307v5.2h-4.2v-15.7h5.4c2,0,3.5,0.4,4.5,1.3
		S314.2,346.3,314.2,347.9z M307,349.9h0.8c0.6,0,1.1-0.2,1.5-0.5s0.6-0.9,0.6-1.5c0-1.1-0.6-1.6-1.8-1.6H307V349.9z"/>
	<path fill="#666666" d="M317,356.8c0-0.7,0.2-1.2,0.6-1.5c0.4-0.4,1-0.5,1.7-0.5c0.7,0,1.3,0.2,1.6,0.5s0.6,0.9,0.6,1.5
		c0,0.6-0.2,1.1-0.6,1.5c-0.4,0.4-0.9,0.5-1.6,0.5c-0.7,0-1.3-0.2-1.7-0.5S317,357.5,317,356.8z"/>
	<path fill="#666666" d="M338.7,358.6h-4.8l-3.1-6l-1.3,0.8v5.3h-4.3v-15.7h4.3v6.8c0.2-0.4,0.6-1.1,1.3-2l3.3-4.8h4.6l-5,7
		L338.7,358.6z"/>
	<path fill="#666666" d="M340.7,356.8c0-0.7,0.2-1.2,0.6-1.5c0.4-0.4,1-0.5,1.7-0.5c0.7,0,1.3,0.2,1.6,0.5s0.6,0.9,0.6,1.5
		c0,0.6-0.2,1.1-0.6,1.5c-0.4,0.4-0.9,0.5-1.6,0.5c-0.7,0-1.3-0.2-1.7-0.5S340.7,357.5,340.7,356.8z"/>
	<path fill="#666666" d="M362.3,358.6h-4.8l-3.1-6l-1.3,0.8v5.3h-4.3v-15.7h4.3v6.8c0.2-0.4,0.6-1.1,1.3-2l3.3-4.8h4.6l-5,7
		L362.3,358.6z"/>
	<path fill="#666666" d="M364.3,356.8c0-0.7,0.2-1.2,0.6-1.5c0.4-0.4,1-0.5,1.7-0.5c0.7,0,1.3,0.2,1.6,0.5s0.6,0.9,0.6,1.5
		c0,0.6-0.2,1.1-0.6,1.5c-0.4,0.4-0.9,0.5-1.6,0.5c-0.7,0-1.3-0.2-1.7-0.5S364.3,357.5,364.3,356.8z"/>
	<path fill="#666666" d="M379.4,358.6v-15.7h4.3v15.7H379.4z"/>
	<path fill="#666666" d="M403.1,358.6h-5.6l-5.7-11.1h-0.1c0.1,1.7,0.2,3.1,0.2,4v7.1h-3.8v-15.7h5.5l5.7,10.9h0.1
		c-0.1-1.6-0.2-2.9-0.2-3.8v-7.1h3.8V358.6z"/>
	<path fill="#666666" d="M417.9,353.8c0,1-0.2,1.8-0.7,2.6c-0.5,0.8-1.2,1.3-2.1,1.8c-0.9,0.4-2,0.6-3.3,0.6c-1,0-1.9-0.1-2.6-0.2
		c-0.7-0.1-1.4-0.4-2.2-0.8V354c0.8,0.4,1.7,0.7,2.5,1c0.9,0.2,1.7,0.3,2.4,0.3c0.6,0,1.1-0.1,1.4-0.3c0.3-0.2,0.4-0.5,0.4-0.8
		c0-0.2-0.1-0.4-0.2-0.6c-0.1-0.2-0.3-0.3-0.6-0.5c-0.3-0.2-1-0.5-2.1-1c-1-0.5-1.8-0.9-2.3-1.4c-0.5-0.4-0.9-0.9-1.1-1.5
		s-0.4-1.2-0.4-2c0-1.4,0.5-2.6,1.6-3.4s2.5-1.2,4.3-1.2c1.6,0,3.3,0.4,5,1.1l-1.3,3.3c-1.5-0.7-2.7-1-3.8-1c-0.6,0-1,0.1-1.2,0.3
		s-0.4,0.4-0.4,0.7c0,0.3,0.2,0.6,0.5,0.8c0.3,0.2,1.2,0.7,2.6,1.3c1.4,0.6,2.3,1.3,2.8,2C417.6,351.9,417.9,352.8,417.9,353.8z"/>
	<path fill="#666666" d="M421.4,358.6v-15.7h4.3v15.7H421.4z"/>
	<path fill="#666666" d="M443.5,350.4c0,2.6-0.7,4.6-2.2,6.1c-1.4,1.4-3.5,2.1-6.1,2.1h-5.1v-15.7h5.4c2.5,0,4.5,0.6,5.8,1.9
		C442.8,346.1,443.5,348,443.5,350.4z M439.1,350.5c0-1.4-0.3-2.5-0.9-3.2s-1.4-1-2.6-1h-1.2v8.8h0.9c1.3,0,2.2-0.4,2.8-1.1
		C438.8,353.2,439.1,352.1,439.1,350.5z"/>
	<path fill="#666666" d="M456.7,358.6h-9.3v-15.7h9.3v3.4h-5.1v2.5h4.7v3.4h-4.7v3h5.1V358.6z"/>
	<path fill="#666666" d="M43.4,384.6h-4.2v-12.2h-3.8v-3.5h11.9v3.5h-3.8V384.6z"/>
	<path fill="#666666" d="M63.9,368.9v9.5c0,2.1-0.6,3.6-1.7,4.8c-1.2,1.1-2.8,1.7-5,1.7c-2.1,0-3.8-0.5-4.9-1.6s-1.7-2.7-1.7-4.7
		v-9.5h4.3v9.2c0,1.1,0.2,1.9,0.6,2.4s1,0.8,1.8,0.8c0.9,0,1.5-0.2,1.9-0.7c0.4-0.5,0.6-1.3,0.6-2.4v-9.2H63.9z"/>
	<path fill="#666666" d="M72.6,378.9v5.7h-4.2v-15.7h5.1c4.3,0,6.4,1.5,6.4,4.6c0,1.8-0.9,3.2-2.7,4.2l4.6,6.8H77l-3.3-5.7H72.6z
		 M72.6,375.7h0.8c1.5,0,2.2-0.7,2.2-2c0-1.1-0.7-1.6-2.2-1.6h-0.8V375.7z"/>
	<path fill="#666666" d="M97.7,384.6H93l-3.1-6l-1.3,0.8v5.3h-4.3v-15.7h4.3v6.8c0.2-0.4,0.6-1.1,1.3-2l3.3-4.8h4.6l-5,7L97.7,384.6
		z"/>
	<path fill="#666666" d="M109.9,384.6h-9.3v-15.7h9.3v3.4h-5.1v2.5h4.7v3.4h-4.7v3h5.1V384.6z"/>
	<path fill="#666666" d="M119.3,374.7l2.7-5.8h4.6l-5.2,9.6v6.1h-4.3v-6l-5.2-9.7h4.6L119.3,374.7z"/>
	<path fill="#666666" d="M134.8,378.3c0,2-0.3,3.9-0.8,5.5c-0.5,1.7-1.3,3.1-2.2,4.2h-3.5c0.9-1.2,1.6-2.7,2.1-4.4
		c0.5-1.7,0.7-3.5,0.7-5.4c0-1.9-0.2-3.7-0.7-5.4c-0.5-1.7-1.2-3.2-2.1-4.5h3.5c1,1.2,1.7,2.6,2.3,4.3S134.8,376.3,134.8,378.3z"/>
</g>
<g>
	<path fill="#808080" d="M47.9,417.2c0,1.8-0.5,3.1-1.6,4.1c-1,1-2.5,1.4-4.4,1.4h-1.2v5.2h-4.2v-15.7h5.4c2,0,3.5,0.4,4.5,1.3
		S47.9,415.6,47.9,417.2z M40.7,419.3h0.8c0.6,0,1.1-0.2,1.5-0.5s0.6-0.9,0.6-1.5c0-1.1-0.6-1.6-1.8-1.6h-1.1V419.3z"/>
	<path fill="#808080" d="M60.8,427.9h-9.3v-15.7h9.3v3.4h-5.1v2.5h4.7v3.4h-4.7v3h5.1V427.9z"/>
	<path fill="#808080" d="M74.3,427.9l-0.8-2.9h-5.1l-0.8,2.9H63l5.1-15.8h5.7l5.2,15.8H74.3z M72.6,421.5l-0.7-2.6
		c-0.2-0.6-0.3-1.3-0.6-2.2s-0.4-1.6-0.4-2c-0.1,0.4-0.2,1-0.4,1.8c-0.2,0.8-0.6,2.5-1.3,5H72.6z"/>
	<path fill="#808080" d="M88.7,415.5c-1,0-1.8,0.4-2.4,1.2c-0.6,0.8-0.8,2-0.8,3.4c0,3,1.1,4.5,3.4,4.5c0.7,0,1.4-0.1,2-0.3
		s1.3-0.4,2-0.7v3.6c-1.3,0.6-2.8,0.9-4.4,0.9c-2.4,0-4.2-0.7-5.5-2.1c-1.3-1.4-1.9-3.4-1.9-6c0-1.6,0.3-3.1,0.9-4.3
		s1.5-2.2,2.6-2.8c1.1-0.7,2.5-1,4.1-1c1.7,0,3.3,0.4,4.9,1.1l-1.3,3.3c-0.6-0.3-1.2-0.5-1.7-0.7S89.4,415.5,88.7,415.5z"/>
	<path fill="#808080" d="M106.4,427.9h-9.3v-15.7h9.3v3.4h-5.1v2.5h4.7v3.4h-4.7v3h5.1V427.9z"/>
	<path fill="#808080" d="M124,427.9h-4.2v-12.2H116v-3.5h11.9v3.5H124V427.9z"/>
	<path fill="#808080" d="M140.8,427.9l-0.8-2.9H135l-0.8,2.9h-4.7l5.1-15.8h5.7l5.2,15.8H140.8z M139.2,421.5l-0.7-2.6
		c-0.2-0.6-0.3-1.3-0.6-2.2s-0.4-1.6-0.4-2c-0.1,0.4-0.2,1-0.4,1.8c-0.2,0.8-0.6,2.5-1.3,5H139.2z"/>
	<path fill="#808080" d="M148.3,427.9v-15.7h4.2v12.3h6v3.4H148.3z"/>
	<path fill="#808080" d="M175.6,427.9h-4.8l-3.1-6l-1.3,0.8v5.3h-4.3v-15.7h4.3v6.8c0.2-0.4,0.6-1.1,1.3-2l3.3-4.8h4.6l-5,7
		L175.6,427.9z"/>
	<path fill="#808080" d="M188.7,423.2c0,1-0.2,1.8-0.7,2.6c-0.5,0.8-1.2,1.3-2.1,1.8c-0.9,0.4-2,0.6-3.3,0.6c-1,0-1.9-0.1-2.6-0.2
		c-0.7-0.1-1.4-0.4-2.2-0.8v-3.8c0.8,0.4,1.7,0.7,2.5,1c0.9,0.2,1.7,0.3,2.4,0.3c0.6,0,1.1-0.1,1.4-0.3c0.3-0.2,0.4-0.5,0.4-0.8
		c0-0.2-0.1-0.4-0.2-0.6c-0.1-0.2-0.3-0.3-0.6-0.5c-0.3-0.2-1-0.5-2.1-1c-1-0.5-1.8-0.9-2.3-1.4c-0.5-0.4-0.9-0.9-1.1-1.5
		s-0.4-1.2-0.4-2c0-1.4,0.5-2.6,1.6-3.4s2.5-1.2,4.3-1.2c1.6,0,3.3,0.4,5,1.1l-1.3,3.3c-1.5-0.7-2.7-1-3.8-1c-0.6,0-1,0.1-1.2,0.3
		s-0.4,0.4-0.4,0.7c0,0.3,0.2,0.6,0.5,0.8c0.3,0.2,1.2,0.7,2.6,1.3c1.4,0.6,2.3,1.3,2.8,2C188.4,421.2,188.7,422.1,188.7,423.2z"/>
</g>
<g>
	<path fill="#999999" d="M51.4,476.3h-5.6l-5.7-11.1H40c0.1,1.7,0.2,3.1,0.2,4v7.1h-3.8v-15.7H42l5.7,10.9h0.1
		c-0.1-1.6-0.2-2.9-0.2-3.8v-7.1h3.8V476.3z"/>
	<path fill="#999999" d="M65.6,476.3l-0.8-2.9h-5.1l-0.8,2.9h-4.7l5.1-15.8H65l5.2,15.8H65.6z M63.9,469.9l-0.7-2.6
		c-0.2-0.6-0.3-1.3-0.6-2.2s-0.4-1.6-0.4-2c-0.1,0.4-0.2,1-0.4,1.8c-0.2,0.8-0.6,2.5-1.3,5H63.9z"/>
	<path fill="#999999" d="M83.3,471.5c0,1-0.2,1.8-0.7,2.6c-0.5,0.8-1.2,1.3-2.1,1.8c-0.9,0.4-2,0.6-3.3,0.6c-1,0-1.9-0.1-2.6-0.2
		c-0.7-0.1-1.4-0.4-2.2-0.8v-3.8c0.8,0.4,1.7,0.7,2.5,1c0.9,0.2,1.7,0.3,2.4,0.3c0.6,0,1.1-0.1,1.4-0.3c0.3-0.2,0.4-0.5,0.4-0.8
		c0-0.2-0.1-0.4-0.2-0.6c-0.1-0.2-0.3-0.3-0.6-0.5c-0.3-0.2-1-0.5-2.1-1c-1-0.5-1.8-0.9-2.3-1.4c-0.5-0.4-0.9-0.9-1.1-1.5
		s-0.4-1.2-0.4-2c0-1.4,0.5-2.6,1.6-3.4s2.5-1.2,4.3-1.2c1.6,0,3.3,0.4,5,1.1l-1.3,3.3c-1.5-0.7-2.7-1-3.8-1c-0.6,0-1,0.1-1.2,0.3
		s-0.4,0.4-0.4,0.7c0,0.3,0.2,0.6,0.5,0.8c0.3,0.2,1.2,0.7,2.6,1.3c1.4,0.6,2.3,1.3,2.8,2C83,469.6,83.3,470.5,83.3,471.5z"/>
	<path fill="#999999" d="M93.8,463.9c-1,0-1.8,0.4-2.4,1.2c-0.6,0.8-0.8,2-0.8,3.4c0,3,1.1,4.5,3.4,4.5c0.7,0,1.4-0.1,2-0.3
		s1.3-0.4,2-0.7v3.6c-1.3,0.6-2.8,0.9-4.4,0.9c-2.4,0-4.2-0.7-5.5-2.1c-1.3-1.4-1.9-3.4-1.9-6c0-1.6,0.3-3.1,0.9-4.3
		s1.5-2.2,2.6-2.8c1.1-0.7,2.5-1,4.1-1c1.7,0,3.3,0.4,4.9,1.1l-1.3,3.3c-0.6-0.3-1.2-0.5-1.7-0.7S94.5,463.9,93.8,463.9z"/>
	<path fill="#999999" d="M111.5,476.3h-9.3v-15.7h9.3v3.4h-5.1v2.5h4.7v3.4h-4.7v3h5.1V476.3z"/>
	<path fill="#999999" d="M130.3,476.3h-5.6l-5.7-11.1h-0.1c0.1,1.7,0.2,3.1,0.2,4v7.1h-3.8v-15.7h5.5l5.7,10.9h0.1
		c-0.1-1.6-0.2-2.9-0.2-3.8v-7.1h3.8V476.3z"/>
	<path fill="#999999" d="M141.7,476.3h-4.2v-12.2h-3.8v-3.5h11.9v3.5h-3.8V476.3z"/>
	<path fill="#999999" d="M167.1,465.6c0,1.8-0.5,3.1-1.6,4.1c-1,1-2.5,1.4-4.4,1.4H160v5.2h-4.2v-15.7h5.4c2,0,3.5,0.4,4.5,1.3
		S167.1,464,167.1,465.6z M160,467.6h0.8c0.6,0,1.1-0.2,1.5-0.5s0.6-0.9,0.6-1.5c0-1.1-0.6-1.6-1.8-1.6H160V467.6z"/>
	<path fill="#999999" d="M180,476.3h-9.3v-15.7h9.3v3.4H175v2.5h4.7v3.4H175v3h5.1V476.3z"/>
	<path fill="#999999" d="M193.5,476.3l-0.8-2.9h-5.1l-0.8,2.9h-4.7l5.1-15.8h5.7l5.2,15.8H193.5z M191.9,469.9l-0.7-2.6
		c-0.2-0.6-0.3-1.3-0.6-2.2s-0.4-1.6-0.4-2c-0.1,0.4-0.2,1-0.4,1.8c-0.2,0.8-0.6,2.5-1.3,5H191.9z"/>
	<path fill="#999999" d="M208,463.9c-1,0-1.8,0.4-2.4,1.2c-0.6,0.8-0.8,2-0.8,3.4c0,3,1.1,4.5,3.4,4.5c0.7,0,1.4-0.1,2-0.3
		s1.3-0.4,2-0.7v3.6c-1.3,0.6-2.8,0.9-4.4,0.9c-2.4,0-4.2-0.7-5.5-2.1c-1.3-1.4-1.9-3.4-1.9-6c0-1.6,0.3-3.1,0.9-4.3
		s1.5-2.2,2.6-2.8c1.1-0.7,2.5-1,4.1-1c1.7,0,3.3,0.4,4.9,1.1l-1.3,3.3c-0.6-0.3-1.2-0.5-1.7-0.7S208.6,463.9,208,463.9z"/>
	<path fill="#999999" d="M225.7,476.3h-9.3v-15.7h9.3v3.4h-5.1v2.5h4.7v3.4h-4.7v3h5.1V476.3z"/>
	<path fill="#999999" d="M243.3,476.3H239v-12.2h-3.8v-3.5h11.9v3.5h-3.8V476.3z"/>
	<path fill="#999999" d="M260.1,476.3l-0.8-2.9h-5.1l-0.8,2.9h-4.7l5.1-15.8h5.7l5.2,15.8H260.1z M258.4,469.9l-0.7-2.6
		c-0.2-0.6-0.3-1.3-0.6-2.2s-0.4-1.6-0.4-2c-0.1,0.4-0.2,1-0.4,1.8c-0.2,0.8-0.6,2.5-1.3,5H258.4z"/>
	<path fill="#999999" d="M267.5,476.3v-15.7h4.2v12.3h6v3.4H267.5z"/>
	<path fill="#999999" d="M294.8,476.3H290l-3.1-6l-1.3,0.8v5.3h-4.3v-15.7h4.3v6.8c0.2-0.4,0.6-1.1,1.3-2l3.3-4.8h4.6l-5,7
		L294.8,476.3z"/>
	<path fill="#999999" d="M307.9,471.5c0,1-0.2,1.8-0.7,2.6c-0.5,0.8-1.2,1.3-2.1,1.8c-0.9,0.4-2,0.6-3.3,0.6c-1,0-1.9-0.1-2.6-0.2
		c-0.7-0.1-1.4-0.4-2.2-0.8v-3.8c0.8,0.4,1.7,0.7,2.5,1c0.9,0.2,1.7,0.3,2.4,0.3c0.6,0,1.1-0.1,1.4-0.3c0.3-0.2,0.4-0.5,0.4-0.8
		c0-0.2-0.1-0.4-0.2-0.6c-0.1-0.2-0.3-0.3-0.6-0.5c-0.3-0.2-1-0.5-2.1-1c-1-0.5-1.8-0.9-2.3-1.4c-0.5-0.4-0.9-0.9-1.1-1.5
		s-0.4-1.2-0.4-2c0-1.4,0.5-2.6,1.6-3.4s2.5-1.2,4.3-1.2c1.6,0,3.3,0.4,5,1.1l-1.3,3.3c-1.5-0.7-2.7-1-3.8-1c-0.6,0-1,0.1-1.2,0.3
		s-0.4,0.4-0.4,0.7c0,0.3,0.2,0.6,0.5,0.8c0.3,0.2,1.2,0.7,2.6,1.3c1.4,0.6,2.3,1.3,2.8,2C307.6,469.6,307.9,470.5,307.9,471.5z"/>
</g>
<g>
	<path fill="#B3B3B3" d="M43.3,525.5l-3.2-11.3H40c0.2,1.9,0.2,3.4,0.2,4.5v6.8h-3.8v-15.7h5.7l3.3,11.2h0.1l3.2-11.2h5.7v15.7h-3.9
		v-6.9c0-0.4,0-0.8,0-1.2s0.1-1.5,0.1-3.2h-0.1l-3.2,11.3H43.3z"/>
	<path fill="#B3B3B3" d="M63.1,519.8v5.7h-4.2v-15.7H64c4.3,0,6.4,1.5,6.4,4.6c0,1.8-0.9,3.2-2.7,4.2l4.6,6.8h-4.8l-3.3-5.7H63.1z
		 M63.1,516.6h0.8c1.5,0,2.2-0.7,2.2-2c0-1.1-0.7-1.6-2.2-1.6h-0.8V516.6z"/>
	<path fill="#B3B3B3" d="M74.1,523.7c0-0.7,0.2-1.2,0.6-1.5c0.4-0.4,1-0.5,1.7-0.5c0.7,0,1.3,0.2,1.6,0.5s0.6,0.9,0.6,1.5
		c0,0.6-0.2,1.1-0.6,1.5c-0.4,0.4-0.9,0.5-1.6,0.5c-0.7,0-1.3-0.2-1.7-0.5S74.1,524.3,74.1,523.7z"/>
	<path fill="#B3B3B3" d="M98.4,525.5h-9.3v-15.7h9.3v3.4h-5.1v2.5h4.7v3.4h-4.7v3h5.1V525.5z"/>
	<path fill="#B3B3B3" d="M106.5,519.8v5.7h-4.2v-15.7h5.1c4.3,0,6.4,1.5,6.4,4.6c0,1.8-0.9,3.2-2.7,4.2l4.6,6.8h-4.8l-3.3-5.7H106.5
		z M106.5,516.6h0.8c1.5,0,2.2-0.7,2.2-2c0-1.1-0.7-1.6-2.2-1.6h-0.8V516.6z"/>
	<path fill="#B3B3B3" d="M131.6,517.3c0,2.6-0.7,4.6-2.2,6.1c-1.4,1.4-3.5,2.1-6.1,2.1h-5.1v-15.7h5.4c2.5,0,4.5,0.6,5.8,1.9
		C130.9,513,131.6,514.9,131.6,517.3z M127.2,517.4c0-1.4-0.3-2.5-0.9-3.2s-1.4-1-2.6-1h-1.2v8.8h0.9c1.3,0,2.2-0.4,2.8-1.1
		C126.9,520.1,127.2,519,127.2,517.4z"/>
	<path fill="#B3B3B3" d="M150.2,517.6c0,2.6-0.6,4.7-1.9,6s-3.2,2.1-5.7,2.1c-2.5,0-4.4-0.7-5.7-2.1c-1.3-1.4-2-3.4-2-6
		c0-2.6,0.7-4.6,2-6c1.3-1.4,3.2-2.1,5.7-2.1c2.5,0,4.4,0.7,5.7,2.1S150.2,515,150.2,517.6z M139.4,517.6c0,3,1.1,4.6,3.2,4.6
		c1.1,0,1.9-0.4,2.4-1.1c0.5-0.7,0.8-1.9,0.8-3.4c0-1.6-0.3-2.7-0.8-3.5c-0.5-0.7-1.3-1.1-2.4-1.1
		C140.5,513,139.4,514.5,139.4,517.6z"/>
	<path fill="#B3B3B3" d="M160.5,516.3h6.8v8.5c-1.8,0.6-3.9,0.9-6.1,0.9c-2.4,0-4.3-0.7-5.6-2.1s-2-3.4-2-6c0-2.5,0.7-4.5,2.2-5.9
		s3.5-2.1,6.1-2.1c1,0,1.9,0.1,2.8,0.3c0.9,0.2,1.6,0.4,2.3,0.7l-1.3,3.3c-1.1-0.6-2.4-0.8-3.7-0.8c-1.2,0-2.2,0.4-2.9,1.2
		c-0.7,0.8-1,2-1,3.5c0,1.5,0.3,2.6,0.9,3.4c0.6,0.8,1.5,1.2,2.6,1.2c0.6,0,1.2-0.1,1.7-0.2v-2.5h-2.8V516.3z"/>
	<path fill="#B3B3B3" d="M181.2,525.5l-0.8-2.9h-5.1l-0.8,2.9h-4.7l5.1-15.8h5.7l5.2,15.8H181.2z M179.5,519.1l-0.7-2.6
		c-0.2-0.6-0.3-1.3-0.6-2.2s-0.4-1.6-0.4-2c-0.1,0.4-0.2,1-0.4,1.8c-0.2,0.8-0.6,2.5-1.3,5H179.5z"/>
	<path fill="#B3B3B3" d="M203.6,525.5H198l-5.7-11.1h-0.1c0.1,1.7,0.2,3.1,0.2,4v7.1h-3.8v-15.7h5.5l5.7,10.9h0.1
		c-0.1-1.6-0.2-2.9-0.2-3.8v-7.1h3.8V525.5z"/>
	<path fill="#B3B3B3" d="M221.2,516.3h6.8v8.5c-1.8,0.6-3.9,0.9-6.1,0.9c-2.4,0-4.3-0.7-5.6-2.1s-2-3.4-2-6c0-2.5,0.7-4.5,2.2-5.9
		s3.5-2.1,6.1-2.1c1,0,1.9,0.1,2.8,0.3c0.9,0.2,1.6,0.4,2.3,0.7l-1.3,3.3c-1.1-0.6-2.4-0.8-3.7-0.8c-1.2,0-2.2,0.4-2.9,1.2
		c-0.7,0.8-1,2-1,3.5c0,1.5,0.3,2.6,0.9,3.4c0.6,0.8,1.5,1.2,2.6,1.2c0.6,0,1.2-0.1,1.7-0.2v-2.5h-2.8V516.3z"/>
	<path fill="#B3B3B3" d="M241.9,525.5l-0.8-2.9H236l-0.8,2.9h-4.7l5.1-15.8h5.7l5.2,15.8H241.9z M240.3,519.1l-0.7-2.6
		c-0.2-0.6-0.3-1.3-0.6-2.2s-0.4-1.6-0.4-2c-0.1,0.4-0.2,1-0.4,1.8c-0.2,0.8-0.6,2.5-1.3,5H240.3z"/>
	<path fill="#B3B3B3" d="M249.3,525.5v-15.7h4.3v15.7H249.3z"/>
	<path fill="#B3B3B3" d="M273.1,525.5h-5.6l-5.7-11.1h-0.1c0.1,1.7,0.2,3.1,0.2,4v7.1h-3.8v-15.7h5.5l5.7,10.9h0.1
		c-0.1-1.6-0.2-2.9-0.2-3.8v-7.1h3.8V525.5z"/>
	<path fill="#B3B3B3" d="M287.8,520.7c0,1-0.2,1.8-0.7,2.6c-0.5,0.8-1.2,1.3-2.1,1.8c-0.9,0.4-2,0.6-3.3,0.6c-1,0-1.9-0.1-2.6-0.2
		c-0.7-0.1-1.4-0.4-2.2-0.8v-3.8c0.8,0.4,1.7,0.7,2.5,1c0.9,0.2,1.7,0.3,2.4,0.3c0.6,0,1.1-0.1,1.4-0.3c0.3-0.2,0.4-0.5,0.4-0.8
		c0-0.2-0.1-0.4-0.2-0.6c-0.1-0.2-0.3-0.3-0.6-0.5c-0.3-0.2-1-0.5-2.1-1c-1-0.5-1.8-0.9-2.3-1.4c-0.5-0.4-0.9-0.9-1.1-1.5
		s-0.4-1.2-0.4-2c0-1.4,0.5-2.6,1.6-3.4s2.5-1.2,4.3-1.2c1.6,0,3.3,0.4,5,1.1l-1.3,3.3c-1.5-0.7-2.7-1-3.8-1c-0.6,0-1,0.1-1.2,0.3
		s-0.4,0.4-0.4,0.7c0,0.3,0.2,0.6,0.5,0.8c0.3,0.2,1.2,0.7,2.6,1.3c1.4,0.6,2.3,1.3,2.8,2C287.6,518.8,287.8,519.7,287.8,520.7z"/>
</g>
<g>
	<g>
		<g>
			<rect y="145" fill="#CCCCCC" width="1" height="10"/>
		</g>
	</g>
	<g>
		<g>
			<path fill="#CCCCCC" d="M499,155h-1v-10h1V155z M496,155h-1v-10h1V155z M493,155h-1v-10h1V155z M490,155h-1v-10h1V155z M487,155
				h-1v-10h1V155z M484,155h-1v-10h1V155z M481,155h-1v-10h1V155z M478,155h-1v-10h1V155z M475,155h-1v-10h1V155z M472,155h-1v-10h1
				V155z M469,155h-1v-10h1V155z M466,155h-1v-10h1V155z M463,155h-1v-10h1V155z M460,155h-1v-10h1V155z M457,155h-1v-10h1V155z
				 M454,155h-1v-10h1V155z M451,155h-1v-10h1V155z M448,155h-1v-10h1V155z M445,155h-1v-10h1V155z M442,155h-1v-10h1V155z M439,155
				h-1v-10h1V155z M436,155h-1v-10h1V155z M433,155h-1v-10h1V155z M430,155h-1v-10h1V155z M427,155h-1v-10h1V155z M424,155h-1v-10h1
				V155z M421,155h-1v-10h1V155z M418,155h-1v-10h1V155z M415,155h-1v-10h1V155z M412,155h-1v-10h1V155z M409,155h-1v-10h1V155z
				 M406,155h-1v-10h1V155z M403,155h-1v-10h1V155z M400,155h-1v-10h1V155z M397,155h-1v-10h1V155z M394,155h-1v-10h1V155z M391,155
				h-1v-10h1V155z M388,155h-1v-10h1V155z M385,155h-1v-10h1V155z M382,155h-1v-10h1V155z M379,155h-1v-10h1V155z M376,155h-1v-10h1
				V155z M373,155h-1v-10h1V155z M370,155h-1v-10h1V155z M367,155h-1v-10h1V155z M364,155h-1v-10h1V155z M361,155h-1v-10h1V155z
				 M358,155h-1v-10h1V155z M355,155h-1v-10h1V155z M352,155h-1v-10h1V155z M349,155h-1v-10h1V155z M346,155h-1v-10h1V155z M343,155
				h-1v-10h1V155z M340,155h-1v-10h1V155z M337,155h-1v-10h1V155z M334,155h-1v-10h1V155z M331,155h-1v-10h1V155z M328,155h-1v-10h1
				V155z M325,155h-1v-10h1V155z M322,155h-1v-10h1V155z M319,155h-1v-10h1V155z M316,155h-1v-10h1V155z M313,155h-1v-10h1V155z
				 M310,155h-1v-10h1V155z M307,155h-1v-10h1V155z M304,155h-1v-10h1V155z M301,155h-1v-10h1V155z M298,155h-1v-10h1V155z M295,155
				h-1v-10h1V155z M292,155h-1v-10h1V155z M289,155h-1v-10h1V155z M286,155h-1v-10h1V155z M283,155h-1v-10h1V155z M280,155h-1v-10h1
				V155z M277,155h-1v-10h1V155z M274,155h-1v-10h1V155z M271,155h-1v-10h1V155z M268,155h-1v-10h1V155z M265,155h-1v-10h1V155z
				 M262,155h-1v-10h1V155z M259,155h-1v-10h1V155z M256,155h-1v-10h1V155z M253,155h-1v-10h1V155z M250,155h-1v-10h1V155z M247,155
				h-1v-10h1V155z M244,155h-1v-10h1V155z M241,155h-1v-10h1V155z M238,155h-1v-10h1V155z M235,155h-1v-10h1V155z M232,155h-1v-10h1
				V155z M229,155h-1v-10h1V155z M226,155h-1v-10h1V155z M223,155h-1v-10h1V155z M220,155h-1v-10h1V155z M217,155h-1v-10h1V155z
				 M214,155h-1v-10h1V155z M211,155h-1v-10h1V155z M208,155h-1v-10h1V155z M205,155h-1v-10h1V155z M202,155h-1v-10h1V155z M199,155
				h-1v-10h1V155z M196,155h-1v-10h1V155z M193,155h-1v-10h1V155z M190,155h-1v-10h1V155z M187,155h-1v-10h1V155z M184,155h-1v-10h1
				V155z M181,155h-1v-10h1V155z M178,155h-1v-10h1V155z M175,155h-1v-10h1V155z M172,155h-1v-10h1V155z M169,155h-1v-10h1V155z
				 M166,155h-1v-10h1V155z M163,155h-1v-10h1V155z M160,155h-1v-10h1V155z M157,155h-1v-10h1V155z M154,155h-1v-10h1V155z M151,155
				h-1v-10h1V155z M148,155h-1v-10h1V155z M145,155h-1v-10h1V155z M142,155h-1v-10h1V155z M139,155h-1v-10h1V155z M136,155h-1v-10h1
				V155z M133,155h-1v-10h1V155z M130,155h-1v-10h1V155z M127,155h-1v-10h1V155z M124,155h-1v-10h1V155z M121,155h-1v-10h1V155z
				 M118,155h-1v-10h1V155z M115,155h-1v-10h1V155z M112,155h-1v-10h1V155z M109,155h-1v-10h1V155z M106,155h-1v-10h1V155z M103,155
				h-1v-10h1V155z M100,155h-1v-10h1V155z M97,155h-1v-10h1V155z M94,155h-1v-10h1V155z M91,155h-1v-10h1V155z M88,155h-1v-10h1V155
				z M85,155h-1v-10h1V155z M82,155h-1v-10h1V155z M79,155h-1v-10h1V155z M76,155h-1v-10h1V155z M73,155h-1v-10h1V155z M70,155h-1
				v-10h1V155z M67,155h-1v-10h1V155z M64,155h-1v-10h1V155z M61,155h-1v-10h1V155z M58,155h-1v-10h1V155z M55,155h-1v-10h1V155z
				 M52,155h-1v-10h1V155z M49,155h-1v-10h1V155z M46,155h-1v-10h1V155z M43,155h-1v-10h1V155z M40,155h-1v-10h1V155z M37,155h-1
				v-10h1V155z M34,155h-1v-10h1V155z M31,155h-1v-10h1V155z M28,155h-1v-10h1V155z M25,155h-1v-10h1V155z M22,155h-1v-10h1V155z
				 M19,155h-1v-10h1V155z M16,155h-1v-10h1V155z M13,155h-1v-10h1V155z M10,155H9v-10h1V155z M7,155H6v-10h1V155z M4,155H3v-10h1
				V155z"/>
		</g>
	</g>
	<g>
		<g>
			<rect x="501" y="145" fill="#CCCCCC" width="1" height="10"/>
		</g>
	</g>
</g>
<g>
	<g>
		<g>
			<rect y="27" fill="#CCCCCC" width="1" height="10"/>
		</g>
	</g>
	<g>
		<g>
			<path fill="#CCCCCC" d="M499,37h-1V27h1V37z M496,37h-1V27h1V37z M493,37h-1V27h1V37z M490,37h-1V27h1V37z M487,37h-1V27h1V37z
				 M484,37h-1V27h1V37z M481,37h-1V27h1V37z M478,37h-1V27h1V37z M475,37h-1V27h1V37z M472,37h-1V27h1V37z M469,37h-1V27h1V37z
				 M466,37h-1V27h1V37z M463,37h-1V27h1V37z M460,37h-1V27h1V37z M457,37h-1V27h1V37z M454,37h-1V27h1V37z M451,37h-1V27h1V37z
				 M448,37h-1V27h1V37z M445,37h-1V27h1V37z M442,37h-1V27h1V37z M439,37h-1V27h1V37z M436,37h-1V27h1V37z M433,37h-1V27h1V37z
				 M430,37h-1V27h1V37z M427,37h-1V27h1V37z M424,37h-1V27h1V37z M421,37h-1V27h1V37z M418,37h-1V27h1V37z M415,37h-1V27h1V37z
				 M412,37h-1V27h1V37z M409,37h-1V27h1V37z M406,37h-1V27h1V37z M403,37h-1V27h1V37z M400,37h-1V27h1V37z M397,37h-1V27h1V37z
				 M394,37h-1V27h1V37z M391,37h-1V27h1V37z M388,37h-1V27h1V37z M385,37h-1V27h1V37z M382,37h-1V27h1V37z M379,37h-1V27h1V37z
				 M376,37h-1V27h1V37z M373,37h-1V27h1V37z M370,37h-1V27h1V37z M367,37h-1V27h1V37z M364,37h-1V27h1V37z M361,37h-1V27h1V37z
				 M358,37h-1V27h1V37z M355,37h-1V27h1V37z M352,37h-1V27h1V37z M349,37h-1V27h1V37z M346,37h-1V27h1V37z M343,37h-1V27h1V37z
				 M340,37h-1V27h1V37z M337,37h-1V27h1V37z M334,37h-1V27h1V37z M331,37h-1V27h1V37z M328,37h-1V27h1V37z M325,37h-1V27h1V37z
				 M322,37h-1V27h1V37z M319,37h-1V27h1V37z M316,37h-1V27h1V37z M313,37h-1V27h1V37z M310,37h-1V27h1V37z M307,37h-1V27h1V37z
				 M304,37h-1V27h1V37z M301,37h-1V27h1V37z M298,37h-1V27h1V37z M295,37h-1V27h1V37z M292,37h-1V27h1V37z M289,37h-1V27h1V37z
				 M286,37h-1V27h1V37z M283,37h-1V27h1V37z M280,37h-1V27h1V37z M277,37h-1V27h1V37z M274,37h-1V27h1V37z M271,37h-1V27h1V37z
				 M268,37h-1V27h1V37z M265,37h-1V27h1V37z M262,37h-1V27h1V37z M259,37h-1V27h1V37z M256,37h-1V27h1V37z M253,37h-1V27h1V37z
				 M250,37h-1V27h1V37z M247,37h-1V27h1V37z M244,37h-1V27h1V37z M241,37h-1V27h1V37z M238,37h-1V27h1V37z M235,37h-1V27h1V37z
				 M232,37h-1V27h1V37z M229,37h-1V27h1V37z M226,37h-1V27h1V37z M223,37h-1V27h1V37z M220,37h-1V27h1V37z M217,37h-1V27h1V37z
				 M214,37h-1V27h1V37z M211,37h-1V27h1V37z M208,37h-1V27h1V37z M205,37h-1V27h1V37z M202,37h-1V27h1V37z M199,37h-1V27h1V37z
				 M196,37h-1V27h1V37z M193,37h-1V27h1V37z M190,37h-1V27h1V37z M187,37h-1V27h1V37z M184,37h-1V27h1V37z M181,37h-1V27h1V37z
				 M178,37h-1V27h1V37z M175,37h-1V27h1V37z M172,37h-1V27h1V37z M169,37h-1V27h1V37z M166,37h-1V27h1V37z M163,37h-1V27h1V37z
				 M160,37h-1V27h1V37z M157,37h-1V27h1V37z M154,37h-1V27h1V37z M151,37h-1V27h1V37z M148,37h-1V27h1V37z M145,37h-1V27h1V37z
				 M142,37h-1V27h1V37z M139,37h-1V27h1V37z M136,37h-1V27h1V37z M133,37h-1V27h1V37z M130,37h-1V27h1V37z M127,37h-1V27h1V37z
				 M124,37h-1V27h1V37z M121,37h-1V27h1V37z M118,37h-1V27h1V37z M115,37h-1V27h1V37z M112,37h-1V27h1V37z M109,37h-1V27h1V37z
				 M106,37h-1V27h1V37z M103,37h-1V27h1V37z M100,37h-1V27h1V37z M97,37h-1V27h1V37z M94,37h-1V27h1V37z M91,37h-1V27h1V37z M88,37
				h-1V27h1V37z M85,37h-1V27h1V37z M82,37h-1V27h1V37z M79,37h-1V27h1V37z M76,37h-1V27h1V37z M73,37h-1V27h1V37z M70,37h-1V27h1
				V37z M67,37h-1V27h1V37z M64,37h-1V27h1V37z M61,37h-1V27h1V37z M58,37h-1V27h1V37z M55,37h-1V27h1V37z M52,37h-1V27h1V37z
				 M49,37h-1V27h1V37z M46,37h-1V27h1V37z M43,37h-1V27h1V37z M40,37h-1V27h1V37z M37,37h-1V27h1V37z M34,37h-1V27h1V37z M31,37h-1
				V27h1V37z M28,37h-1V27h1V37z M25,37h-1V27h1V37z M22,37h-1V27h1V37z M19,37h-1V27h1V37z M16,37h-1V27h1V37z M13,37h-1V27h1V37z
				 M10,37H9V27h1V37z M7,37H6V27h1V37z M4,37H3V27h1V37z"/>
		</g>
	</g>
	<g>
		<g>
			<rect x="501" y="27" fill="#CCCCCC" width="1" height="10"/>
		</g>
	</g>
</g>
</svg>
