<!-- Generator: Adobe Illustrator 18.1.0, SVG Export Plug-In  -->
<svg version="1.1"
	 xmlns="http://www.w3.org/2000/svg" xmlns:xlink="http://www.w3.org/1999/xlink" xmlns:a="http://ns.adobe.com/AdobeSVGViewerExtensions/3.0/"
	 x="0px" y="0px" width="17.2px" height="17.2px" viewBox="0 0 17.2 17.2" enable-background="new 0 0 17.2 17.2"
	 xml:space="preserve">
<defs>
</defs>
<g>
	<path d="M2.2,17.1c-0.1,0.1-0.4,0.1-0.5,0l-1.6-1.6c-0.1-0.1-0.1-0.4,0-0.5l4.3-4.3C3.7,9.6,3.3,8.4,3.3,7c0-3.8,3.1-7,7-7
		c3.8,0,7,3.1,7,7c0,3.8-3.1,7-7,7c-1.4,0-2.7-0.4-3.8-1.1L2.2,17.1z M10.3,2.2C7.7,2.2,5.5,4.3,5.5,7c0,2.6,2.1,4.8,4.8,4.8
		S15,9.6,15,7C15,4.3,12.9,2.2,10.3,2.2z"/>
</g>
</svg>
