<!-- Generator: Adobe Illustrator 18.1.0, SVG Export Plug-In  -->
<svg version="1.1"
	 xmlns="http://www.w3.org/2000/svg" xmlns:xlink="http://www.w3.org/1999/xlink" xmlns:a="http://ns.adobe.com/AdobeSVGViewerExtensions/3.0/"
	 x="0px" y="0px" width="274.1px" height="41.9px" viewBox="0 0 274.1 41.9" enable-background="new 0 0 274.1 41.9"
	 xml:space="preserve">
<defs>
</defs>
<g>
	<path fill="#4D4D4D" d="M272.1,41.9H2c-1.1,0-2-0.9-2-2V2c0-1.1,0.9-2,2-2h270.1c1.1,0,2,0.9,2,2v37.9
		C274.1,41,273.2,41.9,272.1,41.9z"/>
</g>
<g>
	<path fill="#FFFFFF" d="M110.8,23.8c0,1.4-0.5,2.5-1.5,3.3c-1,0.8-2.4,1.2-4.1,1.2c-2,0-3.6-0.2-4.7-0.7v-1.2
		c1.2,0.5,2.7,0.8,4.6,0.8c1.4,0,2.4-0.3,3.2-0.9c0.8-0.6,1.2-1.4,1.2-2.5c0-0.6-0.1-1.2-0.4-1.6c-0.3-0.4-0.7-0.8-1.3-1.1
		c-0.6-0.3-1.5-0.7-2.6-1.1c-1.7-0.6-2.9-1.2-3.5-1.9s-1-1.6-1-2.7c0-1.2,0.5-2.3,1.5-3s2.2-1.2,3.8-1.2c1.6,0,3,0.3,4.4,0.9l-0.4,1
		c-1.4-0.6-2.7-0.9-4-0.9c-1.2,0-2.2,0.3-2.9,0.9c-0.7,0.6-1.1,1.3-1.1,2.3c0,0.6,0.1,1.1,0.3,1.5s0.6,0.7,1.1,1.1
		c0.5,0.3,1.4,0.7,2.6,1.1c1.3,0.4,2.3,0.9,2.9,1.3c0.7,0.4,1.1,0.9,1.4,1.4S110.8,23,110.8,23.8z"/>
	<path fill="#FFFFFF" d="M115,15.7v8c0,1.2,0.3,2.1,0.8,2.7c0.5,0.6,1.3,0.8,2.4,0.8c1.5,0,2.6-0.4,3.2-1.1c0.7-0.7,1-2,1-3.6v-6.8
		h1.1v12.4h-1l-0.2-1.7h-0.1c-0.8,1.3-2.2,1.9-4.3,1.9c-2.8,0-4.2-1.5-4.2-4.5v-8.1H115z"/>
	<path fill="#FFFFFF" d="M132.7,28.3c-1.8,0-3.2-0.6-4.2-1.7c-1-1.1-1.5-2.7-1.5-4.7c0-2,0.5-3.6,1.6-4.8c1-1.1,2.5-1.7,4.3-1.7
		c1.1,0,2.1,0.2,3.1,0.6l-0.3,1c-1.1-0.4-2-0.5-2.8-0.5c-1.5,0-2.7,0.5-3.4,1.4c-0.8,0.9-1.2,2.3-1.2,4c0,1.7,0.4,3,1.2,3.9
		c0.8,0.9,1.9,1.4,3.3,1.4c1.1,0,2.2-0.2,3.1-0.6v1C135.1,28.1,134,28.3,132.7,28.3z"/>
	<path fill="#FFFFFF" d="M147.5,28.1v-8c0-1.2-0.3-2.1-0.8-2.7s-1.3-0.8-2.4-0.8c-1.5,0-2.6,0.4-3.2,1.1c-0.7,0.7-1,2-1,3.6v6.8
		h-1.1V10.4h1.1V16l-0.1,1.6h0.1c0.5-0.7,1-1.3,1.8-1.6s1.6-0.5,2.6-0.5c2.8,0,4.2,1.5,4.2,4.5v8.1H147.5z"/>
	<path fill="#FFFFFF" d="M157.6,28.3c-1.8,0-3.2-0.6-4.2-1.7c-1-1.1-1.5-2.7-1.5-4.7c0-2,0.5-3.6,1.5-4.7c1-1.2,2.3-1.8,3.9-1.8
		c1.5,0,2.6,0.5,3.4,1.5c0.8,1,1.3,2.4,1.3,4.1V22h-8.9c0,1.7,0.4,3,1.2,3.9c0.8,0.9,1.9,1.3,3.3,1.3c0.7,0,1.3,0,1.9-0.1
		s1.2-0.3,2-0.6v1c-0.7,0.3-1.3,0.5-1.9,0.6C159,28.2,158.3,28.3,157.6,28.3z M157.3,16.5c-1.2,0-2.1,0.4-2.9,1.2
		c-0.7,0.8-1.1,1.9-1.3,3.4h7.6c0-1.4-0.3-2.6-0.9-3.4C159.2,16.9,158.4,16.5,157.3,16.5z"/>
	<path fill="#FFFFFF" d="M174,28.1v-8c0-1.2-0.3-2.1-0.8-2.7s-1.3-0.8-2.4-0.8c-1.5,0-2.6,0.4-3.2,1.1c-0.7,0.7-1,2-1,3.6v6.8h-1.1
		V15.7h1l0.2,1.7h0.1c0.8-1.3,2.2-1.9,4.3-1.9c2.8,0,4.2,1.5,4.2,4.5v8.1H174z"/>
</g>
</svg>
